G04 EAGLE Gerber RS-274X export*
G75*
%MOMM*%
%FSLAX34Y34*%
%LPD*%
%INTop Layer*%
%IPPOS*%
%AMOC8*
5,1,8,0,0,1.08239X$1,22.5*%
G01*
%ADD10C,0.000000*%
%ADD11C,1.879600*%
%ADD12C,1.524000*%
%ADD13C,1.260000*%
%ADD14R,1.308000X1.308000*%
%ADD15C,1.308000*%
%ADD16C,1.320800*%
%ADD17C,0.304800*%
%ADD18C,0.812800*%


D10*
X0Y0D02*
X0Y279400D01*
X254000Y279400D01*
X254000Y0D01*
X0Y0D01*
D11*
X101600Y266700D03*
X101600Y241300D03*
X152400Y266700D03*
X152400Y241300D03*
D12*
X20320Y254000D02*
X5080Y254000D01*
X5080Y228600D02*
X20320Y228600D01*
X20320Y203200D02*
X5080Y203200D01*
X5080Y177800D02*
X20320Y177800D01*
X20320Y152400D02*
X5080Y152400D01*
X5080Y127000D02*
X20320Y127000D01*
X20320Y101600D02*
X5080Y101600D01*
X5080Y76200D02*
X20320Y76200D01*
X233680Y254000D02*
X248920Y254000D01*
X248920Y228600D02*
X233680Y228600D01*
X233680Y203200D02*
X248920Y203200D01*
X248920Y177800D02*
X233680Y177800D01*
X233680Y152400D02*
X248920Y152400D01*
X248920Y127000D02*
X233680Y127000D01*
X233680Y101600D02*
X248920Y101600D01*
X248920Y76200D02*
X233680Y76200D01*
X160020Y25400D02*
X144780Y25400D01*
X144780Y50800D02*
X160020Y50800D01*
X160020Y76200D02*
X144780Y76200D01*
X63500Y68580D02*
X63500Y83820D01*
X88900Y83820D02*
X88900Y68580D01*
D13*
X165100Y141600D03*
X165100Y214000D03*
X52700Y215900D03*
X125100Y215900D03*
D14*
X203200Y50800D03*
D15*
X203200Y76200D03*
X203200Y101600D03*
X203200Y127000D03*
X203200Y152400D03*
X203200Y177800D03*
X203200Y203200D03*
X203200Y228600D03*
X203200Y254000D03*
D16*
X146304Y127000D02*
X133096Y127000D01*
X133096Y152400D02*
X146304Y152400D01*
X146304Y177800D02*
X133096Y177800D01*
X70104Y177800D02*
X56896Y177800D01*
X56896Y127000D02*
X70104Y127000D01*
X70104Y152400D02*
X56896Y152400D01*
D17*
X124587Y216027D02*
X124587Y218313D01*
X101600Y241300D01*
X124587Y216027D02*
X125100Y215900D01*
X164592Y214884D02*
X164592Y229743D01*
X153162Y241173D01*
X164592Y214884D02*
X165100Y214000D01*
X153162Y241173D02*
X152400Y241300D01*
D18*
X152019Y76581D02*
X89154Y76581D01*
X88900Y76200D01*
X150876Y141732D02*
X164592Y141732D01*
X150876Y141732D02*
X140589Y152019D01*
X164592Y141732D02*
X165100Y141600D01*
X140589Y152019D02*
X139700Y152400D01*
X53721Y211455D02*
X53721Y214884D01*
X53721Y211455D02*
X82296Y182880D01*
X82296Y171450D01*
X64008Y153162D01*
X53721Y214884D02*
X52700Y215900D01*
X64008Y153162D02*
X63500Y152400D01*
X101727Y153162D02*
X136017Y153162D01*
X101727Y153162D02*
X85725Y169164D01*
X136017Y153162D02*
X139700Y152400D01*
X85725Y169164D02*
X82296Y171450D01*
X152019Y76581D02*
X152400Y76200D01*
X153162Y51435D02*
X202311Y51435D01*
X203200Y50800D01*
X153162Y51435D02*
X152400Y50800D01*
D17*
X38100Y228600D02*
X12700Y228600D01*
X38100Y228600D02*
X76200Y228600D01*
X76814Y228593D01*
X77427Y228570D01*
X78040Y228533D01*
X78651Y228481D01*
X79262Y228415D01*
X79870Y228333D01*
X80476Y228237D01*
X81080Y228127D01*
X81681Y228002D01*
X82279Y227862D01*
X82873Y227708D01*
X83463Y227539D01*
X84049Y227357D01*
X84630Y227160D01*
X85207Y226949D01*
X85778Y226725D01*
X86344Y226487D01*
X86904Y226235D01*
X87457Y225969D01*
X88004Y225691D01*
X88544Y225399D01*
X89077Y225094D01*
X89602Y224776D01*
X90120Y224446D01*
X90629Y224104D01*
X91130Y223749D01*
X91622Y223382D01*
X92105Y223004D01*
X92579Y222614D01*
X93043Y222212D01*
X93498Y221800D01*
X93942Y221376D01*
X94376Y220942D01*
X94800Y220498D01*
X95212Y220043D01*
X95614Y219579D01*
X96004Y219105D01*
X96382Y218622D01*
X96749Y218130D01*
X97104Y217629D01*
X97446Y217120D01*
X97776Y216602D01*
X98094Y216077D01*
X98399Y215544D01*
X98691Y215004D01*
X98969Y214457D01*
X99235Y213904D01*
X99487Y213344D01*
X99725Y212778D01*
X99949Y212207D01*
X100160Y211630D01*
X100357Y211049D01*
X100539Y210463D01*
X100708Y209873D01*
X100862Y209279D01*
X101002Y208681D01*
X101127Y208080D01*
X101237Y207476D01*
X101333Y206870D01*
X101415Y206262D01*
X101481Y205651D01*
X101533Y205040D01*
X101570Y204427D01*
X101593Y203814D01*
X101600Y203200D01*
X101600Y177800D01*
X101604Y177493D01*
X101615Y177186D01*
X101633Y176880D01*
X101659Y176574D01*
X101693Y176269D01*
X101733Y175965D01*
X101781Y175662D01*
X101837Y175360D01*
X101899Y175060D01*
X101969Y174761D01*
X102046Y174464D01*
X102130Y174168D01*
X102222Y173875D01*
X102320Y173585D01*
X102425Y173297D01*
X102538Y173011D01*
X102657Y172728D01*
X102783Y172448D01*
X102915Y172171D01*
X103055Y171898D01*
X103201Y171628D01*
X103353Y171362D01*
X103512Y171099D01*
X103677Y170840D01*
X103848Y170586D01*
X104025Y170335D01*
X104209Y170089D01*
X104398Y169847D01*
X104593Y169611D01*
X104794Y169378D01*
X105000Y169151D01*
X105212Y168929D01*
X105429Y168712D01*
X105651Y168500D01*
X105878Y168294D01*
X106111Y168093D01*
X106347Y167898D01*
X106589Y167709D01*
X106835Y167525D01*
X107086Y167348D01*
X107340Y167177D01*
X107599Y167012D01*
X107862Y166853D01*
X108128Y166701D01*
X108398Y166555D01*
X108671Y166415D01*
X108948Y166283D01*
X109228Y166157D01*
X109511Y166038D01*
X109797Y165925D01*
X110085Y165820D01*
X110375Y165722D01*
X110668Y165630D01*
X110964Y165546D01*
X111261Y165469D01*
X111560Y165399D01*
X111860Y165337D01*
X112162Y165281D01*
X112465Y165233D01*
X112769Y165193D01*
X113074Y165159D01*
X113380Y165133D01*
X113686Y165115D01*
X113993Y165104D01*
X114300Y165100D01*
X203200Y165100D01*
X203507Y165096D01*
X203814Y165085D01*
X204120Y165067D01*
X204426Y165041D01*
X204731Y165007D01*
X205035Y164967D01*
X205338Y164919D01*
X205640Y164863D01*
X205940Y164801D01*
X206239Y164731D01*
X206536Y164654D01*
X206832Y164570D01*
X207125Y164478D01*
X207415Y164380D01*
X207703Y164275D01*
X207989Y164162D01*
X208272Y164043D01*
X208552Y163917D01*
X208829Y163785D01*
X209102Y163645D01*
X209372Y163499D01*
X209638Y163347D01*
X209901Y163188D01*
X210160Y163023D01*
X210414Y162852D01*
X210665Y162675D01*
X210911Y162491D01*
X211153Y162302D01*
X211389Y162107D01*
X211622Y161906D01*
X211849Y161700D01*
X212071Y161488D01*
X212288Y161271D01*
X212500Y161049D01*
X212706Y160822D01*
X212907Y160589D01*
X213102Y160353D01*
X213291Y160111D01*
X213475Y159865D01*
X213652Y159614D01*
X213823Y159360D01*
X213988Y159101D01*
X214147Y158838D01*
X214299Y158572D01*
X214445Y158302D01*
X214585Y158029D01*
X214717Y157752D01*
X214843Y157472D01*
X214962Y157189D01*
X215075Y156903D01*
X215180Y156615D01*
X215278Y156325D01*
X215370Y156032D01*
X215454Y155736D01*
X215531Y155439D01*
X215601Y155140D01*
X215663Y154840D01*
X215719Y154538D01*
X215767Y154235D01*
X215807Y153931D01*
X215841Y153626D01*
X215867Y153320D01*
X215885Y153014D01*
X215896Y152707D01*
X215900Y152400D01*
X215900Y38100D01*
X215896Y37793D01*
X215885Y37486D01*
X215867Y37180D01*
X215841Y36874D01*
X215807Y36569D01*
X215767Y36265D01*
X215719Y35962D01*
X215663Y35660D01*
X215601Y35360D01*
X215531Y35061D01*
X215454Y34764D01*
X215370Y34468D01*
X215278Y34175D01*
X215180Y33885D01*
X215075Y33597D01*
X214962Y33311D01*
X214843Y33028D01*
X214717Y32748D01*
X214585Y32471D01*
X214445Y32198D01*
X214299Y31928D01*
X214147Y31662D01*
X213988Y31399D01*
X213823Y31140D01*
X213652Y30886D01*
X213475Y30635D01*
X213291Y30389D01*
X213102Y30147D01*
X212907Y29911D01*
X212706Y29678D01*
X212500Y29451D01*
X212288Y29229D01*
X212071Y29012D01*
X211849Y28800D01*
X211622Y28594D01*
X211389Y28393D01*
X211153Y28198D01*
X210911Y28009D01*
X210665Y27825D01*
X210414Y27648D01*
X210160Y27477D01*
X209901Y27312D01*
X209638Y27153D01*
X209372Y27001D01*
X209102Y26855D01*
X208829Y26715D01*
X208552Y26583D01*
X208272Y26457D01*
X207989Y26338D01*
X207703Y26225D01*
X207415Y26120D01*
X207125Y26022D01*
X206832Y25930D01*
X206536Y25846D01*
X206239Y25769D01*
X205940Y25699D01*
X205640Y25637D01*
X205338Y25581D01*
X205035Y25533D01*
X204731Y25493D01*
X204426Y25459D01*
X204120Y25433D01*
X203814Y25415D01*
X203507Y25404D01*
X203200Y25400D01*
X152400Y25400D01*
X217170Y203454D02*
X241173Y203454D01*
X217170Y203454D02*
X202311Y218313D01*
X193167Y218313D01*
X157734Y253746D01*
X114300Y253746D01*
X101727Y266319D01*
X241173Y203454D02*
X241300Y203200D01*
X101727Y266319D02*
X101600Y266700D01*
X203454Y178308D02*
X241173Y178308D01*
X203454Y178308D02*
X203200Y177800D01*
X241173Y178308D02*
X241300Y177800D01*
X202311Y178308D02*
X140589Y178308D01*
X139700Y177800D01*
X202311Y178308D02*
X203200Y177800D01*
X62865Y178308D02*
X13716Y178308D01*
X12700Y177800D01*
X62865Y178308D02*
X63500Y177800D01*
X171450Y126873D02*
X202311Y126873D01*
X161989Y117412D02*
X161163Y116586D01*
X161989Y117412D02*
X171450Y126873D01*
X74295Y116586D02*
X64008Y126873D01*
X202311Y126873D02*
X203200Y127000D01*
X64008Y126873D02*
X63500Y127000D01*
X62865Y126873D02*
X13716Y126873D01*
X12700Y127000D01*
X62865Y126873D02*
X63500Y127000D01*
X74295Y116586D02*
X161163Y116586D01*
X161219Y116588D01*
X161275Y116594D01*
X161331Y116603D01*
X161386Y116617D01*
X161440Y116634D01*
X161492Y116654D01*
X161543Y116679D01*
X161592Y116706D01*
X161639Y116737D01*
X161684Y116771D01*
X161727Y116808D01*
X161767Y116848D01*
X161804Y116891D01*
X161838Y116936D01*
X161869Y116983D01*
X161896Y117032D01*
X161921Y117083D01*
X161941Y117135D01*
X161958Y117189D01*
X161972Y117244D01*
X161981Y117300D01*
X161987Y117356D01*
X161989Y117412D01*
X189738Y152019D02*
X202311Y152019D01*
X189738Y152019D02*
X165735Y128016D01*
X140589Y128016D01*
X202311Y152019D02*
X203200Y152400D01*
X140589Y128016D02*
X139700Y127000D01*
X43434Y152019D02*
X13716Y152019D01*
X43434Y152019D02*
X58293Y137160D01*
X128016Y137160D01*
X138303Y126873D01*
X13716Y152019D02*
X12700Y152400D01*
X138303Y126873D02*
X139700Y127000D01*
X88011Y100584D02*
X202311Y100584D01*
X88011Y100584D02*
X64008Y76581D01*
X202311Y100584D02*
X203200Y101600D01*
X64008Y76581D02*
X63500Y76200D01*
M02*
