G04 EAGLE Gerber RS-274X export*
G75*
%MOMM*%
%FSLAX34Y34*%
%LPD*%
%INSilk top*%
%IPPOS*%
%AMOC8*
5,1,8,0,0,1.08239X$1,22.5*%
G01*
%ADD10C,0.000000*%
%ADD11C,0.025400*%
%ADD12C,0.254000*%
%ADD13C,0.127000*%
%ADD14C,0.152400*%
%ADD15C,0.101600*%
%ADD16C,0.200000*%
%ADD17R,1.905000X1.524000*%


D10*
X0Y0D02*
X0Y279400D01*
X254000Y279400D01*
X254000Y0D01*
X0Y0D01*
D11*
X115438Y237594D02*
X113974Y239350D01*
X113975Y239350D02*
X114322Y239651D01*
X114662Y239960D01*
X114995Y240277D01*
X115320Y240602D01*
X115637Y240934D01*
X115946Y241274D01*
X116247Y241622D01*
X116540Y241976D01*
X116823Y242338D01*
X117098Y242706D01*
X117365Y243081D01*
X117622Y243462D01*
X117870Y243849D01*
X118108Y244241D01*
X118337Y244640D01*
X118557Y245044D01*
X118767Y245452D01*
X118967Y245866D01*
X119157Y246285D01*
X119336Y246708D01*
X119506Y247135D01*
X119665Y247566D01*
X119814Y248001D01*
X119953Y248439D01*
X120081Y248880D01*
X120198Y249325D01*
X120305Y249772D01*
X120401Y250221D01*
X120486Y250673D01*
X120560Y251126D01*
X120624Y251582D01*
X120676Y252038D01*
X120718Y252496D01*
X120748Y252954D01*
X120768Y253414D01*
X120777Y253873D01*
X123062Y253874D01*
X123063Y253873D01*
X123053Y253358D01*
X123032Y252843D01*
X122998Y252329D01*
X122952Y251816D01*
X122893Y251304D01*
X122822Y250794D01*
X122739Y250285D01*
X122644Y249779D01*
X122536Y249275D01*
X122417Y248774D01*
X122286Y248276D01*
X122142Y247781D01*
X121987Y247290D01*
X121820Y246802D01*
X121641Y246319D01*
X121451Y245840D01*
X121250Y245366D01*
X121037Y244897D01*
X120813Y244433D01*
X120578Y243974D01*
X120331Y243522D01*
X120075Y243075D01*
X119807Y242635D01*
X119529Y242201D01*
X119241Y241774D01*
X118942Y241354D01*
X118633Y240942D01*
X118315Y240536D01*
X117987Y240139D01*
X117650Y239750D01*
X117303Y239369D01*
X116947Y238996D01*
X116583Y238632D01*
X116210Y238277D01*
X115828Y237931D01*
X115438Y237594D01*
X115284Y237778D01*
X115670Y238111D01*
X116047Y238453D01*
X116416Y238805D01*
X116776Y239165D01*
X117128Y239533D01*
X117471Y239910D01*
X117804Y240295D01*
X118129Y240688D01*
X118443Y241088D01*
X118748Y241496D01*
X119044Y241911D01*
X119329Y242333D01*
X119604Y242762D01*
X119868Y243198D01*
X120122Y243639D01*
X120365Y244087D01*
X120598Y244540D01*
X120819Y244998D01*
X121030Y245462D01*
X121229Y245931D01*
X121417Y246405D01*
X121594Y246882D01*
X121759Y247364D01*
X121912Y247850D01*
X122054Y248339D01*
X122184Y248832D01*
X122302Y249327D01*
X122408Y249825D01*
X122503Y250326D01*
X122585Y250829D01*
X122655Y251333D01*
X122713Y251839D01*
X122758Y252347D01*
X122792Y252855D01*
X122813Y253364D01*
X122823Y253873D01*
X122583Y253873D01*
X122574Y253370D01*
X122552Y252867D01*
X122519Y252364D01*
X122474Y251863D01*
X122417Y251362D01*
X122347Y250864D01*
X122266Y250367D01*
X122173Y249872D01*
X122068Y249379D01*
X121951Y248890D01*
X121823Y248403D01*
X121683Y247919D01*
X121531Y247439D01*
X121368Y246963D01*
X121193Y246490D01*
X121007Y246022D01*
X120810Y245559D01*
X120602Y245100D01*
X120383Y244647D01*
X120153Y244199D01*
X119913Y243756D01*
X119662Y243320D01*
X119400Y242890D01*
X119128Y242466D01*
X118847Y242048D01*
X118555Y241638D01*
X118253Y241235D01*
X117942Y240839D01*
X117622Y240450D01*
X117292Y240070D01*
X116953Y239697D01*
X116606Y239333D01*
X116249Y238977D01*
X115885Y238630D01*
X115512Y238292D01*
X115131Y237962D01*
X114977Y238147D01*
X115354Y238472D01*
X115722Y238807D01*
X116083Y239150D01*
X116435Y239502D01*
X116778Y239862D01*
X117113Y240230D01*
X117439Y240606D01*
X117756Y240990D01*
X118063Y241381D01*
X118361Y241780D01*
X118650Y242186D01*
X118928Y242598D01*
X119197Y243017D01*
X119455Y243442D01*
X119703Y243874D01*
X119941Y244311D01*
X120168Y244754D01*
X120385Y245202D01*
X120590Y245655D01*
X120785Y246113D01*
X120969Y246576D01*
X121141Y247043D01*
X121303Y247514D01*
X121453Y247988D01*
X121591Y248466D01*
X121718Y248947D01*
X121834Y249431D01*
X121937Y249918D01*
X122030Y250407D01*
X122110Y250899D01*
X122178Y251391D01*
X122235Y251886D01*
X122280Y252382D01*
X122313Y252878D01*
X122334Y253376D01*
X122343Y253873D01*
X122103Y253873D01*
X122094Y253381D01*
X122073Y252890D01*
X122040Y252399D01*
X121996Y251909D01*
X121940Y251421D01*
X121872Y250933D01*
X121793Y250448D01*
X121702Y249965D01*
X121599Y249484D01*
X121485Y249005D01*
X121360Y248530D01*
X121223Y248057D01*
X121075Y247588D01*
X120915Y247123D01*
X120745Y246662D01*
X120563Y246204D01*
X120371Y245752D01*
X120167Y245304D01*
X119954Y244861D01*
X119729Y244423D01*
X119494Y243991D01*
X119249Y243565D01*
X118993Y243145D01*
X118728Y242730D01*
X118453Y242323D01*
X118168Y241922D01*
X117873Y241528D01*
X117569Y241141D01*
X117256Y240762D01*
X116934Y240390D01*
X116603Y240026D01*
X116264Y239670D01*
X115916Y239323D01*
X115560Y238983D01*
X115196Y238653D01*
X114823Y238331D01*
X114670Y238516D01*
X115037Y238833D01*
X115397Y239160D01*
X115749Y239495D01*
X116093Y239839D01*
X116429Y240190D01*
X116755Y240550D01*
X117074Y240917D01*
X117383Y241292D01*
X117683Y241675D01*
X117974Y242064D01*
X118256Y242460D01*
X118528Y242863D01*
X118790Y243272D01*
X119042Y243687D01*
X119285Y244109D01*
X119517Y244536D01*
X119739Y244968D01*
X119950Y245406D01*
X120151Y245848D01*
X120341Y246296D01*
X120521Y246747D01*
X120689Y247203D01*
X120847Y247663D01*
X120993Y248126D01*
X121128Y248593D01*
X121252Y249063D01*
X121365Y249536D01*
X121467Y250011D01*
X121556Y250489D01*
X121635Y250968D01*
X121702Y251450D01*
X121757Y251933D01*
X121801Y252417D01*
X121833Y252902D01*
X121854Y253387D01*
X121863Y253873D01*
X121623Y253873D01*
X121614Y253393D01*
X121593Y252913D01*
X121562Y252434D01*
X121518Y251956D01*
X121464Y251479D01*
X121397Y251003D01*
X121320Y250529D01*
X121231Y250058D01*
X121131Y249588D01*
X121019Y249121D01*
X120897Y248657D01*
X120763Y248195D01*
X120618Y247738D01*
X120463Y247283D01*
X120296Y246833D01*
X120119Y246387D01*
X119931Y245945D01*
X119733Y245507D01*
X119524Y245075D01*
X119305Y244648D01*
X119075Y244226D01*
X118836Y243810D01*
X118587Y243399D01*
X118328Y242995D01*
X118059Y242597D01*
X117781Y242206D01*
X117493Y241821D01*
X117197Y241443D01*
X116891Y241073D01*
X116577Y240710D01*
X116254Y240355D01*
X115922Y240007D01*
X115583Y239668D01*
X115235Y239337D01*
X114879Y239014D01*
X114516Y238700D01*
X114363Y238884D01*
X114721Y239195D01*
X115072Y239513D01*
X115416Y239841D01*
X115751Y240176D01*
X116079Y240519D01*
X116398Y240870D01*
X116708Y241229D01*
X117010Y241595D01*
X117303Y241968D01*
X117587Y242348D01*
X117862Y242734D01*
X118127Y243127D01*
X118383Y243527D01*
X118630Y243932D01*
X118866Y244343D01*
X119093Y244760D01*
X119309Y245182D01*
X119515Y245609D01*
X119711Y246041D01*
X119897Y246478D01*
X120072Y246919D01*
X120237Y247363D01*
X120390Y247812D01*
X120533Y248264D01*
X120665Y248720D01*
X120787Y249179D01*
X120897Y249640D01*
X120996Y250104D01*
X121083Y250570D01*
X121160Y251038D01*
X121225Y251508D01*
X121280Y251979D01*
X121322Y252452D01*
X121354Y252925D01*
X121374Y253399D01*
X121383Y253873D01*
X121143Y253873D01*
X121134Y253405D01*
X121114Y252937D01*
X121083Y252469D01*
X121041Y252003D01*
X120987Y251537D01*
X120923Y251073D01*
X120847Y250611D01*
X120760Y250150D01*
X120662Y249692D01*
X120554Y249236D01*
X120434Y248784D01*
X120303Y248334D01*
X120162Y247887D01*
X120010Y247444D01*
X119848Y247004D01*
X119675Y246569D01*
X119492Y246138D01*
X119298Y245711D01*
X119094Y245289D01*
X118880Y244872D01*
X118657Y244461D01*
X118423Y244055D01*
X118180Y243654D01*
X117927Y243260D01*
X117665Y242871D01*
X117394Y242490D01*
X117113Y242114D01*
X116824Y241746D01*
X116526Y241384D01*
X116219Y241030D01*
X115904Y240684D01*
X115581Y240344D01*
X115249Y240013D01*
X114910Y239690D01*
X114563Y239375D01*
X114209Y239069D01*
X114055Y239253D01*
X114405Y239556D01*
X114748Y239867D01*
X115083Y240186D01*
X115410Y240513D01*
X115729Y240848D01*
X116040Y241190D01*
X116343Y241540D01*
X116637Y241897D01*
X116923Y242261D01*
X117200Y242631D01*
X117468Y243009D01*
X117727Y243392D01*
X117977Y243782D01*
X118217Y244177D01*
X118447Y244578D01*
X118668Y244985D01*
X118879Y245396D01*
X119081Y245813D01*
X119272Y246234D01*
X119453Y246660D01*
X119624Y247090D01*
X119784Y247524D01*
X119934Y247962D01*
X120074Y248403D01*
X120202Y248847D01*
X120321Y249294D01*
X120428Y249744D01*
X120525Y250197D01*
X120610Y250651D01*
X120685Y251108D01*
X120749Y251566D01*
X120802Y252026D01*
X120844Y252487D01*
X120874Y252948D01*
X120894Y253411D01*
X120903Y253873D01*
X123062Y254126D02*
X120776Y254126D01*
X120777Y254127D02*
X120768Y254592D01*
X120748Y255057D01*
X120717Y255521D01*
X120674Y255984D01*
X120620Y256446D01*
X120555Y256907D01*
X120479Y257366D01*
X120392Y257823D01*
X120294Y258278D01*
X120184Y258730D01*
X120064Y259180D01*
X119933Y259626D01*
X119791Y260069D01*
X119638Y260509D01*
X119475Y260944D01*
X119301Y261376D01*
X119117Y261803D01*
X118923Y262226D01*
X118718Y262644D01*
X118503Y263057D01*
X118278Y263464D01*
X118044Y263866D01*
X117800Y264262D01*
X117546Y264652D01*
X117283Y265036D01*
X117010Y265413D01*
X116729Y265783D01*
X116439Y266147D01*
X116140Y266503D01*
X115832Y266852D01*
X115516Y267194D01*
X115192Y267528D01*
X114859Y267853D01*
X114519Y268171D01*
X114172Y268480D01*
X113817Y268781D01*
X113455Y269073D01*
X113085Y269356D01*
X112709Y269630D01*
X112327Y269895D01*
X111938Y270151D01*
X111543Y270397D01*
X111142Y270633D01*
X110736Y270860D01*
X111811Y272877D01*
X111812Y272877D01*
X112267Y272623D01*
X112717Y272359D01*
X113159Y272083D01*
X113595Y271797D01*
X114024Y271500D01*
X114446Y271194D01*
X114860Y270876D01*
X115266Y270549D01*
X115664Y270212D01*
X116053Y269866D01*
X116435Y269510D01*
X116807Y269145D01*
X117170Y268771D01*
X117525Y268389D01*
X117870Y267998D01*
X118205Y267598D01*
X118530Y267191D01*
X118846Y266776D01*
X119151Y266353D01*
X119446Y265923D01*
X119730Y265486D01*
X120004Y265042D01*
X120267Y264592D01*
X120519Y264135D01*
X120759Y263673D01*
X120989Y263204D01*
X121207Y262731D01*
X121413Y262252D01*
X121608Y261768D01*
X121790Y261280D01*
X121961Y260787D01*
X122120Y260290D01*
X122267Y259790D01*
X122402Y259286D01*
X122524Y258779D01*
X122634Y258270D01*
X122731Y257757D01*
X122816Y257243D01*
X122889Y256726D01*
X122949Y256209D01*
X122996Y255689D01*
X123031Y255169D01*
X123053Y254648D01*
X123063Y254127D01*
X122823Y254127D01*
X122813Y254642D01*
X122791Y255157D01*
X122757Y255672D01*
X122710Y256185D01*
X122651Y256697D01*
X122579Y257208D01*
X122495Y257716D01*
X122398Y258223D01*
X122290Y258727D01*
X122169Y259228D01*
X122036Y259726D01*
X121891Y260221D01*
X121733Y260712D01*
X121564Y261199D01*
X121384Y261681D01*
X121191Y262160D01*
X120987Y262633D01*
X120772Y263102D01*
X120545Y263565D01*
X120307Y264022D01*
X120058Y264473D01*
X119798Y264919D01*
X119528Y265357D01*
X119247Y265790D01*
X118955Y266215D01*
X118653Y266633D01*
X118341Y267043D01*
X118019Y267446D01*
X117688Y267841D01*
X117347Y268227D01*
X116997Y268606D01*
X116637Y268975D01*
X116269Y269336D01*
X115892Y269688D01*
X115507Y270031D01*
X115113Y270364D01*
X114712Y270687D01*
X114303Y271001D01*
X113886Y271304D01*
X113462Y271597D01*
X113031Y271880D01*
X112593Y272153D01*
X112149Y272414D01*
X111699Y272665D01*
X111586Y272454D01*
X112031Y272206D01*
X112470Y271947D01*
X112903Y271678D01*
X113329Y271398D01*
X113748Y271108D01*
X114160Y270808D01*
X114564Y270498D01*
X114961Y270178D01*
X115350Y269849D01*
X115731Y269510D01*
X116104Y269162D01*
X116468Y268806D01*
X116823Y268440D01*
X117169Y268066D01*
X117506Y267684D01*
X117834Y267294D01*
X118152Y266895D01*
X118460Y266490D01*
X118759Y266076D01*
X119047Y265656D01*
X119325Y265229D01*
X119593Y264795D01*
X119849Y264355D01*
X120096Y263909D01*
X120331Y263457D01*
X120555Y262999D01*
X120768Y262536D01*
X120970Y262068D01*
X121160Y261595D01*
X121339Y261118D01*
X121506Y260636D01*
X121661Y260151D01*
X121804Y259662D01*
X121936Y259169D01*
X122056Y258674D01*
X122163Y258176D01*
X122258Y257675D01*
X122342Y257172D01*
X122413Y256668D01*
X122471Y256161D01*
X122518Y255654D01*
X122552Y255145D01*
X122573Y254636D01*
X122583Y254127D01*
X122343Y254127D01*
X122333Y254630D01*
X122312Y255134D01*
X122278Y255636D01*
X122232Y256138D01*
X122174Y256638D01*
X122104Y257137D01*
X122022Y257634D01*
X121928Y258129D01*
X121821Y258621D01*
X121703Y259111D01*
X121573Y259598D01*
X121431Y260081D01*
X121278Y260561D01*
X121113Y261037D01*
X120936Y261509D01*
X120748Y261976D01*
X120549Y262438D01*
X120338Y262896D01*
X120116Y263349D01*
X119884Y263795D01*
X119641Y264237D01*
X119387Y264672D01*
X119122Y265100D01*
X118848Y265523D01*
X118563Y265938D01*
X118268Y266346D01*
X117963Y266748D01*
X117649Y267141D01*
X117325Y267527D01*
X116992Y267905D01*
X116649Y268275D01*
X116298Y268636D01*
X115938Y268988D01*
X115570Y269332D01*
X115194Y269667D01*
X114809Y269992D01*
X114417Y270308D01*
X114017Y270615D01*
X113610Y270911D01*
X113196Y271198D01*
X112775Y271475D01*
X112347Y271741D01*
X111913Y271997D01*
X111473Y272242D01*
X111360Y272030D01*
X111795Y271788D01*
X112224Y271535D01*
X112646Y271272D01*
X113063Y270998D01*
X113472Y270715D01*
X113874Y270422D01*
X114269Y270119D01*
X114657Y269807D01*
X115037Y269485D01*
X115409Y269154D01*
X115773Y268814D01*
X116129Y268466D01*
X116476Y268109D01*
X116814Y267744D01*
X117143Y267370D01*
X117463Y266989D01*
X117774Y266600D01*
X118075Y266203D01*
X118366Y265800D01*
X118648Y265389D01*
X118920Y264972D01*
X119181Y264548D01*
X119432Y264118D01*
X119672Y263682D01*
X119902Y263241D01*
X120121Y262793D01*
X120329Y262341D01*
X120526Y261884D01*
X120712Y261422D01*
X120887Y260956D01*
X121050Y260486D01*
X121202Y260011D01*
X121342Y259534D01*
X121470Y259053D01*
X121587Y258569D01*
X121692Y258082D01*
X121786Y257593D01*
X121867Y257102D01*
X121936Y256609D01*
X121994Y256114D01*
X122039Y255619D01*
X122072Y255122D01*
X122093Y254624D01*
X122103Y254127D01*
X121863Y254127D01*
X121854Y254618D01*
X121833Y255110D01*
X121800Y255601D01*
X121755Y256091D01*
X121698Y256579D01*
X121629Y257067D01*
X121549Y257552D01*
X121457Y258035D01*
X121353Y258516D01*
X121238Y258994D01*
X121111Y259470D01*
X120972Y259942D01*
X120822Y260410D01*
X120661Y260875D01*
X120488Y261336D01*
X120304Y261792D01*
X120110Y262244D01*
X119904Y262691D01*
X119688Y263133D01*
X119461Y263569D01*
X119223Y264000D01*
X118975Y264425D01*
X118717Y264843D01*
X118449Y265256D01*
X118170Y265661D01*
X117882Y266060D01*
X117585Y266452D01*
X117278Y266836D01*
X116961Y267213D01*
X116636Y267582D01*
X116302Y267943D01*
X115959Y268296D01*
X115608Y268641D01*
X115248Y268976D01*
X114880Y269303D01*
X114505Y269621D01*
X114122Y269930D01*
X113732Y270229D01*
X113334Y270519D01*
X112929Y270799D01*
X112518Y271069D01*
X112101Y271329D01*
X111677Y271579D01*
X111247Y271818D01*
X111134Y271606D01*
X111559Y271370D01*
X111977Y271123D01*
X112390Y270866D01*
X112796Y270599D01*
X113196Y270322D01*
X113589Y270036D01*
X113974Y269740D01*
X114353Y269435D01*
X114724Y269121D01*
X115087Y268798D01*
X115442Y268467D01*
X115789Y268126D01*
X116128Y267778D01*
X116458Y267421D01*
X116780Y267056D01*
X117092Y266684D01*
X117396Y266304D01*
X117690Y265917D01*
X117974Y265523D01*
X118249Y265122D01*
X118514Y264715D01*
X118769Y264301D01*
X119014Y263881D01*
X119249Y263456D01*
X119473Y263025D01*
X119687Y262588D01*
X119890Y262146D01*
X120083Y261700D01*
X120264Y261249D01*
X120435Y260794D01*
X120594Y260335D01*
X120742Y259872D01*
X120879Y259406D01*
X121005Y258936D01*
X121119Y258463D01*
X121222Y257988D01*
X121313Y257511D01*
X121392Y257031D01*
X121460Y256550D01*
X121516Y256067D01*
X121560Y255583D01*
X121593Y255098D01*
X121614Y254613D01*
X121623Y254127D01*
X121383Y254127D01*
X121374Y254607D01*
X121353Y255086D01*
X121321Y255565D01*
X121277Y256044D01*
X121222Y256521D01*
X121155Y256996D01*
X121076Y257470D01*
X120986Y257941D01*
X120885Y258411D01*
X120772Y258878D01*
X120648Y259341D01*
X120513Y259802D01*
X120366Y260259D01*
X120209Y260713D01*
X120040Y261163D01*
X119861Y261608D01*
X119671Y262049D01*
X119470Y262485D01*
X119259Y262917D01*
X119037Y263343D01*
X118806Y263763D01*
X118564Y264178D01*
X118311Y264586D01*
X118050Y264989D01*
X117778Y265385D01*
X117497Y265774D01*
X117206Y266157D01*
X116907Y266532D01*
X116598Y266900D01*
X116281Y267260D01*
X115954Y267612D01*
X115620Y267956D01*
X115277Y268293D01*
X114926Y268620D01*
X114567Y268939D01*
X114201Y269250D01*
X113827Y269551D01*
X113446Y269843D01*
X113058Y270126D01*
X112663Y270399D01*
X112262Y270663D01*
X111854Y270917D01*
X111441Y271161D01*
X111021Y271395D01*
X110908Y271183D01*
X111322Y270952D01*
X111731Y270711D01*
X112134Y270460D01*
X112530Y270200D01*
X112920Y269930D01*
X113303Y269650D01*
X113679Y269362D01*
X114049Y269064D01*
X114411Y268758D01*
X114765Y268442D01*
X115112Y268119D01*
X115450Y267787D01*
X115781Y267446D01*
X116103Y267098D01*
X116417Y266743D01*
X116721Y266379D01*
X117017Y266009D01*
X117304Y265631D01*
X117582Y265247D01*
X117850Y264855D01*
X118109Y264458D01*
X118358Y264054D01*
X118597Y263645D01*
X118826Y263229D01*
X119045Y262809D01*
X119253Y262383D01*
X119452Y261952D01*
X119639Y261516D01*
X119817Y261076D01*
X119983Y260632D01*
X120138Y260184D01*
X120283Y259732D01*
X120417Y259277D01*
X120539Y258819D01*
X120651Y258358D01*
X120751Y257895D01*
X120840Y257429D01*
X120917Y256961D01*
X120983Y256491D01*
X121038Y256020D01*
X121082Y255548D01*
X121113Y255075D01*
X121134Y254601D01*
X121143Y254127D01*
X120903Y254127D01*
X120894Y254595D01*
X120874Y255063D01*
X120842Y255530D01*
X120799Y255997D01*
X120745Y256462D01*
X120680Y256926D01*
X120603Y257388D01*
X120515Y257848D01*
X120416Y258306D01*
X120306Y258761D01*
X120185Y259213D01*
X120053Y259663D01*
X119911Y260109D01*
X119757Y260551D01*
X119593Y260990D01*
X119418Y261424D01*
X119232Y261854D01*
X119037Y262280D01*
X118830Y262701D01*
X118614Y263116D01*
X118388Y263526D01*
X118152Y263931D01*
X117906Y264329D01*
X117651Y264722D01*
X117386Y265108D01*
X117112Y265488D01*
X116828Y265861D01*
X116536Y266227D01*
X116235Y266586D01*
X115925Y266937D01*
X115607Y267281D01*
X115281Y267617D01*
X114946Y267945D01*
X114604Y268264D01*
X114254Y268576D01*
X113897Y268879D01*
X113532Y269172D01*
X113160Y269458D01*
X112782Y269733D01*
X112397Y270000D01*
X112005Y270257D01*
X111608Y270505D01*
X111204Y270743D01*
X110795Y270971D01*
X80138Y253874D02*
X82424Y253874D01*
X82423Y253873D02*
X82432Y253405D01*
X82453Y252937D01*
X82484Y252469D01*
X82527Y252002D01*
X82582Y251537D01*
X82648Y251073D01*
X82725Y250611D01*
X82813Y250151D01*
X82913Y249693D01*
X83024Y249237D01*
X83146Y248785D01*
X83279Y248336D01*
X83423Y247890D01*
X83577Y247447D01*
X83743Y247009D01*
X83919Y246575D01*
X84106Y246145D01*
X84303Y245720D01*
X84510Y245300D01*
X84728Y244885D01*
X84956Y244475D01*
X85193Y244071D01*
X85441Y243673D01*
X85698Y243282D01*
X85965Y242896D01*
X86241Y242517D01*
X86526Y242146D01*
X86820Y241781D01*
X87123Y241423D01*
X87435Y241073D01*
X87755Y240731D01*
X88083Y240397D01*
X88419Y240071D01*
X88764Y239753D01*
X89116Y239443D01*
X87639Y237699D01*
X87639Y237698D01*
X87244Y238045D01*
X86858Y238401D01*
X86481Y238766D01*
X86112Y239141D01*
X85753Y239524D01*
X85404Y239917D01*
X85064Y240317D01*
X84734Y240726D01*
X84414Y241143D01*
X84105Y241567D01*
X83806Y241999D01*
X83517Y242438D01*
X83240Y242884D01*
X82973Y243337D01*
X82718Y243796D01*
X82474Y244261D01*
X82241Y244732D01*
X82020Y245209D01*
X81811Y245691D01*
X81613Y246178D01*
X81428Y246669D01*
X81254Y247165D01*
X81093Y247665D01*
X80944Y248169D01*
X80808Y248676D01*
X80684Y249187D01*
X80572Y249700D01*
X80473Y250216D01*
X80387Y250734D01*
X80313Y251254D01*
X80253Y251776D01*
X80205Y252299D01*
X80169Y252823D01*
X80147Y253348D01*
X80137Y253873D01*
X80377Y253873D01*
X80387Y253354D01*
X80409Y252835D01*
X80444Y252317D01*
X80491Y251800D01*
X80552Y251284D01*
X80624Y250770D01*
X80710Y250257D01*
X80807Y249747D01*
X80918Y249240D01*
X81040Y248735D01*
X81175Y248233D01*
X81323Y247735D01*
X81482Y247241D01*
X81653Y246751D01*
X81837Y246265D01*
X82032Y245784D01*
X82239Y245307D01*
X82457Y244836D01*
X82687Y244370D01*
X82929Y243910D01*
X83181Y243457D01*
X83445Y243009D01*
X83719Y242568D01*
X84004Y242134D01*
X84300Y241707D01*
X84606Y241287D01*
X84922Y240875D01*
X85248Y240471D01*
X85584Y240075D01*
X85930Y239687D01*
X86285Y239308D01*
X86649Y238938D01*
X87022Y238576D01*
X87404Y238224D01*
X87794Y237881D01*
X87949Y238065D01*
X87563Y238403D01*
X87186Y238751D01*
X86817Y239109D01*
X86457Y239475D01*
X86106Y239850D01*
X85765Y240233D01*
X85433Y240625D01*
X85110Y241024D01*
X84798Y241431D01*
X84495Y241846D01*
X84203Y242268D01*
X83921Y242698D01*
X83650Y243134D01*
X83389Y243576D01*
X83140Y244025D01*
X82901Y244479D01*
X82674Y244940D01*
X82458Y245405D01*
X82253Y245876D01*
X82060Y246352D01*
X81879Y246833D01*
X81710Y247317D01*
X81552Y247806D01*
X81407Y248298D01*
X81273Y248794D01*
X81152Y249293D01*
X81043Y249795D01*
X80946Y250299D01*
X80862Y250805D01*
X80790Y251314D01*
X80730Y251824D01*
X80683Y252335D01*
X80649Y252847D01*
X80627Y253360D01*
X80617Y253873D01*
X80857Y253873D01*
X80867Y253366D01*
X80888Y252859D01*
X80923Y252353D01*
X80969Y251847D01*
X81028Y251343D01*
X81099Y250841D01*
X81182Y250340D01*
X81278Y249842D01*
X81386Y249346D01*
X81506Y248853D01*
X81638Y248363D01*
X81782Y247876D01*
X81937Y247393D01*
X82105Y246914D01*
X82284Y246439D01*
X82475Y245969D01*
X82677Y245504D01*
X82890Y245043D01*
X83115Y244588D01*
X83351Y244139D01*
X83598Y243695D01*
X83855Y243258D01*
X84123Y242827D01*
X84402Y242403D01*
X84690Y241986D01*
X84989Y241576D01*
X85298Y241173D01*
X85617Y240778D01*
X85945Y240391D01*
X86283Y240012D01*
X86630Y239642D01*
X86985Y239280D01*
X87350Y238927D01*
X87723Y238583D01*
X88104Y238248D01*
X88259Y238431D01*
X87882Y238762D01*
X87514Y239102D01*
X87154Y239451D01*
X86802Y239809D01*
X86459Y240175D01*
X86126Y240549D01*
X85801Y240932D01*
X85486Y241322D01*
X85181Y241720D01*
X84886Y242125D01*
X84600Y242538D01*
X84325Y242957D01*
X84060Y243383D01*
X83806Y243815D01*
X83562Y244253D01*
X83329Y244697D01*
X83107Y245147D01*
X82896Y245602D01*
X82696Y246062D01*
X82508Y246527D01*
X82330Y246996D01*
X82165Y247469D01*
X82011Y247947D01*
X81869Y248428D01*
X81738Y248912D01*
X81620Y249399D01*
X81513Y249889D01*
X81419Y250382D01*
X81336Y250876D01*
X81266Y251373D01*
X81208Y251871D01*
X81162Y252371D01*
X81128Y252871D01*
X81107Y253372D01*
X81097Y253873D01*
X81337Y253873D01*
X81347Y253378D01*
X81368Y252883D01*
X81401Y252388D01*
X81447Y251895D01*
X81504Y251403D01*
X81574Y250912D01*
X81655Y250423D01*
X81749Y249937D01*
X81854Y249452D01*
X81971Y248971D01*
X82100Y248492D01*
X82240Y248017D01*
X82393Y247545D01*
X82556Y247078D01*
X82731Y246614D01*
X82917Y246155D01*
X83115Y245700D01*
X83323Y245251D01*
X83543Y244806D01*
X83773Y244368D01*
X84014Y243934D01*
X84265Y243507D01*
X84527Y243087D01*
X84799Y242672D01*
X85081Y242265D01*
X85373Y241864D01*
X85675Y241471D01*
X85986Y241086D01*
X86306Y240708D01*
X86636Y240338D01*
X86974Y239976D01*
X87322Y239622D01*
X87678Y239277D01*
X88042Y238941D01*
X88414Y238614D01*
X88569Y238797D01*
X88201Y239121D01*
X87842Y239453D01*
X87490Y239793D01*
X87147Y240143D01*
X86812Y240500D01*
X86487Y240866D01*
X86170Y241239D01*
X85863Y241620D01*
X85565Y242009D01*
X85276Y242404D01*
X84998Y242807D01*
X84729Y243216D01*
X84470Y243632D01*
X84222Y244054D01*
X83984Y244482D01*
X83757Y244915D01*
X83540Y245354D01*
X83334Y245799D01*
X83139Y246248D01*
X82955Y246701D01*
X82782Y247159D01*
X82620Y247621D01*
X82470Y248087D01*
X82331Y248557D01*
X82204Y249030D01*
X82088Y249505D01*
X81984Y249984D01*
X81892Y250465D01*
X81811Y250948D01*
X81742Y251432D01*
X81685Y251919D01*
X81641Y252406D01*
X81608Y252895D01*
X81586Y253384D01*
X81577Y253873D01*
X81817Y253873D01*
X81826Y253390D01*
X81847Y252907D01*
X81880Y252424D01*
X81924Y251942D01*
X81980Y251462D01*
X82048Y250983D01*
X82128Y250506D01*
X82219Y250031D01*
X82322Y249559D01*
X82436Y249089D01*
X82562Y248622D01*
X82699Y248158D01*
X82848Y247698D01*
X83007Y247241D01*
X83178Y246789D01*
X83360Y246340D01*
X83553Y245897D01*
X83756Y245458D01*
X83970Y245024D01*
X84195Y244596D01*
X84430Y244173D01*
X84675Y243757D01*
X84931Y243346D01*
X85196Y242942D01*
X85472Y242544D01*
X85756Y242153D01*
X86051Y241769D01*
X86354Y241393D01*
X86667Y241024D01*
X86989Y240663D01*
X87319Y240310D01*
X87658Y239965D01*
X88005Y239628D01*
X88361Y239300D01*
X88724Y238981D01*
X88879Y239164D01*
X88520Y239479D01*
X88169Y239803D01*
X87826Y240136D01*
X87492Y240477D01*
X87165Y240825D01*
X86848Y241182D01*
X86539Y241547D01*
X86239Y241918D01*
X85948Y242297D01*
X85667Y242683D01*
X85395Y243076D01*
X85133Y243476D01*
X84881Y243881D01*
X84638Y244293D01*
X84406Y244710D01*
X84184Y245133D01*
X83973Y245562D01*
X83772Y245995D01*
X83581Y246433D01*
X83402Y246876D01*
X83233Y247323D01*
X83075Y247774D01*
X82929Y248228D01*
X82793Y248686D01*
X82669Y249148D01*
X82556Y249612D01*
X82454Y250079D01*
X82364Y250548D01*
X82286Y251019D01*
X82219Y251492D01*
X82163Y251966D01*
X82119Y252442D01*
X82087Y252919D01*
X82066Y253396D01*
X82057Y253873D01*
X82297Y253873D01*
X82306Y253402D01*
X82327Y252930D01*
X82359Y252460D01*
X82402Y251990D01*
X82457Y251521D01*
X82523Y251054D01*
X82601Y250589D01*
X82690Y250126D01*
X82790Y249665D01*
X82902Y249207D01*
X83024Y248751D01*
X83158Y248299D01*
X83303Y247850D01*
X83459Y247404D01*
X83625Y246963D01*
X83803Y246526D01*
X83991Y246093D01*
X84189Y245665D01*
X84398Y245242D01*
X84617Y244825D01*
X84846Y244412D01*
X85086Y244006D01*
X85335Y243605D01*
X85594Y243211D01*
X85862Y242823D01*
X86140Y242442D01*
X86427Y242067D01*
X86723Y241700D01*
X87028Y241340D01*
X87342Y240988D01*
X87664Y240643D01*
X87995Y240307D01*
X88333Y239979D01*
X88680Y239659D01*
X89034Y239347D01*
X90841Y272572D02*
X91976Y270587D01*
X91975Y270588D02*
X91577Y270350D01*
X91185Y270104D01*
X90800Y269847D01*
X90420Y269582D01*
X90047Y269308D01*
X89681Y269024D01*
X89322Y268732D01*
X88970Y268431D01*
X88625Y268122D01*
X88288Y267805D01*
X87958Y267479D01*
X87637Y267146D01*
X87323Y266805D01*
X87018Y266456D01*
X86722Y266101D01*
X86434Y265738D01*
X86155Y265368D01*
X85885Y264992D01*
X85624Y264609D01*
X85373Y264220D01*
X85131Y263826D01*
X84898Y263425D01*
X84676Y263019D01*
X84463Y262608D01*
X84260Y262191D01*
X84067Y261770D01*
X83885Y261345D01*
X83713Y260915D01*
X83551Y260481D01*
X83400Y260043D01*
X83259Y259602D01*
X83129Y259157D01*
X83010Y258710D01*
X82902Y258260D01*
X82804Y257807D01*
X82718Y257352D01*
X82643Y256895D01*
X82578Y256436D01*
X82525Y255976D01*
X82483Y255515D01*
X82452Y255053D01*
X82432Y254590D01*
X82423Y254127D01*
X80138Y254127D01*
X80137Y254127D01*
X80147Y254646D01*
X80169Y255165D01*
X80203Y255683D01*
X80250Y256200D01*
X80309Y256715D01*
X80381Y257229D01*
X80465Y257741D01*
X80562Y258251D01*
X80671Y258759D01*
X80792Y259263D01*
X80925Y259765D01*
X81071Y260263D01*
X81228Y260758D01*
X81398Y261248D01*
X81579Y261735D01*
X81772Y262217D01*
X81976Y262694D01*
X82192Y263165D01*
X82419Y263632D01*
X82658Y264093D01*
X82907Y264548D01*
X83168Y264997D01*
X83439Y265439D01*
X83721Y265875D01*
X84013Y266304D01*
X84316Y266726D01*
X84629Y267140D01*
X84951Y267546D01*
X85284Y267945D01*
X85626Y268336D01*
X85977Y268718D01*
X86337Y269091D01*
X86707Y269456D01*
X87085Y269811D01*
X87471Y270158D01*
X87866Y270495D01*
X88269Y270822D01*
X88679Y271139D01*
X89098Y271447D01*
X89523Y271744D01*
X89956Y272031D01*
X90395Y272307D01*
X90841Y272572D01*
X90960Y272364D01*
X90519Y272102D01*
X90085Y271828D01*
X89657Y271545D01*
X89236Y271251D01*
X88823Y270947D01*
X88417Y270633D01*
X88019Y270309D01*
X87628Y269976D01*
X87246Y269634D01*
X86873Y269282D01*
X86507Y268922D01*
X86151Y268553D01*
X85804Y268175D01*
X85466Y267789D01*
X85137Y267395D01*
X84818Y266993D01*
X84509Y266583D01*
X84210Y266166D01*
X83921Y265742D01*
X83642Y265311D01*
X83374Y264874D01*
X83116Y264430D01*
X82870Y263980D01*
X82634Y263525D01*
X82409Y263063D01*
X82196Y262597D01*
X81993Y262125D01*
X81803Y261649D01*
X81624Y261168D01*
X81456Y260683D01*
X81301Y260194D01*
X81157Y259701D01*
X81025Y259205D01*
X80905Y258706D01*
X80797Y258205D01*
X80702Y257700D01*
X80619Y257194D01*
X80548Y256686D01*
X80489Y256176D01*
X80442Y255665D01*
X80408Y255153D01*
X80387Y254640D01*
X80377Y254127D01*
X80617Y254127D01*
X80627Y254635D01*
X80648Y255141D01*
X80682Y255648D01*
X80728Y256153D01*
X80786Y256657D01*
X80856Y257159D01*
X80938Y257660D01*
X81033Y258158D01*
X81139Y258654D01*
X81258Y259147D01*
X81388Y259637D01*
X81530Y260124D01*
X81684Y260608D01*
X81850Y261087D01*
X82027Y261563D01*
X82215Y262033D01*
X82415Y262500D01*
X82626Y262961D01*
X82848Y263417D01*
X83081Y263868D01*
X83325Y264312D01*
X83580Y264751D01*
X83845Y265184D01*
X84121Y265609D01*
X84406Y266029D01*
X84702Y266441D01*
X85008Y266846D01*
X85323Y267243D01*
X85648Y267632D01*
X85982Y268014D01*
X86325Y268388D01*
X86678Y268753D01*
X87039Y269109D01*
X87408Y269457D01*
X87786Y269795D01*
X88172Y270124D01*
X88565Y270444D01*
X88967Y270755D01*
X89375Y271055D01*
X89791Y271346D01*
X90214Y271626D01*
X90643Y271896D01*
X91079Y272156D01*
X91198Y271947D01*
X90767Y271691D01*
X90343Y271424D01*
X89925Y271147D01*
X89514Y270859D01*
X89110Y270562D01*
X88714Y270256D01*
X88324Y269939D01*
X87943Y269614D01*
X87570Y269279D01*
X87205Y268936D01*
X86848Y268583D01*
X86500Y268223D01*
X86160Y267853D01*
X85830Y267476D01*
X85509Y267091D01*
X85197Y266698D01*
X84895Y266298D01*
X84603Y265891D01*
X84320Y265477D01*
X84048Y265056D01*
X83786Y264628D01*
X83534Y264194D01*
X83293Y263755D01*
X83063Y263309D01*
X82843Y262859D01*
X82635Y262403D01*
X82437Y261942D01*
X82251Y261476D01*
X82076Y261007D01*
X81912Y260533D01*
X81760Y260055D01*
X81620Y259574D01*
X81491Y259089D01*
X81374Y258601D01*
X81268Y258111D01*
X81175Y257619D01*
X81093Y257124D01*
X81024Y256627D01*
X80966Y256129D01*
X80921Y255630D01*
X80888Y255130D01*
X80867Y254629D01*
X80857Y254127D01*
X81097Y254127D01*
X81106Y254623D01*
X81127Y255118D01*
X81160Y255612D01*
X81205Y256106D01*
X81262Y256598D01*
X81331Y257089D01*
X81411Y257578D01*
X81504Y258065D01*
X81608Y258549D01*
X81724Y259031D01*
X81851Y259510D01*
X81990Y259985D01*
X82140Y260458D01*
X82302Y260926D01*
X82475Y261390D01*
X82659Y261850D01*
X82854Y262306D01*
X83060Y262756D01*
X83277Y263202D01*
X83505Y263642D01*
X83743Y264076D01*
X83992Y264505D01*
X84251Y264928D01*
X84520Y265344D01*
X84799Y265753D01*
X85088Y266156D01*
X85387Y266551D01*
X85695Y266939D01*
X86012Y267320D01*
X86339Y267693D01*
X86674Y268057D01*
X87018Y268414D01*
X87371Y268762D01*
X87731Y269102D01*
X88100Y269433D01*
X88477Y269754D01*
X88862Y270067D01*
X89254Y270370D01*
X89653Y270664D01*
X90059Y270947D01*
X90472Y271221D01*
X90891Y271485D01*
X91317Y271739D01*
X91436Y271531D01*
X91016Y271280D01*
X90601Y271019D01*
X90193Y270748D01*
X89792Y270468D01*
X89397Y270178D01*
X89010Y269878D01*
X88630Y269569D01*
X88258Y269251D01*
X87893Y268925D01*
X87537Y268589D01*
X87188Y268245D01*
X86848Y267892D01*
X86517Y267532D01*
X86194Y267164D01*
X85881Y266787D01*
X85576Y266404D01*
X85281Y266013D01*
X84996Y265615D01*
X84720Y265211D01*
X84454Y264800D01*
X84198Y264382D01*
X83952Y263959D01*
X83717Y263529D01*
X83492Y263094D01*
X83278Y262654D01*
X83074Y262209D01*
X82881Y261759D01*
X82699Y261304D01*
X82528Y260845D01*
X82368Y260383D01*
X82220Y259916D01*
X82082Y259446D01*
X81956Y258973D01*
X81842Y258497D01*
X81739Y258018D01*
X81648Y257537D01*
X81568Y257054D01*
X81500Y256569D01*
X81444Y256082D01*
X81400Y255595D01*
X81367Y255106D01*
X81346Y254617D01*
X81337Y254127D01*
X81577Y254127D01*
X81586Y254611D01*
X81607Y255094D01*
X81639Y255577D01*
X81683Y256059D01*
X81739Y256540D01*
X81806Y257019D01*
X81884Y257496D01*
X81975Y257971D01*
X82076Y258444D01*
X82189Y258915D01*
X82314Y259382D01*
X82449Y259847D01*
X82596Y260308D01*
X82754Y260765D01*
X82923Y261218D01*
X83103Y261667D01*
X83293Y262112D01*
X83495Y262552D01*
X83707Y262987D01*
X83929Y263416D01*
X84161Y263841D01*
X84404Y264259D01*
X84657Y264672D01*
X84920Y265078D01*
X85192Y265478D01*
X85474Y265871D01*
X85766Y266257D01*
X86067Y266636D01*
X86376Y267007D01*
X86695Y267371D01*
X87022Y267727D01*
X87358Y268076D01*
X87703Y268416D01*
X88055Y268747D01*
X88415Y269070D01*
X88783Y269384D01*
X89158Y269689D01*
X89541Y269985D01*
X89931Y270272D01*
X90327Y270549D01*
X90730Y270817D01*
X91140Y271074D01*
X91555Y271322D01*
X91674Y271114D01*
X91264Y270869D01*
X90859Y270614D01*
X90461Y270350D01*
X90070Y270076D01*
X89685Y269793D01*
X89307Y269501D01*
X88936Y269199D01*
X88572Y268889D01*
X88217Y268570D01*
X87869Y268242D01*
X87529Y267906D01*
X87197Y267562D01*
X86873Y267211D01*
X86559Y266851D01*
X86253Y266484D01*
X85955Y266109D01*
X85668Y265728D01*
X85389Y265340D01*
X85120Y264945D01*
X84860Y264544D01*
X84610Y264136D01*
X84371Y263723D01*
X84141Y263304D01*
X83921Y262879D01*
X83712Y262450D01*
X83513Y262015D01*
X83325Y261576D01*
X83147Y261132D01*
X82980Y260684D01*
X82824Y260233D01*
X82679Y259777D01*
X82545Y259318D01*
X82422Y258857D01*
X82310Y258392D01*
X82210Y257925D01*
X82121Y257455D01*
X82043Y256984D01*
X81977Y256510D01*
X81922Y256036D01*
X81878Y255560D01*
X81847Y255083D01*
X81826Y254605D01*
X81817Y254127D01*
X82057Y254127D01*
X82066Y254599D01*
X82086Y255071D01*
X82118Y255542D01*
X82161Y256012D01*
X82215Y256481D01*
X82281Y256949D01*
X82357Y257414D01*
X82445Y257878D01*
X82545Y258340D01*
X82655Y258798D01*
X82776Y259255D01*
X82909Y259708D01*
X83052Y260158D01*
X83206Y260604D01*
X83371Y261046D01*
X83546Y261484D01*
X83732Y261918D01*
X83929Y262347D01*
X84136Y262772D01*
X84353Y263191D01*
X84580Y263605D01*
X84816Y264013D01*
X85063Y264416D01*
X85320Y264812D01*
X85585Y265202D01*
X85861Y265586D01*
X86145Y265962D01*
X86438Y266332D01*
X86741Y266695D01*
X87052Y267050D01*
X87371Y267397D01*
X87699Y267737D01*
X88035Y268069D01*
X88378Y268392D01*
X88730Y268708D01*
X89089Y269014D01*
X89455Y269312D01*
X89828Y269601D01*
X90208Y269881D01*
X90595Y270151D01*
X90989Y270412D01*
X91388Y270664D01*
X91793Y270905D01*
X91913Y270697D01*
X91512Y270458D01*
X91118Y270210D01*
X90729Y269952D01*
X90347Y269685D01*
X89972Y269409D01*
X89603Y269123D01*
X89241Y268829D01*
X88887Y268526D01*
X88540Y268215D01*
X88201Y267896D01*
X87869Y267568D01*
X87545Y267232D01*
X87230Y266889D01*
X86923Y266538D01*
X86624Y266180D01*
X86335Y265815D01*
X86054Y265443D01*
X85782Y265064D01*
X85519Y264679D01*
X85266Y264288D01*
X85023Y263890D01*
X84789Y263487D01*
X84564Y263078D01*
X84350Y262664D01*
X84146Y262245D01*
X83952Y261821D01*
X83768Y261393D01*
X83595Y260960D01*
X83432Y260523D01*
X83280Y260083D01*
X83139Y259638D01*
X83008Y259191D01*
X82888Y258740D01*
X82779Y258287D01*
X82681Y257831D01*
X82594Y257373D01*
X82518Y256913D01*
X82453Y256452D01*
X82400Y255989D01*
X82357Y255524D01*
X82326Y255059D01*
X82306Y254594D01*
X82297Y254127D01*
D12*
X109474Y238252D02*
X114554Y238252D01*
X93218Y238252D02*
X88646Y238252D01*
D13*
X125095Y245080D02*
X129921Y245080D01*
X129921Y247225D01*
X129921Y249835D02*
X129921Y251979D01*
X129921Y249835D02*
X125095Y249835D01*
X125095Y251979D01*
X127240Y251443D02*
X127240Y249835D01*
X125095Y254570D02*
X129921Y254570D01*
X125095Y254570D02*
X125095Y255910D01*
X125097Y255980D01*
X125102Y256050D01*
X125112Y256120D01*
X125124Y256189D01*
X125141Y256257D01*
X125161Y256324D01*
X125184Y256391D01*
X125211Y256455D01*
X125241Y256519D01*
X125275Y256581D01*
X125311Y256640D01*
X125351Y256698D01*
X125394Y256754D01*
X125439Y256807D01*
X125488Y256858D01*
X125539Y256907D01*
X125592Y256952D01*
X125648Y256995D01*
X125706Y257035D01*
X125766Y257071D01*
X125827Y257105D01*
X125891Y257135D01*
X125955Y257162D01*
X126022Y257185D01*
X126089Y257205D01*
X126157Y257222D01*
X126226Y257234D01*
X126296Y257244D01*
X126366Y257249D01*
X126436Y257251D01*
X128580Y257251D01*
X128650Y257249D01*
X128720Y257244D01*
X128790Y257234D01*
X128859Y257222D01*
X128927Y257205D01*
X128994Y257185D01*
X129061Y257162D01*
X129125Y257135D01*
X129189Y257105D01*
X129251Y257071D01*
X129310Y257035D01*
X129368Y256995D01*
X129424Y256952D01*
X129477Y256907D01*
X129528Y256858D01*
X129577Y256807D01*
X129622Y256754D01*
X129665Y256698D01*
X129705Y256640D01*
X129741Y256580D01*
X129775Y256519D01*
X129805Y256455D01*
X129832Y256391D01*
X129855Y256324D01*
X129875Y256257D01*
X129892Y256189D01*
X129904Y256120D01*
X129914Y256050D01*
X129919Y255980D01*
X129921Y255910D01*
X129921Y254570D01*
X126167Y260239D02*
X125095Y261580D01*
X129921Y261580D01*
X129921Y262920D02*
X129921Y260239D01*
D11*
X166238Y237594D02*
X164774Y239350D01*
X164775Y239350D02*
X165122Y239651D01*
X165462Y239960D01*
X165795Y240277D01*
X166120Y240602D01*
X166437Y240934D01*
X166746Y241274D01*
X167047Y241622D01*
X167340Y241976D01*
X167623Y242338D01*
X167898Y242706D01*
X168165Y243081D01*
X168422Y243462D01*
X168670Y243849D01*
X168908Y244241D01*
X169137Y244640D01*
X169357Y245044D01*
X169567Y245452D01*
X169767Y245866D01*
X169957Y246285D01*
X170136Y246708D01*
X170306Y247135D01*
X170465Y247566D01*
X170614Y248001D01*
X170753Y248439D01*
X170881Y248880D01*
X170998Y249325D01*
X171105Y249772D01*
X171201Y250221D01*
X171286Y250673D01*
X171360Y251126D01*
X171424Y251582D01*
X171476Y252038D01*
X171518Y252496D01*
X171548Y252954D01*
X171568Y253414D01*
X171577Y253873D01*
X173862Y253874D01*
X173863Y253873D01*
X173853Y253358D01*
X173832Y252843D01*
X173798Y252329D01*
X173752Y251816D01*
X173693Y251304D01*
X173622Y250794D01*
X173539Y250285D01*
X173444Y249779D01*
X173336Y249275D01*
X173217Y248774D01*
X173086Y248276D01*
X172942Y247781D01*
X172787Y247290D01*
X172620Y246802D01*
X172441Y246319D01*
X172251Y245840D01*
X172050Y245366D01*
X171837Y244897D01*
X171613Y244433D01*
X171378Y243974D01*
X171131Y243522D01*
X170875Y243075D01*
X170607Y242635D01*
X170329Y242201D01*
X170041Y241774D01*
X169742Y241354D01*
X169433Y240942D01*
X169115Y240536D01*
X168787Y240139D01*
X168450Y239750D01*
X168103Y239369D01*
X167747Y238996D01*
X167383Y238632D01*
X167010Y238277D01*
X166628Y237931D01*
X166238Y237594D01*
X166084Y237778D01*
X166470Y238111D01*
X166847Y238453D01*
X167216Y238805D01*
X167576Y239165D01*
X167928Y239533D01*
X168271Y239910D01*
X168604Y240295D01*
X168929Y240688D01*
X169243Y241088D01*
X169548Y241496D01*
X169844Y241911D01*
X170129Y242333D01*
X170404Y242762D01*
X170668Y243198D01*
X170922Y243639D01*
X171165Y244087D01*
X171398Y244540D01*
X171619Y244998D01*
X171830Y245462D01*
X172029Y245931D01*
X172217Y246405D01*
X172394Y246882D01*
X172559Y247364D01*
X172712Y247850D01*
X172854Y248339D01*
X172984Y248832D01*
X173102Y249327D01*
X173208Y249825D01*
X173303Y250326D01*
X173385Y250829D01*
X173455Y251333D01*
X173513Y251839D01*
X173558Y252347D01*
X173592Y252855D01*
X173613Y253364D01*
X173623Y253873D01*
X173383Y253873D01*
X173374Y253370D01*
X173352Y252867D01*
X173319Y252364D01*
X173274Y251863D01*
X173217Y251362D01*
X173147Y250864D01*
X173066Y250367D01*
X172973Y249872D01*
X172868Y249379D01*
X172751Y248890D01*
X172623Y248403D01*
X172483Y247919D01*
X172331Y247439D01*
X172168Y246963D01*
X171993Y246490D01*
X171807Y246022D01*
X171610Y245559D01*
X171402Y245100D01*
X171183Y244647D01*
X170953Y244199D01*
X170713Y243756D01*
X170462Y243320D01*
X170200Y242890D01*
X169928Y242466D01*
X169647Y242048D01*
X169355Y241638D01*
X169053Y241235D01*
X168742Y240839D01*
X168422Y240450D01*
X168092Y240070D01*
X167753Y239697D01*
X167406Y239333D01*
X167049Y238977D01*
X166685Y238630D01*
X166312Y238292D01*
X165931Y237962D01*
X165777Y238147D01*
X166154Y238472D01*
X166522Y238807D01*
X166883Y239150D01*
X167235Y239502D01*
X167578Y239862D01*
X167913Y240230D01*
X168239Y240606D01*
X168556Y240990D01*
X168863Y241381D01*
X169161Y241780D01*
X169450Y242186D01*
X169728Y242598D01*
X169997Y243017D01*
X170255Y243442D01*
X170503Y243874D01*
X170741Y244311D01*
X170968Y244754D01*
X171185Y245202D01*
X171390Y245655D01*
X171585Y246113D01*
X171769Y246576D01*
X171941Y247043D01*
X172103Y247514D01*
X172253Y247988D01*
X172391Y248466D01*
X172518Y248947D01*
X172634Y249431D01*
X172737Y249918D01*
X172830Y250407D01*
X172910Y250899D01*
X172978Y251391D01*
X173035Y251886D01*
X173080Y252382D01*
X173113Y252878D01*
X173134Y253376D01*
X173143Y253873D01*
X172903Y253873D01*
X172894Y253381D01*
X172873Y252890D01*
X172840Y252399D01*
X172796Y251909D01*
X172740Y251421D01*
X172672Y250933D01*
X172593Y250448D01*
X172502Y249965D01*
X172399Y249484D01*
X172285Y249005D01*
X172160Y248530D01*
X172023Y248057D01*
X171875Y247588D01*
X171715Y247123D01*
X171545Y246662D01*
X171363Y246204D01*
X171171Y245752D01*
X170967Y245304D01*
X170754Y244861D01*
X170529Y244423D01*
X170294Y243991D01*
X170049Y243565D01*
X169793Y243145D01*
X169528Y242730D01*
X169253Y242323D01*
X168968Y241922D01*
X168673Y241528D01*
X168369Y241141D01*
X168056Y240762D01*
X167734Y240390D01*
X167403Y240026D01*
X167064Y239670D01*
X166716Y239323D01*
X166360Y238983D01*
X165996Y238653D01*
X165623Y238331D01*
X165470Y238516D01*
X165837Y238833D01*
X166197Y239160D01*
X166549Y239495D01*
X166893Y239839D01*
X167229Y240190D01*
X167555Y240550D01*
X167874Y240917D01*
X168183Y241292D01*
X168483Y241675D01*
X168774Y242064D01*
X169056Y242460D01*
X169328Y242863D01*
X169590Y243272D01*
X169842Y243687D01*
X170085Y244109D01*
X170317Y244536D01*
X170539Y244968D01*
X170750Y245406D01*
X170951Y245848D01*
X171141Y246296D01*
X171321Y246747D01*
X171489Y247203D01*
X171647Y247663D01*
X171793Y248126D01*
X171928Y248593D01*
X172052Y249063D01*
X172165Y249536D01*
X172267Y250011D01*
X172356Y250489D01*
X172435Y250968D01*
X172502Y251450D01*
X172557Y251933D01*
X172601Y252417D01*
X172633Y252902D01*
X172654Y253387D01*
X172663Y253873D01*
X172423Y253873D01*
X172414Y253393D01*
X172393Y252913D01*
X172362Y252434D01*
X172318Y251956D01*
X172264Y251479D01*
X172197Y251003D01*
X172120Y250529D01*
X172031Y250058D01*
X171931Y249588D01*
X171819Y249121D01*
X171697Y248657D01*
X171563Y248195D01*
X171418Y247738D01*
X171263Y247283D01*
X171096Y246833D01*
X170919Y246387D01*
X170731Y245945D01*
X170533Y245507D01*
X170324Y245075D01*
X170105Y244648D01*
X169875Y244226D01*
X169636Y243810D01*
X169387Y243399D01*
X169128Y242995D01*
X168859Y242597D01*
X168581Y242206D01*
X168293Y241821D01*
X167997Y241443D01*
X167691Y241073D01*
X167377Y240710D01*
X167054Y240355D01*
X166722Y240007D01*
X166383Y239668D01*
X166035Y239337D01*
X165679Y239014D01*
X165316Y238700D01*
X165163Y238884D01*
X165521Y239195D01*
X165872Y239513D01*
X166216Y239841D01*
X166551Y240176D01*
X166879Y240519D01*
X167198Y240870D01*
X167508Y241229D01*
X167810Y241595D01*
X168103Y241968D01*
X168387Y242348D01*
X168662Y242734D01*
X168927Y243127D01*
X169183Y243527D01*
X169430Y243932D01*
X169666Y244343D01*
X169893Y244760D01*
X170109Y245182D01*
X170315Y245609D01*
X170511Y246041D01*
X170697Y246478D01*
X170872Y246919D01*
X171037Y247363D01*
X171190Y247812D01*
X171333Y248264D01*
X171465Y248720D01*
X171587Y249179D01*
X171697Y249640D01*
X171796Y250104D01*
X171883Y250570D01*
X171960Y251038D01*
X172025Y251508D01*
X172080Y251979D01*
X172122Y252452D01*
X172154Y252925D01*
X172174Y253399D01*
X172183Y253873D01*
X171943Y253873D01*
X171934Y253405D01*
X171914Y252937D01*
X171883Y252469D01*
X171841Y252003D01*
X171787Y251537D01*
X171723Y251073D01*
X171647Y250611D01*
X171560Y250150D01*
X171462Y249692D01*
X171354Y249236D01*
X171234Y248784D01*
X171103Y248334D01*
X170962Y247887D01*
X170810Y247444D01*
X170648Y247004D01*
X170475Y246569D01*
X170292Y246138D01*
X170098Y245711D01*
X169894Y245289D01*
X169680Y244872D01*
X169457Y244461D01*
X169223Y244055D01*
X168980Y243654D01*
X168727Y243260D01*
X168465Y242871D01*
X168194Y242490D01*
X167913Y242114D01*
X167624Y241746D01*
X167326Y241384D01*
X167019Y241030D01*
X166704Y240684D01*
X166381Y240344D01*
X166049Y240013D01*
X165710Y239690D01*
X165363Y239375D01*
X165009Y239069D01*
X164855Y239253D01*
X165205Y239556D01*
X165548Y239867D01*
X165883Y240186D01*
X166210Y240513D01*
X166529Y240848D01*
X166840Y241190D01*
X167143Y241540D01*
X167437Y241897D01*
X167723Y242261D01*
X168000Y242631D01*
X168268Y243009D01*
X168527Y243392D01*
X168777Y243782D01*
X169017Y244177D01*
X169247Y244578D01*
X169468Y244985D01*
X169679Y245396D01*
X169881Y245813D01*
X170072Y246234D01*
X170253Y246660D01*
X170424Y247090D01*
X170584Y247524D01*
X170734Y247962D01*
X170874Y248403D01*
X171002Y248847D01*
X171121Y249294D01*
X171228Y249744D01*
X171325Y250197D01*
X171410Y250651D01*
X171485Y251108D01*
X171549Y251566D01*
X171602Y252026D01*
X171644Y252487D01*
X171674Y252948D01*
X171694Y253411D01*
X171703Y253873D01*
X173862Y254126D02*
X171576Y254126D01*
X171577Y254127D02*
X171568Y254592D01*
X171548Y255057D01*
X171517Y255521D01*
X171474Y255984D01*
X171420Y256446D01*
X171355Y256907D01*
X171279Y257366D01*
X171192Y257823D01*
X171094Y258278D01*
X170984Y258730D01*
X170864Y259180D01*
X170733Y259626D01*
X170591Y260069D01*
X170438Y260509D01*
X170275Y260944D01*
X170101Y261376D01*
X169917Y261803D01*
X169723Y262226D01*
X169518Y262644D01*
X169303Y263057D01*
X169078Y263464D01*
X168844Y263866D01*
X168600Y264262D01*
X168346Y264652D01*
X168083Y265036D01*
X167810Y265413D01*
X167529Y265783D01*
X167239Y266147D01*
X166940Y266503D01*
X166632Y266852D01*
X166316Y267194D01*
X165992Y267528D01*
X165659Y267853D01*
X165319Y268171D01*
X164972Y268480D01*
X164617Y268781D01*
X164255Y269073D01*
X163885Y269356D01*
X163509Y269630D01*
X163127Y269895D01*
X162738Y270151D01*
X162343Y270397D01*
X161942Y270633D01*
X161536Y270860D01*
X162611Y272877D01*
X162612Y272877D01*
X163067Y272623D01*
X163517Y272359D01*
X163959Y272083D01*
X164395Y271797D01*
X164824Y271500D01*
X165246Y271194D01*
X165660Y270876D01*
X166066Y270549D01*
X166464Y270212D01*
X166853Y269866D01*
X167235Y269510D01*
X167607Y269145D01*
X167970Y268771D01*
X168325Y268389D01*
X168670Y267998D01*
X169005Y267598D01*
X169330Y267191D01*
X169646Y266776D01*
X169951Y266353D01*
X170246Y265923D01*
X170530Y265486D01*
X170804Y265042D01*
X171067Y264592D01*
X171319Y264135D01*
X171559Y263673D01*
X171789Y263204D01*
X172007Y262731D01*
X172213Y262252D01*
X172408Y261768D01*
X172590Y261280D01*
X172761Y260787D01*
X172920Y260290D01*
X173067Y259790D01*
X173202Y259286D01*
X173324Y258779D01*
X173434Y258270D01*
X173531Y257757D01*
X173616Y257243D01*
X173689Y256726D01*
X173749Y256209D01*
X173796Y255689D01*
X173831Y255169D01*
X173853Y254648D01*
X173863Y254127D01*
X173623Y254127D01*
X173613Y254642D01*
X173591Y255157D01*
X173557Y255672D01*
X173510Y256185D01*
X173451Y256697D01*
X173379Y257208D01*
X173295Y257716D01*
X173198Y258223D01*
X173090Y258727D01*
X172969Y259228D01*
X172836Y259726D01*
X172691Y260221D01*
X172533Y260712D01*
X172364Y261199D01*
X172184Y261681D01*
X171991Y262160D01*
X171787Y262633D01*
X171572Y263102D01*
X171345Y263565D01*
X171107Y264022D01*
X170858Y264473D01*
X170598Y264919D01*
X170328Y265357D01*
X170047Y265790D01*
X169755Y266215D01*
X169453Y266633D01*
X169141Y267043D01*
X168819Y267446D01*
X168488Y267841D01*
X168147Y268227D01*
X167797Y268606D01*
X167437Y268975D01*
X167069Y269336D01*
X166692Y269688D01*
X166307Y270031D01*
X165913Y270364D01*
X165512Y270687D01*
X165103Y271001D01*
X164686Y271304D01*
X164262Y271597D01*
X163831Y271880D01*
X163393Y272153D01*
X162949Y272414D01*
X162499Y272665D01*
X162386Y272454D01*
X162831Y272206D01*
X163270Y271947D01*
X163703Y271678D01*
X164129Y271398D01*
X164548Y271108D01*
X164960Y270808D01*
X165364Y270498D01*
X165761Y270178D01*
X166150Y269849D01*
X166531Y269510D01*
X166904Y269162D01*
X167268Y268806D01*
X167623Y268440D01*
X167969Y268066D01*
X168306Y267684D01*
X168634Y267294D01*
X168952Y266895D01*
X169260Y266490D01*
X169559Y266076D01*
X169847Y265656D01*
X170125Y265229D01*
X170393Y264795D01*
X170649Y264355D01*
X170896Y263909D01*
X171131Y263457D01*
X171355Y262999D01*
X171568Y262536D01*
X171770Y262068D01*
X171960Y261595D01*
X172139Y261118D01*
X172306Y260636D01*
X172461Y260151D01*
X172604Y259662D01*
X172736Y259169D01*
X172856Y258674D01*
X172963Y258176D01*
X173058Y257675D01*
X173142Y257172D01*
X173213Y256668D01*
X173271Y256161D01*
X173318Y255654D01*
X173352Y255145D01*
X173373Y254636D01*
X173383Y254127D01*
X173143Y254127D01*
X173133Y254630D01*
X173112Y255134D01*
X173078Y255636D01*
X173032Y256138D01*
X172974Y256638D01*
X172904Y257137D01*
X172822Y257634D01*
X172728Y258129D01*
X172621Y258621D01*
X172503Y259111D01*
X172373Y259598D01*
X172231Y260081D01*
X172078Y260561D01*
X171913Y261037D01*
X171736Y261509D01*
X171548Y261976D01*
X171349Y262438D01*
X171138Y262896D01*
X170916Y263349D01*
X170684Y263795D01*
X170441Y264237D01*
X170187Y264672D01*
X169922Y265100D01*
X169648Y265523D01*
X169363Y265938D01*
X169068Y266346D01*
X168763Y266748D01*
X168449Y267141D01*
X168125Y267527D01*
X167792Y267905D01*
X167449Y268275D01*
X167098Y268636D01*
X166738Y268988D01*
X166370Y269332D01*
X165994Y269667D01*
X165609Y269992D01*
X165217Y270308D01*
X164817Y270615D01*
X164410Y270911D01*
X163996Y271198D01*
X163575Y271475D01*
X163147Y271741D01*
X162713Y271997D01*
X162273Y272242D01*
X162160Y272030D01*
X162595Y271788D01*
X163024Y271535D01*
X163446Y271272D01*
X163863Y270998D01*
X164272Y270715D01*
X164674Y270422D01*
X165069Y270119D01*
X165457Y269807D01*
X165837Y269485D01*
X166209Y269154D01*
X166573Y268814D01*
X166929Y268466D01*
X167276Y268109D01*
X167614Y267744D01*
X167943Y267370D01*
X168263Y266989D01*
X168574Y266600D01*
X168875Y266203D01*
X169166Y265800D01*
X169448Y265389D01*
X169720Y264972D01*
X169981Y264548D01*
X170232Y264118D01*
X170472Y263682D01*
X170702Y263241D01*
X170921Y262793D01*
X171129Y262341D01*
X171326Y261884D01*
X171512Y261422D01*
X171687Y260956D01*
X171850Y260486D01*
X172002Y260011D01*
X172142Y259534D01*
X172270Y259053D01*
X172387Y258569D01*
X172492Y258082D01*
X172586Y257593D01*
X172667Y257102D01*
X172736Y256609D01*
X172794Y256114D01*
X172839Y255619D01*
X172872Y255122D01*
X172893Y254624D01*
X172903Y254127D01*
X172663Y254127D01*
X172654Y254618D01*
X172633Y255110D01*
X172600Y255601D01*
X172555Y256091D01*
X172498Y256579D01*
X172429Y257067D01*
X172349Y257552D01*
X172257Y258035D01*
X172153Y258516D01*
X172038Y258994D01*
X171911Y259470D01*
X171772Y259942D01*
X171622Y260410D01*
X171461Y260875D01*
X171288Y261336D01*
X171104Y261792D01*
X170910Y262244D01*
X170704Y262691D01*
X170488Y263133D01*
X170261Y263569D01*
X170023Y264000D01*
X169775Y264425D01*
X169517Y264843D01*
X169249Y265256D01*
X168970Y265661D01*
X168682Y266060D01*
X168385Y266452D01*
X168078Y266836D01*
X167761Y267213D01*
X167436Y267582D01*
X167102Y267943D01*
X166759Y268296D01*
X166408Y268641D01*
X166048Y268976D01*
X165680Y269303D01*
X165305Y269621D01*
X164922Y269930D01*
X164532Y270229D01*
X164134Y270519D01*
X163729Y270799D01*
X163318Y271069D01*
X162901Y271329D01*
X162477Y271579D01*
X162047Y271818D01*
X161934Y271606D01*
X162359Y271370D01*
X162777Y271123D01*
X163190Y270866D01*
X163596Y270599D01*
X163996Y270322D01*
X164389Y270036D01*
X164774Y269740D01*
X165153Y269435D01*
X165524Y269121D01*
X165887Y268798D01*
X166242Y268467D01*
X166589Y268126D01*
X166928Y267778D01*
X167258Y267421D01*
X167580Y267056D01*
X167892Y266684D01*
X168196Y266304D01*
X168490Y265917D01*
X168774Y265523D01*
X169049Y265122D01*
X169314Y264715D01*
X169569Y264301D01*
X169814Y263881D01*
X170049Y263456D01*
X170273Y263025D01*
X170487Y262588D01*
X170690Y262146D01*
X170883Y261700D01*
X171064Y261249D01*
X171235Y260794D01*
X171394Y260335D01*
X171542Y259872D01*
X171679Y259406D01*
X171805Y258936D01*
X171919Y258463D01*
X172022Y257988D01*
X172113Y257511D01*
X172192Y257031D01*
X172260Y256550D01*
X172316Y256067D01*
X172360Y255583D01*
X172393Y255098D01*
X172414Y254613D01*
X172423Y254127D01*
X172183Y254127D01*
X172174Y254607D01*
X172153Y255086D01*
X172121Y255565D01*
X172077Y256044D01*
X172022Y256521D01*
X171955Y256996D01*
X171876Y257470D01*
X171786Y257941D01*
X171685Y258411D01*
X171572Y258878D01*
X171448Y259341D01*
X171313Y259802D01*
X171166Y260259D01*
X171009Y260713D01*
X170840Y261163D01*
X170661Y261608D01*
X170471Y262049D01*
X170270Y262485D01*
X170059Y262917D01*
X169837Y263343D01*
X169606Y263763D01*
X169364Y264178D01*
X169111Y264586D01*
X168850Y264989D01*
X168578Y265385D01*
X168297Y265774D01*
X168006Y266157D01*
X167707Y266532D01*
X167398Y266900D01*
X167081Y267260D01*
X166754Y267612D01*
X166420Y267956D01*
X166077Y268293D01*
X165726Y268620D01*
X165367Y268939D01*
X165001Y269250D01*
X164627Y269551D01*
X164246Y269843D01*
X163858Y270126D01*
X163463Y270399D01*
X163062Y270663D01*
X162654Y270917D01*
X162241Y271161D01*
X161821Y271395D01*
X161708Y271183D01*
X162122Y270952D01*
X162531Y270711D01*
X162934Y270460D01*
X163330Y270200D01*
X163720Y269930D01*
X164103Y269650D01*
X164479Y269362D01*
X164849Y269064D01*
X165211Y268758D01*
X165565Y268442D01*
X165912Y268119D01*
X166250Y267787D01*
X166581Y267446D01*
X166903Y267098D01*
X167217Y266743D01*
X167521Y266379D01*
X167817Y266009D01*
X168104Y265631D01*
X168382Y265247D01*
X168650Y264855D01*
X168909Y264458D01*
X169158Y264054D01*
X169397Y263645D01*
X169626Y263229D01*
X169845Y262809D01*
X170053Y262383D01*
X170252Y261952D01*
X170439Y261516D01*
X170617Y261076D01*
X170783Y260632D01*
X170938Y260184D01*
X171083Y259732D01*
X171217Y259277D01*
X171339Y258819D01*
X171451Y258358D01*
X171551Y257895D01*
X171640Y257429D01*
X171717Y256961D01*
X171783Y256491D01*
X171838Y256020D01*
X171882Y255548D01*
X171913Y255075D01*
X171934Y254601D01*
X171943Y254127D01*
X171703Y254127D01*
X171694Y254595D01*
X171674Y255063D01*
X171642Y255530D01*
X171599Y255997D01*
X171545Y256462D01*
X171480Y256926D01*
X171403Y257388D01*
X171315Y257848D01*
X171216Y258306D01*
X171106Y258761D01*
X170985Y259213D01*
X170853Y259663D01*
X170711Y260109D01*
X170557Y260551D01*
X170393Y260990D01*
X170218Y261424D01*
X170032Y261854D01*
X169837Y262280D01*
X169630Y262701D01*
X169414Y263116D01*
X169188Y263526D01*
X168952Y263931D01*
X168706Y264329D01*
X168451Y264722D01*
X168186Y265108D01*
X167912Y265488D01*
X167628Y265861D01*
X167336Y266227D01*
X167035Y266586D01*
X166725Y266937D01*
X166407Y267281D01*
X166081Y267617D01*
X165746Y267945D01*
X165404Y268264D01*
X165054Y268576D01*
X164697Y268879D01*
X164332Y269172D01*
X163960Y269458D01*
X163582Y269733D01*
X163197Y270000D01*
X162805Y270257D01*
X162408Y270505D01*
X162004Y270743D01*
X161595Y270971D01*
X130938Y253874D02*
X133224Y253874D01*
X133223Y253873D02*
X133232Y253405D01*
X133253Y252937D01*
X133284Y252469D01*
X133327Y252002D01*
X133382Y251537D01*
X133448Y251073D01*
X133525Y250611D01*
X133613Y250151D01*
X133713Y249693D01*
X133824Y249237D01*
X133946Y248785D01*
X134079Y248336D01*
X134223Y247890D01*
X134377Y247447D01*
X134543Y247009D01*
X134719Y246575D01*
X134906Y246145D01*
X135103Y245720D01*
X135310Y245300D01*
X135528Y244885D01*
X135756Y244475D01*
X135993Y244071D01*
X136241Y243673D01*
X136498Y243282D01*
X136765Y242896D01*
X137041Y242517D01*
X137326Y242146D01*
X137620Y241781D01*
X137923Y241423D01*
X138235Y241073D01*
X138555Y240731D01*
X138883Y240397D01*
X139219Y240071D01*
X139564Y239753D01*
X139916Y239443D01*
X138439Y237699D01*
X138439Y237698D01*
X138044Y238045D01*
X137658Y238401D01*
X137281Y238766D01*
X136912Y239141D01*
X136553Y239524D01*
X136204Y239917D01*
X135864Y240317D01*
X135534Y240726D01*
X135214Y241143D01*
X134905Y241567D01*
X134606Y241999D01*
X134317Y242438D01*
X134040Y242884D01*
X133773Y243337D01*
X133518Y243796D01*
X133274Y244261D01*
X133041Y244732D01*
X132820Y245209D01*
X132611Y245691D01*
X132413Y246178D01*
X132228Y246669D01*
X132054Y247165D01*
X131893Y247665D01*
X131744Y248169D01*
X131608Y248676D01*
X131484Y249187D01*
X131372Y249700D01*
X131273Y250216D01*
X131187Y250734D01*
X131113Y251254D01*
X131053Y251776D01*
X131005Y252299D01*
X130969Y252823D01*
X130947Y253348D01*
X130937Y253873D01*
X131177Y253873D01*
X131187Y253354D01*
X131209Y252835D01*
X131244Y252317D01*
X131291Y251800D01*
X131352Y251284D01*
X131424Y250770D01*
X131510Y250257D01*
X131607Y249747D01*
X131718Y249240D01*
X131840Y248735D01*
X131975Y248233D01*
X132123Y247735D01*
X132282Y247241D01*
X132453Y246751D01*
X132637Y246265D01*
X132832Y245784D01*
X133039Y245307D01*
X133257Y244836D01*
X133487Y244370D01*
X133729Y243910D01*
X133981Y243457D01*
X134245Y243009D01*
X134519Y242568D01*
X134804Y242134D01*
X135100Y241707D01*
X135406Y241287D01*
X135722Y240875D01*
X136048Y240471D01*
X136384Y240075D01*
X136730Y239687D01*
X137085Y239308D01*
X137449Y238938D01*
X137822Y238576D01*
X138204Y238224D01*
X138594Y237881D01*
X138749Y238065D01*
X138363Y238403D01*
X137986Y238751D01*
X137617Y239109D01*
X137257Y239475D01*
X136906Y239850D01*
X136565Y240233D01*
X136233Y240625D01*
X135910Y241024D01*
X135598Y241431D01*
X135295Y241846D01*
X135003Y242268D01*
X134721Y242698D01*
X134450Y243134D01*
X134189Y243576D01*
X133940Y244025D01*
X133701Y244479D01*
X133474Y244940D01*
X133258Y245405D01*
X133053Y245876D01*
X132860Y246352D01*
X132679Y246833D01*
X132510Y247317D01*
X132352Y247806D01*
X132207Y248298D01*
X132073Y248794D01*
X131952Y249293D01*
X131843Y249795D01*
X131746Y250299D01*
X131662Y250805D01*
X131590Y251314D01*
X131530Y251824D01*
X131483Y252335D01*
X131449Y252847D01*
X131427Y253360D01*
X131417Y253873D01*
X131657Y253873D01*
X131667Y253366D01*
X131688Y252859D01*
X131723Y252353D01*
X131769Y251847D01*
X131828Y251343D01*
X131899Y250841D01*
X131982Y250340D01*
X132078Y249842D01*
X132186Y249346D01*
X132306Y248853D01*
X132438Y248363D01*
X132582Y247876D01*
X132737Y247393D01*
X132905Y246914D01*
X133084Y246439D01*
X133275Y245969D01*
X133477Y245504D01*
X133690Y245043D01*
X133915Y244588D01*
X134151Y244139D01*
X134398Y243695D01*
X134655Y243258D01*
X134923Y242827D01*
X135202Y242403D01*
X135490Y241986D01*
X135789Y241576D01*
X136098Y241173D01*
X136417Y240778D01*
X136745Y240391D01*
X137083Y240012D01*
X137430Y239642D01*
X137785Y239280D01*
X138150Y238927D01*
X138523Y238583D01*
X138904Y238248D01*
X139059Y238431D01*
X138682Y238762D01*
X138314Y239102D01*
X137954Y239451D01*
X137602Y239809D01*
X137259Y240175D01*
X136926Y240549D01*
X136601Y240932D01*
X136286Y241322D01*
X135981Y241720D01*
X135686Y242125D01*
X135400Y242538D01*
X135125Y242957D01*
X134860Y243383D01*
X134606Y243815D01*
X134362Y244253D01*
X134129Y244697D01*
X133907Y245147D01*
X133696Y245602D01*
X133496Y246062D01*
X133308Y246527D01*
X133130Y246996D01*
X132965Y247469D01*
X132811Y247947D01*
X132669Y248428D01*
X132538Y248912D01*
X132420Y249399D01*
X132313Y249889D01*
X132219Y250382D01*
X132136Y250876D01*
X132066Y251373D01*
X132008Y251871D01*
X131962Y252371D01*
X131928Y252871D01*
X131907Y253372D01*
X131897Y253873D01*
X132137Y253873D01*
X132147Y253378D01*
X132168Y252883D01*
X132201Y252388D01*
X132247Y251895D01*
X132304Y251403D01*
X132374Y250912D01*
X132455Y250423D01*
X132549Y249937D01*
X132654Y249452D01*
X132771Y248971D01*
X132900Y248492D01*
X133040Y248017D01*
X133193Y247545D01*
X133356Y247078D01*
X133531Y246614D01*
X133717Y246155D01*
X133915Y245700D01*
X134123Y245251D01*
X134343Y244806D01*
X134573Y244368D01*
X134814Y243934D01*
X135065Y243507D01*
X135327Y243087D01*
X135599Y242672D01*
X135881Y242265D01*
X136173Y241864D01*
X136475Y241471D01*
X136786Y241086D01*
X137106Y240708D01*
X137436Y240338D01*
X137774Y239976D01*
X138122Y239622D01*
X138478Y239277D01*
X138842Y238941D01*
X139214Y238614D01*
X139369Y238797D01*
X139001Y239121D01*
X138642Y239453D01*
X138290Y239793D01*
X137947Y240143D01*
X137612Y240500D01*
X137287Y240866D01*
X136970Y241239D01*
X136663Y241620D01*
X136365Y242009D01*
X136076Y242404D01*
X135798Y242807D01*
X135529Y243216D01*
X135270Y243632D01*
X135022Y244054D01*
X134784Y244482D01*
X134557Y244915D01*
X134340Y245354D01*
X134134Y245799D01*
X133939Y246248D01*
X133755Y246701D01*
X133582Y247159D01*
X133420Y247621D01*
X133270Y248087D01*
X133131Y248557D01*
X133004Y249030D01*
X132888Y249505D01*
X132784Y249984D01*
X132692Y250465D01*
X132611Y250948D01*
X132542Y251432D01*
X132485Y251919D01*
X132441Y252406D01*
X132408Y252895D01*
X132386Y253384D01*
X132377Y253873D01*
X132617Y253873D01*
X132626Y253390D01*
X132647Y252907D01*
X132680Y252424D01*
X132724Y251942D01*
X132780Y251462D01*
X132848Y250983D01*
X132928Y250506D01*
X133019Y250031D01*
X133122Y249559D01*
X133236Y249089D01*
X133362Y248622D01*
X133499Y248158D01*
X133648Y247698D01*
X133807Y247241D01*
X133978Y246789D01*
X134160Y246340D01*
X134353Y245897D01*
X134556Y245458D01*
X134770Y245024D01*
X134995Y244596D01*
X135230Y244173D01*
X135475Y243757D01*
X135731Y243346D01*
X135996Y242942D01*
X136272Y242544D01*
X136556Y242153D01*
X136851Y241769D01*
X137154Y241393D01*
X137467Y241024D01*
X137789Y240663D01*
X138119Y240310D01*
X138458Y239965D01*
X138805Y239628D01*
X139161Y239300D01*
X139524Y238981D01*
X139679Y239164D01*
X139320Y239479D01*
X138969Y239803D01*
X138626Y240136D01*
X138292Y240477D01*
X137965Y240825D01*
X137648Y241182D01*
X137339Y241547D01*
X137039Y241918D01*
X136748Y242297D01*
X136467Y242683D01*
X136195Y243076D01*
X135933Y243476D01*
X135681Y243881D01*
X135438Y244293D01*
X135206Y244710D01*
X134984Y245133D01*
X134773Y245562D01*
X134572Y245995D01*
X134381Y246433D01*
X134202Y246876D01*
X134033Y247323D01*
X133875Y247774D01*
X133729Y248228D01*
X133593Y248686D01*
X133469Y249148D01*
X133356Y249612D01*
X133254Y250079D01*
X133164Y250548D01*
X133086Y251019D01*
X133019Y251492D01*
X132963Y251966D01*
X132919Y252442D01*
X132887Y252919D01*
X132866Y253396D01*
X132857Y253873D01*
X133097Y253873D01*
X133106Y253402D01*
X133127Y252930D01*
X133159Y252460D01*
X133202Y251990D01*
X133257Y251521D01*
X133323Y251054D01*
X133401Y250589D01*
X133490Y250126D01*
X133590Y249665D01*
X133702Y249207D01*
X133824Y248751D01*
X133958Y248299D01*
X134103Y247850D01*
X134259Y247404D01*
X134425Y246963D01*
X134603Y246526D01*
X134791Y246093D01*
X134989Y245665D01*
X135198Y245242D01*
X135417Y244825D01*
X135646Y244412D01*
X135886Y244006D01*
X136135Y243605D01*
X136394Y243211D01*
X136662Y242823D01*
X136940Y242442D01*
X137227Y242067D01*
X137523Y241700D01*
X137828Y241340D01*
X138142Y240988D01*
X138464Y240643D01*
X138795Y240307D01*
X139133Y239979D01*
X139480Y239659D01*
X139834Y239347D01*
X141641Y272572D02*
X142776Y270587D01*
X142775Y270588D02*
X142377Y270350D01*
X141985Y270104D01*
X141600Y269847D01*
X141220Y269582D01*
X140847Y269308D01*
X140481Y269024D01*
X140122Y268732D01*
X139770Y268431D01*
X139425Y268122D01*
X139088Y267805D01*
X138758Y267479D01*
X138437Y267146D01*
X138123Y266805D01*
X137818Y266456D01*
X137522Y266101D01*
X137234Y265738D01*
X136955Y265368D01*
X136685Y264992D01*
X136424Y264609D01*
X136173Y264220D01*
X135931Y263826D01*
X135698Y263425D01*
X135476Y263019D01*
X135263Y262608D01*
X135060Y262191D01*
X134867Y261770D01*
X134685Y261345D01*
X134513Y260915D01*
X134351Y260481D01*
X134200Y260043D01*
X134059Y259602D01*
X133929Y259157D01*
X133810Y258710D01*
X133702Y258260D01*
X133604Y257807D01*
X133518Y257352D01*
X133443Y256895D01*
X133378Y256436D01*
X133325Y255976D01*
X133283Y255515D01*
X133252Y255053D01*
X133232Y254590D01*
X133223Y254127D01*
X130938Y254127D01*
X130937Y254127D01*
X130947Y254646D01*
X130969Y255165D01*
X131003Y255683D01*
X131050Y256200D01*
X131109Y256715D01*
X131181Y257229D01*
X131265Y257741D01*
X131362Y258251D01*
X131471Y258759D01*
X131592Y259263D01*
X131725Y259765D01*
X131871Y260263D01*
X132028Y260758D01*
X132198Y261248D01*
X132379Y261735D01*
X132572Y262217D01*
X132776Y262694D01*
X132992Y263165D01*
X133219Y263632D01*
X133458Y264093D01*
X133707Y264548D01*
X133968Y264997D01*
X134239Y265439D01*
X134521Y265875D01*
X134813Y266304D01*
X135116Y266726D01*
X135429Y267140D01*
X135751Y267546D01*
X136084Y267945D01*
X136426Y268336D01*
X136777Y268718D01*
X137137Y269091D01*
X137507Y269456D01*
X137885Y269811D01*
X138271Y270158D01*
X138666Y270495D01*
X139069Y270822D01*
X139479Y271139D01*
X139898Y271447D01*
X140323Y271744D01*
X140756Y272031D01*
X141195Y272307D01*
X141641Y272572D01*
X141760Y272364D01*
X141319Y272102D01*
X140885Y271828D01*
X140457Y271545D01*
X140036Y271251D01*
X139623Y270947D01*
X139217Y270633D01*
X138819Y270309D01*
X138428Y269976D01*
X138046Y269634D01*
X137673Y269282D01*
X137307Y268922D01*
X136951Y268553D01*
X136604Y268175D01*
X136266Y267789D01*
X135937Y267395D01*
X135618Y266993D01*
X135309Y266583D01*
X135010Y266166D01*
X134721Y265742D01*
X134442Y265311D01*
X134174Y264874D01*
X133916Y264430D01*
X133670Y263980D01*
X133434Y263525D01*
X133209Y263063D01*
X132996Y262597D01*
X132793Y262125D01*
X132603Y261649D01*
X132424Y261168D01*
X132256Y260683D01*
X132101Y260194D01*
X131957Y259701D01*
X131825Y259205D01*
X131705Y258706D01*
X131597Y258205D01*
X131502Y257700D01*
X131419Y257194D01*
X131348Y256686D01*
X131289Y256176D01*
X131242Y255665D01*
X131208Y255153D01*
X131187Y254640D01*
X131177Y254127D01*
X131417Y254127D01*
X131427Y254635D01*
X131448Y255141D01*
X131482Y255648D01*
X131528Y256153D01*
X131586Y256657D01*
X131656Y257159D01*
X131738Y257660D01*
X131833Y258158D01*
X131939Y258654D01*
X132058Y259147D01*
X132188Y259637D01*
X132330Y260124D01*
X132484Y260608D01*
X132650Y261087D01*
X132827Y261563D01*
X133015Y262033D01*
X133215Y262500D01*
X133426Y262961D01*
X133648Y263417D01*
X133881Y263868D01*
X134125Y264312D01*
X134380Y264751D01*
X134645Y265184D01*
X134921Y265609D01*
X135206Y266029D01*
X135502Y266441D01*
X135808Y266846D01*
X136123Y267243D01*
X136448Y267632D01*
X136782Y268014D01*
X137125Y268388D01*
X137478Y268753D01*
X137839Y269109D01*
X138208Y269457D01*
X138586Y269795D01*
X138972Y270124D01*
X139365Y270444D01*
X139767Y270755D01*
X140175Y271055D01*
X140591Y271346D01*
X141014Y271626D01*
X141443Y271896D01*
X141879Y272156D01*
X141998Y271947D01*
X141567Y271691D01*
X141143Y271424D01*
X140725Y271147D01*
X140314Y270859D01*
X139910Y270562D01*
X139514Y270256D01*
X139124Y269939D01*
X138743Y269614D01*
X138370Y269279D01*
X138005Y268936D01*
X137648Y268583D01*
X137300Y268223D01*
X136960Y267853D01*
X136630Y267476D01*
X136309Y267091D01*
X135997Y266698D01*
X135695Y266298D01*
X135403Y265891D01*
X135120Y265477D01*
X134848Y265056D01*
X134586Y264628D01*
X134334Y264194D01*
X134093Y263755D01*
X133863Y263309D01*
X133643Y262859D01*
X133435Y262403D01*
X133237Y261942D01*
X133051Y261476D01*
X132876Y261007D01*
X132712Y260533D01*
X132560Y260055D01*
X132420Y259574D01*
X132291Y259089D01*
X132174Y258601D01*
X132068Y258111D01*
X131975Y257619D01*
X131893Y257124D01*
X131824Y256627D01*
X131766Y256129D01*
X131721Y255630D01*
X131688Y255130D01*
X131667Y254629D01*
X131657Y254127D01*
X131897Y254127D01*
X131906Y254623D01*
X131927Y255118D01*
X131960Y255612D01*
X132005Y256106D01*
X132062Y256598D01*
X132131Y257089D01*
X132211Y257578D01*
X132304Y258065D01*
X132408Y258549D01*
X132524Y259031D01*
X132651Y259510D01*
X132790Y259985D01*
X132940Y260458D01*
X133102Y260926D01*
X133275Y261390D01*
X133459Y261850D01*
X133654Y262306D01*
X133860Y262756D01*
X134077Y263202D01*
X134305Y263642D01*
X134543Y264076D01*
X134792Y264505D01*
X135051Y264928D01*
X135320Y265344D01*
X135599Y265753D01*
X135888Y266156D01*
X136187Y266551D01*
X136495Y266939D01*
X136812Y267320D01*
X137139Y267693D01*
X137474Y268057D01*
X137818Y268414D01*
X138171Y268762D01*
X138531Y269102D01*
X138900Y269433D01*
X139277Y269754D01*
X139662Y270067D01*
X140054Y270370D01*
X140453Y270664D01*
X140859Y270947D01*
X141272Y271221D01*
X141691Y271485D01*
X142117Y271739D01*
X142236Y271531D01*
X141816Y271280D01*
X141401Y271019D01*
X140993Y270748D01*
X140592Y270468D01*
X140197Y270178D01*
X139810Y269878D01*
X139430Y269569D01*
X139058Y269251D01*
X138693Y268925D01*
X138337Y268589D01*
X137988Y268245D01*
X137648Y267892D01*
X137317Y267532D01*
X136994Y267164D01*
X136681Y266787D01*
X136376Y266404D01*
X136081Y266013D01*
X135796Y265615D01*
X135520Y265211D01*
X135254Y264800D01*
X134998Y264382D01*
X134752Y263959D01*
X134517Y263529D01*
X134292Y263094D01*
X134078Y262654D01*
X133874Y262209D01*
X133681Y261759D01*
X133499Y261304D01*
X133328Y260845D01*
X133168Y260383D01*
X133020Y259916D01*
X132882Y259446D01*
X132756Y258973D01*
X132642Y258497D01*
X132539Y258018D01*
X132448Y257537D01*
X132368Y257054D01*
X132300Y256569D01*
X132244Y256082D01*
X132200Y255595D01*
X132167Y255106D01*
X132146Y254617D01*
X132137Y254127D01*
X132377Y254127D01*
X132386Y254611D01*
X132407Y255094D01*
X132439Y255577D01*
X132483Y256059D01*
X132539Y256540D01*
X132606Y257019D01*
X132684Y257496D01*
X132775Y257971D01*
X132876Y258444D01*
X132989Y258915D01*
X133114Y259382D01*
X133249Y259847D01*
X133396Y260308D01*
X133554Y260765D01*
X133723Y261218D01*
X133903Y261667D01*
X134093Y262112D01*
X134295Y262552D01*
X134507Y262987D01*
X134729Y263416D01*
X134961Y263841D01*
X135204Y264259D01*
X135457Y264672D01*
X135720Y265078D01*
X135992Y265478D01*
X136274Y265871D01*
X136566Y266257D01*
X136867Y266636D01*
X137176Y267007D01*
X137495Y267371D01*
X137822Y267727D01*
X138158Y268076D01*
X138503Y268416D01*
X138855Y268747D01*
X139215Y269070D01*
X139583Y269384D01*
X139958Y269689D01*
X140341Y269985D01*
X140731Y270272D01*
X141127Y270549D01*
X141530Y270817D01*
X141940Y271074D01*
X142355Y271322D01*
X142474Y271114D01*
X142064Y270869D01*
X141659Y270614D01*
X141261Y270350D01*
X140870Y270076D01*
X140485Y269793D01*
X140107Y269501D01*
X139736Y269199D01*
X139372Y268889D01*
X139017Y268570D01*
X138669Y268242D01*
X138329Y267906D01*
X137997Y267562D01*
X137673Y267211D01*
X137359Y266851D01*
X137053Y266484D01*
X136755Y266109D01*
X136468Y265728D01*
X136189Y265340D01*
X135920Y264945D01*
X135660Y264544D01*
X135410Y264136D01*
X135171Y263723D01*
X134941Y263304D01*
X134721Y262879D01*
X134512Y262450D01*
X134313Y262015D01*
X134125Y261576D01*
X133947Y261132D01*
X133780Y260684D01*
X133624Y260233D01*
X133479Y259777D01*
X133345Y259318D01*
X133222Y258857D01*
X133110Y258392D01*
X133010Y257925D01*
X132921Y257455D01*
X132843Y256984D01*
X132777Y256510D01*
X132722Y256036D01*
X132678Y255560D01*
X132647Y255083D01*
X132626Y254605D01*
X132617Y254127D01*
X132857Y254127D01*
X132866Y254599D01*
X132886Y255071D01*
X132918Y255542D01*
X132961Y256012D01*
X133015Y256481D01*
X133081Y256949D01*
X133157Y257414D01*
X133245Y257878D01*
X133345Y258340D01*
X133455Y258798D01*
X133576Y259255D01*
X133709Y259708D01*
X133852Y260158D01*
X134006Y260604D01*
X134171Y261046D01*
X134346Y261484D01*
X134532Y261918D01*
X134729Y262347D01*
X134936Y262772D01*
X135153Y263191D01*
X135380Y263605D01*
X135616Y264013D01*
X135863Y264416D01*
X136120Y264812D01*
X136385Y265202D01*
X136661Y265586D01*
X136945Y265962D01*
X137238Y266332D01*
X137541Y266695D01*
X137852Y267050D01*
X138171Y267397D01*
X138499Y267737D01*
X138835Y268069D01*
X139178Y268392D01*
X139530Y268708D01*
X139889Y269014D01*
X140255Y269312D01*
X140628Y269601D01*
X141008Y269881D01*
X141395Y270151D01*
X141789Y270412D01*
X142188Y270664D01*
X142593Y270905D01*
X142713Y270697D01*
X142312Y270458D01*
X141918Y270210D01*
X141529Y269952D01*
X141147Y269685D01*
X140772Y269409D01*
X140403Y269123D01*
X140041Y268829D01*
X139687Y268526D01*
X139340Y268215D01*
X139001Y267896D01*
X138669Y267568D01*
X138345Y267232D01*
X138030Y266889D01*
X137723Y266538D01*
X137424Y266180D01*
X137135Y265815D01*
X136854Y265443D01*
X136582Y265064D01*
X136319Y264679D01*
X136066Y264288D01*
X135823Y263890D01*
X135589Y263487D01*
X135364Y263078D01*
X135150Y262664D01*
X134946Y262245D01*
X134752Y261821D01*
X134568Y261393D01*
X134395Y260960D01*
X134232Y260523D01*
X134080Y260083D01*
X133939Y259638D01*
X133808Y259191D01*
X133688Y258740D01*
X133579Y258287D01*
X133481Y257831D01*
X133394Y257373D01*
X133318Y256913D01*
X133253Y256452D01*
X133200Y255989D01*
X133157Y255524D01*
X133126Y255059D01*
X133106Y254594D01*
X133097Y254127D01*
D12*
X160274Y238252D02*
X165354Y238252D01*
X144018Y238252D02*
X139446Y238252D01*
D13*
X175895Y245080D02*
X180721Y245080D01*
X180721Y247225D01*
X180721Y249835D02*
X180721Y251979D01*
X180721Y249835D02*
X175895Y249835D01*
X175895Y251979D01*
X178040Y251443D02*
X178040Y249835D01*
X175895Y254570D02*
X180721Y254570D01*
X175895Y254570D02*
X175895Y255910D01*
X175897Y255980D01*
X175902Y256050D01*
X175912Y256120D01*
X175924Y256189D01*
X175941Y256257D01*
X175961Y256324D01*
X175984Y256391D01*
X176011Y256455D01*
X176041Y256519D01*
X176075Y256581D01*
X176111Y256640D01*
X176151Y256698D01*
X176194Y256754D01*
X176239Y256807D01*
X176288Y256858D01*
X176339Y256907D01*
X176392Y256952D01*
X176448Y256995D01*
X176506Y257035D01*
X176566Y257071D01*
X176627Y257105D01*
X176691Y257135D01*
X176755Y257162D01*
X176822Y257185D01*
X176889Y257205D01*
X176957Y257222D01*
X177026Y257234D01*
X177096Y257244D01*
X177166Y257249D01*
X177236Y257251D01*
X179380Y257251D01*
X179450Y257249D01*
X179520Y257244D01*
X179590Y257234D01*
X179659Y257222D01*
X179727Y257205D01*
X179794Y257185D01*
X179861Y257162D01*
X179925Y257135D01*
X179989Y257105D01*
X180051Y257071D01*
X180110Y257035D01*
X180168Y256995D01*
X180224Y256952D01*
X180277Y256907D01*
X180328Y256858D01*
X180377Y256807D01*
X180422Y256754D01*
X180465Y256698D01*
X180505Y256640D01*
X180541Y256580D01*
X180575Y256519D01*
X180605Y256455D01*
X180632Y256391D01*
X180655Y256324D01*
X180675Y256257D01*
X180692Y256189D01*
X180704Y256120D01*
X180714Y256050D01*
X180719Y255980D01*
X180721Y255910D01*
X180721Y254570D01*
X175895Y261714D02*
X175897Y261782D01*
X175903Y261849D01*
X175912Y261916D01*
X175925Y261983D01*
X175942Y262048D01*
X175963Y262113D01*
X175987Y262176D01*
X176015Y262238D01*
X176046Y262298D01*
X176080Y262356D01*
X176118Y262412D01*
X176158Y262467D01*
X176202Y262518D01*
X176249Y262567D01*
X176298Y262614D01*
X176349Y262658D01*
X176404Y262698D01*
X176460Y262736D01*
X176518Y262770D01*
X176578Y262801D01*
X176640Y262829D01*
X176703Y262853D01*
X176768Y262874D01*
X176833Y262891D01*
X176900Y262904D01*
X176967Y262913D01*
X177034Y262919D01*
X177102Y262921D01*
X175895Y261714D02*
X175897Y261636D01*
X175903Y261558D01*
X175913Y261481D01*
X175926Y261404D01*
X175944Y261328D01*
X175965Y261253D01*
X175990Y261179D01*
X176019Y261107D01*
X176051Y261036D01*
X176087Y260967D01*
X176126Y260899D01*
X176169Y260834D01*
X176215Y260771D01*
X176264Y260710D01*
X176316Y260652D01*
X176371Y260597D01*
X176428Y260544D01*
X176488Y260495D01*
X176551Y260448D01*
X176616Y260405D01*
X176682Y260365D01*
X176751Y260328D01*
X176822Y260295D01*
X176894Y260265D01*
X176968Y260239D01*
X178040Y262518D02*
X177991Y262567D01*
X177939Y262614D01*
X177884Y262657D01*
X177827Y262698D01*
X177768Y262736D01*
X177707Y262770D01*
X177644Y262801D01*
X177580Y262829D01*
X177514Y262853D01*
X177448Y262873D01*
X177380Y262890D01*
X177311Y262903D01*
X177242Y262912D01*
X177172Y262918D01*
X177102Y262920D01*
X178040Y262518D02*
X180721Y260239D01*
X180721Y262920D01*
D14*
X25400Y107950D02*
X25400Y95250D01*
X19050Y88900D01*
X6350Y88900D01*
X0Y95250D01*
X25400Y133350D02*
X19050Y139700D01*
X25400Y133350D02*
X25400Y120650D01*
X19050Y114300D01*
X6350Y114300D01*
X0Y120650D01*
X0Y133350D01*
X6350Y139700D01*
X19050Y114300D02*
X25400Y107950D01*
X6350Y114300D02*
X0Y107950D01*
X0Y95250D01*
X25400Y171450D02*
X25400Y184150D01*
X25400Y171450D02*
X19050Y165100D01*
X6350Y165100D01*
X0Y171450D01*
X19050Y165100D02*
X25400Y158750D01*
X25400Y146050D01*
X19050Y139700D01*
X6350Y139700D01*
X0Y146050D01*
X0Y158750D01*
X6350Y165100D01*
X25400Y209550D02*
X19050Y215900D01*
X25400Y209550D02*
X25400Y196850D01*
X19050Y190500D01*
X6350Y190500D01*
X0Y196850D01*
X0Y209550D01*
X6350Y215900D01*
X19050Y190500D02*
X25400Y184150D01*
X6350Y190500D02*
X0Y184150D01*
X0Y171450D01*
X25400Y247650D02*
X25400Y260350D01*
X25400Y247650D02*
X19050Y241300D01*
X6350Y241300D01*
X0Y247650D01*
X19050Y241300D02*
X25400Y234950D01*
X25400Y222250D01*
X19050Y215900D01*
X6350Y215900D01*
X0Y222250D01*
X0Y234950D01*
X6350Y241300D01*
X6350Y266700D02*
X19050Y266700D01*
X25400Y260350D01*
X6350Y266700D02*
X0Y260350D01*
X0Y247650D01*
X25400Y82550D02*
X25400Y69850D01*
X19050Y63500D01*
X6350Y63500D01*
X0Y69850D01*
X19050Y88900D02*
X25400Y82550D01*
X6350Y88900D02*
X0Y82550D01*
X0Y69850D01*
D13*
X31623Y243638D02*
X40513Y243638D01*
X40613Y243636D01*
X40712Y243630D01*
X40812Y243620D01*
X40910Y243607D01*
X41009Y243589D01*
X41106Y243568D01*
X41202Y243543D01*
X41298Y243514D01*
X41392Y243481D01*
X41485Y243445D01*
X41576Y243405D01*
X41666Y243361D01*
X41754Y243314D01*
X41840Y243264D01*
X41924Y243210D01*
X42006Y243153D01*
X42085Y243093D01*
X42163Y243029D01*
X42237Y242963D01*
X42309Y242894D01*
X42378Y242822D01*
X42444Y242748D01*
X42508Y242670D01*
X42568Y242591D01*
X42625Y242509D01*
X42679Y242425D01*
X42729Y242339D01*
X42776Y242251D01*
X42820Y242161D01*
X42860Y242070D01*
X42896Y241977D01*
X42929Y241883D01*
X42958Y241787D01*
X42983Y241691D01*
X43004Y241594D01*
X43022Y241495D01*
X43035Y241397D01*
X43045Y241297D01*
X43051Y241198D01*
X43053Y241098D01*
X43053Y239828D01*
X43053Y249619D02*
X31623Y249619D01*
X31623Y252794D01*
X31625Y252905D01*
X31631Y253015D01*
X31640Y253126D01*
X31654Y253236D01*
X31671Y253345D01*
X31692Y253454D01*
X31717Y253562D01*
X31746Y253669D01*
X31778Y253775D01*
X31814Y253880D01*
X31854Y253983D01*
X31897Y254085D01*
X31944Y254186D01*
X31995Y254285D01*
X32048Y254382D01*
X32105Y254476D01*
X32166Y254569D01*
X32229Y254660D01*
X32296Y254749D01*
X32366Y254835D01*
X32439Y254918D01*
X32514Y255000D01*
X32592Y255078D01*
X32674Y255153D01*
X32757Y255226D01*
X32843Y255296D01*
X32932Y255363D01*
X33023Y255426D01*
X33116Y255487D01*
X33210Y255544D01*
X33307Y255597D01*
X33406Y255648D01*
X33507Y255695D01*
X33609Y255738D01*
X33712Y255778D01*
X33817Y255814D01*
X33923Y255846D01*
X34030Y255875D01*
X34138Y255900D01*
X34247Y255921D01*
X34356Y255938D01*
X34466Y255952D01*
X34577Y255961D01*
X34687Y255967D01*
X34798Y255969D01*
X34909Y255967D01*
X35019Y255961D01*
X35130Y255952D01*
X35240Y255938D01*
X35349Y255921D01*
X35458Y255900D01*
X35566Y255875D01*
X35673Y255846D01*
X35779Y255814D01*
X35884Y255778D01*
X35987Y255738D01*
X36089Y255695D01*
X36190Y255648D01*
X36289Y255597D01*
X36386Y255544D01*
X36480Y255487D01*
X36573Y255426D01*
X36664Y255363D01*
X36753Y255296D01*
X36839Y255226D01*
X36922Y255153D01*
X37004Y255078D01*
X37082Y255000D01*
X37157Y254918D01*
X37230Y254835D01*
X37300Y254749D01*
X37367Y254660D01*
X37430Y254569D01*
X37491Y254476D01*
X37548Y254382D01*
X37601Y254285D01*
X37652Y254186D01*
X37699Y254085D01*
X37742Y253983D01*
X37782Y253880D01*
X37818Y253775D01*
X37850Y253669D01*
X37879Y253562D01*
X37904Y253454D01*
X37925Y253345D01*
X37942Y253236D01*
X37956Y253126D01*
X37965Y253015D01*
X37971Y252905D01*
X37973Y252794D01*
X37973Y249619D01*
X34163Y260477D02*
X31623Y263652D01*
X43053Y263652D01*
X43053Y260477D02*
X43053Y266827D01*
D14*
X254000Y107950D02*
X254000Y95250D01*
X247650Y88900D01*
X234950Y88900D01*
X228600Y95250D01*
X254000Y133350D02*
X247650Y139700D01*
X254000Y133350D02*
X254000Y120650D01*
X247650Y114300D01*
X234950Y114300D01*
X228600Y120650D01*
X228600Y133350D01*
X234950Y139700D01*
X247650Y114300D02*
X254000Y107950D01*
X234950Y114300D02*
X228600Y107950D01*
X228600Y95250D01*
X254000Y171450D02*
X254000Y184150D01*
X254000Y171450D02*
X247650Y165100D01*
X234950Y165100D01*
X228600Y171450D01*
X247650Y165100D02*
X254000Y158750D01*
X254000Y146050D01*
X247650Y139700D01*
X234950Y139700D01*
X228600Y146050D01*
X228600Y158750D01*
X234950Y165100D01*
X254000Y209550D02*
X247650Y215900D01*
X254000Y209550D02*
X254000Y196850D01*
X247650Y190500D01*
X234950Y190500D01*
X228600Y196850D01*
X228600Y209550D01*
X234950Y215900D01*
X247650Y190500D02*
X254000Y184150D01*
X234950Y190500D02*
X228600Y184150D01*
X228600Y171450D01*
X254000Y247650D02*
X254000Y260350D01*
X254000Y247650D02*
X247650Y241300D01*
X234950Y241300D01*
X228600Y247650D01*
X247650Y241300D02*
X254000Y234950D01*
X254000Y222250D01*
X247650Y215900D01*
X234950Y215900D01*
X228600Y222250D01*
X228600Y234950D01*
X234950Y241300D01*
X234950Y266700D02*
X247650Y266700D01*
X254000Y260350D01*
X234950Y266700D02*
X228600Y260350D01*
X228600Y247650D01*
X254000Y82550D02*
X254000Y69850D01*
X247650Y63500D01*
X234950Y63500D01*
X228600Y69850D01*
X247650Y88900D02*
X254000Y82550D01*
X234950Y88900D02*
X228600Y82550D01*
X228600Y69850D01*
D13*
X260223Y243638D02*
X269113Y243638D01*
X269213Y243636D01*
X269312Y243630D01*
X269412Y243620D01*
X269510Y243607D01*
X269609Y243589D01*
X269706Y243568D01*
X269802Y243543D01*
X269898Y243514D01*
X269992Y243481D01*
X270085Y243445D01*
X270176Y243405D01*
X270266Y243361D01*
X270354Y243314D01*
X270440Y243264D01*
X270524Y243210D01*
X270606Y243153D01*
X270685Y243093D01*
X270763Y243029D01*
X270837Y242963D01*
X270909Y242894D01*
X270978Y242822D01*
X271044Y242748D01*
X271108Y242670D01*
X271168Y242591D01*
X271225Y242509D01*
X271279Y242425D01*
X271329Y242339D01*
X271376Y242251D01*
X271420Y242161D01*
X271460Y242070D01*
X271496Y241977D01*
X271529Y241883D01*
X271558Y241787D01*
X271583Y241691D01*
X271604Y241594D01*
X271622Y241495D01*
X271635Y241397D01*
X271645Y241297D01*
X271651Y241198D01*
X271653Y241098D01*
X271653Y239828D01*
X271653Y249619D02*
X260223Y249619D01*
X260223Y252794D01*
X260225Y252905D01*
X260231Y253015D01*
X260240Y253126D01*
X260254Y253236D01*
X260271Y253345D01*
X260292Y253454D01*
X260317Y253562D01*
X260346Y253669D01*
X260378Y253775D01*
X260414Y253880D01*
X260454Y253983D01*
X260497Y254085D01*
X260544Y254186D01*
X260595Y254285D01*
X260648Y254382D01*
X260705Y254476D01*
X260766Y254569D01*
X260829Y254660D01*
X260896Y254749D01*
X260966Y254835D01*
X261039Y254918D01*
X261114Y255000D01*
X261192Y255078D01*
X261274Y255153D01*
X261357Y255226D01*
X261443Y255296D01*
X261532Y255363D01*
X261623Y255426D01*
X261716Y255487D01*
X261811Y255544D01*
X261907Y255597D01*
X262006Y255648D01*
X262107Y255695D01*
X262209Y255738D01*
X262312Y255778D01*
X262417Y255814D01*
X262523Y255846D01*
X262630Y255875D01*
X262738Y255900D01*
X262847Y255921D01*
X262956Y255938D01*
X263066Y255952D01*
X263177Y255961D01*
X263287Y255967D01*
X263398Y255969D01*
X263509Y255967D01*
X263619Y255961D01*
X263730Y255952D01*
X263840Y255938D01*
X263949Y255921D01*
X264058Y255900D01*
X264166Y255875D01*
X264273Y255846D01*
X264379Y255814D01*
X264484Y255778D01*
X264587Y255738D01*
X264689Y255695D01*
X264790Y255648D01*
X264889Y255597D01*
X264986Y255544D01*
X265080Y255487D01*
X265173Y255426D01*
X265264Y255363D01*
X265353Y255296D01*
X265439Y255226D01*
X265522Y255153D01*
X265604Y255078D01*
X265682Y255000D01*
X265757Y254918D01*
X265830Y254835D01*
X265900Y254749D01*
X265967Y254660D01*
X266030Y254569D01*
X266091Y254476D01*
X266148Y254382D01*
X266201Y254285D01*
X266252Y254186D01*
X266299Y254085D01*
X266342Y253983D01*
X266382Y253880D01*
X266418Y253775D01*
X266450Y253669D01*
X266479Y253562D01*
X266504Y253454D01*
X266525Y253345D01*
X266542Y253236D01*
X266556Y253126D01*
X266565Y253015D01*
X266571Y252905D01*
X266573Y252794D01*
X266573Y249619D01*
X260223Y263970D02*
X260225Y264074D01*
X260231Y264179D01*
X260240Y264283D01*
X260253Y264386D01*
X260271Y264489D01*
X260291Y264591D01*
X260316Y264693D01*
X260344Y264793D01*
X260376Y264893D01*
X260412Y264991D01*
X260451Y265088D01*
X260493Y265183D01*
X260539Y265277D01*
X260589Y265369D01*
X260641Y265459D01*
X260697Y265547D01*
X260757Y265633D01*
X260819Y265717D01*
X260884Y265798D01*
X260952Y265877D01*
X261024Y265954D01*
X261097Y266027D01*
X261174Y266099D01*
X261253Y266167D01*
X261334Y266232D01*
X261418Y266294D01*
X261504Y266354D01*
X261592Y266410D01*
X261682Y266462D01*
X261774Y266512D01*
X261868Y266558D01*
X261963Y266600D01*
X262060Y266639D01*
X262158Y266675D01*
X262258Y266707D01*
X262358Y266735D01*
X262460Y266760D01*
X262562Y266780D01*
X262665Y266798D01*
X262768Y266811D01*
X262872Y266820D01*
X262977Y266826D01*
X263081Y266828D01*
X260223Y263970D02*
X260225Y263852D01*
X260231Y263733D01*
X260240Y263615D01*
X260253Y263498D01*
X260271Y263381D01*
X260291Y263264D01*
X260316Y263148D01*
X260344Y263033D01*
X260377Y262920D01*
X260412Y262807D01*
X260452Y262695D01*
X260494Y262585D01*
X260541Y262476D01*
X260591Y262368D01*
X260644Y262263D01*
X260701Y262159D01*
X260761Y262057D01*
X260824Y261957D01*
X260891Y261859D01*
X260960Y261763D01*
X261033Y261670D01*
X261109Y261579D01*
X261187Y261490D01*
X261269Y261404D01*
X261353Y261321D01*
X261439Y261240D01*
X261529Y261163D01*
X261620Y261088D01*
X261714Y261016D01*
X261811Y260947D01*
X261909Y260882D01*
X262010Y260819D01*
X262113Y260760D01*
X262217Y260704D01*
X262323Y260652D01*
X262431Y260603D01*
X262540Y260558D01*
X262651Y260516D01*
X262763Y260478D01*
X265303Y265875D02*
X265228Y265951D01*
X265149Y266026D01*
X265068Y266097D01*
X264984Y266166D01*
X264898Y266231D01*
X264810Y266293D01*
X264720Y266353D01*
X264628Y266409D01*
X264533Y266462D01*
X264437Y266511D01*
X264339Y266557D01*
X264240Y266600D01*
X264139Y266639D01*
X264037Y266674D01*
X263934Y266706D01*
X263830Y266734D01*
X263725Y266759D01*
X263618Y266780D01*
X263512Y266797D01*
X263405Y266810D01*
X263297Y266819D01*
X263189Y266825D01*
X263081Y266827D01*
X265303Y265875D02*
X271653Y260477D01*
X271653Y266827D01*
D14*
X139700Y31750D02*
X139700Y19050D01*
X139700Y31750D02*
X146050Y38100D01*
X158750Y38100D01*
X165100Y31750D01*
X146050Y38100D02*
X139700Y44450D01*
X139700Y57150D01*
X146050Y63500D01*
X158750Y63500D01*
X165100Y57150D01*
X165100Y44450D01*
X158750Y38100D01*
X158750Y12700D02*
X146050Y12700D01*
X139700Y19050D01*
X158750Y12700D02*
X165100Y19050D01*
X165100Y31750D01*
X146050Y63500D02*
X139700Y69850D01*
X139700Y82550D01*
X146050Y88900D01*
X158750Y88900D01*
X165100Y82550D01*
X165100Y69850D01*
X158750Y63500D01*
D13*
X130937Y16383D02*
X122047Y16383D01*
X130937Y16383D02*
X131037Y16381D01*
X131136Y16375D01*
X131236Y16365D01*
X131334Y16352D01*
X131433Y16334D01*
X131530Y16313D01*
X131626Y16288D01*
X131722Y16259D01*
X131816Y16226D01*
X131909Y16190D01*
X132000Y16150D01*
X132090Y16106D01*
X132178Y16059D01*
X132264Y16009D01*
X132348Y15955D01*
X132430Y15898D01*
X132509Y15838D01*
X132587Y15774D01*
X132661Y15708D01*
X132733Y15639D01*
X132802Y15567D01*
X132868Y15493D01*
X132932Y15415D01*
X132992Y15336D01*
X133049Y15254D01*
X133103Y15170D01*
X133153Y15084D01*
X133200Y14996D01*
X133244Y14906D01*
X133284Y14815D01*
X133320Y14722D01*
X133353Y14628D01*
X133382Y14532D01*
X133407Y14436D01*
X133428Y14339D01*
X133446Y14240D01*
X133459Y14142D01*
X133469Y14042D01*
X133475Y13943D01*
X133477Y13843D01*
X133477Y12573D01*
X133477Y22363D02*
X122047Y22363D01*
X122047Y25538D01*
X122049Y25649D01*
X122055Y25759D01*
X122064Y25870D01*
X122078Y25980D01*
X122095Y26089D01*
X122116Y26198D01*
X122141Y26306D01*
X122170Y26413D01*
X122202Y26519D01*
X122238Y26624D01*
X122278Y26727D01*
X122321Y26829D01*
X122368Y26930D01*
X122419Y27029D01*
X122472Y27125D01*
X122529Y27220D01*
X122590Y27313D01*
X122653Y27404D01*
X122720Y27493D01*
X122790Y27579D01*
X122863Y27662D01*
X122938Y27744D01*
X123016Y27822D01*
X123098Y27897D01*
X123181Y27970D01*
X123267Y28040D01*
X123356Y28107D01*
X123447Y28170D01*
X123540Y28231D01*
X123635Y28288D01*
X123731Y28341D01*
X123830Y28392D01*
X123931Y28439D01*
X124033Y28482D01*
X124136Y28522D01*
X124241Y28558D01*
X124347Y28590D01*
X124454Y28619D01*
X124562Y28644D01*
X124671Y28665D01*
X124780Y28682D01*
X124890Y28696D01*
X125001Y28705D01*
X125111Y28711D01*
X125222Y28713D01*
X125333Y28711D01*
X125443Y28705D01*
X125554Y28696D01*
X125664Y28682D01*
X125773Y28665D01*
X125882Y28644D01*
X125990Y28619D01*
X126097Y28590D01*
X126203Y28558D01*
X126308Y28522D01*
X126411Y28482D01*
X126513Y28439D01*
X126614Y28392D01*
X126713Y28341D01*
X126810Y28288D01*
X126904Y28231D01*
X126997Y28170D01*
X127088Y28107D01*
X127177Y28040D01*
X127263Y27970D01*
X127346Y27897D01*
X127428Y27822D01*
X127506Y27744D01*
X127581Y27662D01*
X127654Y27579D01*
X127724Y27493D01*
X127791Y27404D01*
X127854Y27313D01*
X127915Y27220D01*
X127972Y27126D01*
X128025Y27029D01*
X128076Y26930D01*
X128123Y26829D01*
X128166Y26727D01*
X128206Y26624D01*
X128242Y26519D01*
X128274Y26413D01*
X128303Y26306D01*
X128328Y26198D01*
X128349Y26089D01*
X128366Y25980D01*
X128380Y25870D01*
X128389Y25759D01*
X128395Y25649D01*
X128397Y25538D01*
X128397Y22363D01*
X133477Y33222D02*
X133477Y36397D01*
X133475Y36508D01*
X133469Y36618D01*
X133460Y36729D01*
X133446Y36839D01*
X133429Y36948D01*
X133408Y37057D01*
X133383Y37165D01*
X133354Y37272D01*
X133322Y37378D01*
X133286Y37483D01*
X133246Y37586D01*
X133203Y37688D01*
X133156Y37789D01*
X133105Y37888D01*
X133052Y37985D01*
X132995Y38079D01*
X132934Y38172D01*
X132871Y38263D01*
X132804Y38352D01*
X132734Y38438D01*
X132661Y38521D01*
X132586Y38603D01*
X132508Y38681D01*
X132426Y38756D01*
X132343Y38829D01*
X132257Y38899D01*
X132168Y38966D01*
X132077Y39029D01*
X131984Y39090D01*
X131890Y39147D01*
X131793Y39200D01*
X131694Y39251D01*
X131593Y39298D01*
X131491Y39341D01*
X131388Y39381D01*
X131283Y39417D01*
X131177Y39449D01*
X131070Y39478D01*
X130962Y39503D01*
X130853Y39524D01*
X130744Y39541D01*
X130634Y39555D01*
X130523Y39564D01*
X130413Y39570D01*
X130302Y39572D01*
X130191Y39570D01*
X130081Y39564D01*
X129970Y39555D01*
X129860Y39541D01*
X129751Y39524D01*
X129642Y39503D01*
X129534Y39478D01*
X129427Y39449D01*
X129321Y39417D01*
X129216Y39381D01*
X129113Y39341D01*
X129011Y39298D01*
X128910Y39251D01*
X128811Y39200D01*
X128715Y39147D01*
X128620Y39090D01*
X128527Y39029D01*
X128436Y38966D01*
X128347Y38899D01*
X128261Y38829D01*
X128178Y38756D01*
X128096Y38681D01*
X128018Y38603D01*
X127943Y38521D01*
X127870Y38438D01*
X127800Y38352D01*
X127733Y38263D01*
X127670Y38172D01*
X127609Y38079D01*
X127552Y37984D01*
X127499Y37888D01*
X127448Y37789D01*
X127401Y37688D01*
X127358Y37586D01*
X127318Y37483D01*
X127282Y37378D01*
X127250Y37272D01*
X127221Y37165D01*
X127196Y37057D01*
X127175Y36948D01*
X127158Y36839D01*
X127144Y36729D01*
X127135Y36618D01*
X127129Y36508D01*
X127127Y36397D01*
X122047Y37032D02*
X122047Y33222D01*
X122047Y37032D02*
X122049Y37132D01*
X122055Y37231D01*
X122065Y37331D01*
X122078Y37429D01*
X122096Y37528D01*
X122117Y37625D01*
X122142Y37721D01*
X122171Y37817D01*
X122204Y37911D01*
X122240Y38004D01*
X122280Y38095D01*
X122324Y38185D01*
X122371Y38273D01*
X122421Y38359D01*
X122475Y38443D01*
X122532Y38525D01*
X122592Y38604D01*
X122656Y38682D01*
X122722Y38756D01*
X122791Y38828D01*
X122863Y38897D01*
X122937Y38963D01*
X123015Y39027D01*
X123094Y39087D01*
X123176Y39144D01*
X123260Y39198D01*
X123346Y39248D01*
X123434Y39295D01*
X123524Y39339D01*
X123615Y39379D01*
X123708Y39415D01*
X123802Y39448D01*
X123898Y39477D01*
X123994Y39502D01*
X124091Y39523D01*
X124190Y39541D01*
X124288Y39554D01*
X124388Y39564D01*
X124487Y39570D01*
X124587Y39572D01*
X124687Y39570D01*
X124786Y39564D01*
X124886Y39554D01*
X124984Y39541D01*
X125083Y39523D01*
X125180Y39502D01*
X125276Y39477D01*
X125372Y39448D01*
X125466Y39415D01*
X125559Y39379D01*
X125650Y39339D01*
X125740Y39295D01*
X125828Y39248D01*
X125914Y39198D01*
X125998Y39144D01*
X126080Y39087D01*
X126159Y39027D01*
X126237Y38963D01*
X126311Y38897D01*
X126383Y38828D01*
X126452Y38756D01*
X126518Y38682D01*
X126582Y38604D01*
X126642Y38525D01*
X126699Y38443D01*
X126753Y38359D01*
X126803Y38273D01*
X126850Y38185D01*
X126894Y38095D01*
X126934Y38004D01*
X126970Y37911D01*
X127003Y37817D01*
X127032Y37721D01*
X127057Y37625D01*
X127078Y37528D01*
X127096Y37429D01*
X127109Y37331D01*
X127119Y37231D01*
X127125Y37132D01*
X127127Y37032D01*
X127127Y34492D01*
D14*
X69850Y88900D02*
X57150Y88900D01*
X69850Y88900D02*
X76200Y82550D01*
X76200Y69850D01*
X69850Y63500D01*
X50800Y69850D02*
X50800Y82550D01*
X57150Y88900D01*
X50800Y69850D02*
X57150Y63500D01*
X69850Y63500D01*
X76200Y82550D02*
X82550Y88900D01*
X95250Y88900D01*
X101600Y82550D01*
X101600Y69850D01*
X95250Y63500D01*
X82550Y63500D01*
X76200Y69850D01*
D13*
X54483Y97663D02*
X54483Y106553D01*
X54483Y97663D02*
X54481Y97563D01*
X54475Y97464D01*
X54465Y97364D01*
X54452Y97266D01*
X54434Y97167D01*
X54413Y97070D01*
X54388Y96974D01*
X54359Y96878D01*
X54326Y96784D01*
X54290Y96691D01*
X54250Y96600D01*
X54206Y96510D01*
X54159Y96422D01*
X54109Y96336D01*
X54055Y96252D01*
X53998Y96170D01*
X53938Y96091D01*
X53874Y96013D01*
X53808Y95939D01*
X53739Y95867D01*
X53667Y95798D01*
X53593Y95732D01*
X53515Y95668D01*
X53436Y95608D01*
X53354Y95551D01*
X53270Y95497D01*
X53184Y95447D01*
X53096Y95400D01*
X53006Y95356D01*
X52915Y95316D01*
X52822Y95280D01*
X52728Y95247D01*
X52632Y95218D01*
X52536Y95193D01*
X52439Y95172D01*
X52340Y95154D01*
X52242Y95141D01*
X52142Y95131D01*
X52043Y95125D01*
X51943Y95123D01*
X50673Y95123D01*
X60463Y95123D02*
X60463Y106553D01*
X63638Y106553D01*
X63749Y106551D01*
X63859Y106545D01*
X63970Y106536D01*
X64080Y106522D01*
X64189Y106505D01*
X64298Y106484D01*
X64406Y106459D01*
X64513Y106430D01*
X64619Y106398D01*
X64724Y106362D01*
X64827Y106322D01*
X64929Y106279D01*
X65030Y106232D01*
X65129Y106181D01*
X65226Y106128D01*
X65320Y106071D01*
X65413Y106010D01*
X65504Y105947D01*
X65593Y105880D01*
X65679Y105810D01*
X65762Y105737D01*
X65844Y105662D01*
X65922Y105584D01*
X65997Y105502D01*
X66070Y105419D01*
X66140Y105333D01*
X66207Y105244D01*
X66270Y105153D01*
X66331Y105060D01*
X66388Y104965D01*
X66441Y104869D01*
X66492Y104770D01*
X66539Y104669D01*
X66582Y104567D01*
X66622Y104464D01*
X66658Y104359D01*
X66690Y104253D01*
X66719Y104146D01*
X66744Y104038D01*
X66765Y103929D01*
X66782Y103820D01*
X66796Y103710D01*
X66805Y103599D01*
X66811Y103489D01*
X66813Y103378D01*
X66811Y103267D01*
X66805Y103157D01*
X66796Y103046D01*
X66782Y102936D01*
X66765Y102827D01*
X66744Y102718D01*
X66719Y102610D01*
X66690Y102503D01*
X66658Y102397D01*
X66622Y102292D01*
X66582Y102189D01*
X66539Y102087D01*
X66492Y101986D01*
X66441Y101887D01*
X66388Y101790D01*
X66331Y101696D01*
X66270Y101603D01*
X66207Y101512D01*
X66140Y101423D01*
X66070Y101337D01*
X65997Y101254D01*
X65922Y101172D01*
X65844Y101094D01*
X65762Y101019D01*
X65679Y100946D01*
X65593Y100876D01*
X65504Y100809D01*
X65413Y100746D01*
X65320Y100685D01*
X65225Y100628D01*
X65129Y100575D01*
X65030Y100524D01*
X64929Y100477D01*
X64827Y100434D01*
X64724Y100394D01*
X64619Y100358D01*
X64513Y100326D01*
X64406Y100297D01*
X64298Y100272D01*
X64189Y100251D01*
X64080Y100234D01*
X63970Y100220D01*
X63859Y100211D01*
X63749Y100205D01*
X63638Y100203D01*
X60463Y100203D01*
X71322Y97663D02*
X73862Y106553D01*
X71322Y97663D02*
X77672Y97663D01*
X75767Y100203D02*
X75767Y95123D01*
X154950Y156200D02*
X175250Y156200D01*
X175250Y199400D01*
X154950Y199400D01*
X154950Y156200D01*
X165100Y156200D02*
X165100Y150440D01*
X165100Y199400D02*
X165100Y205160D01*
D15*
X148092Y168876D02*
X136408Y168876D01*
X136408Y172122D01*
X136410Y172235D01*
X136416Y172348D01*
X136426Y172461D01*
X136440Y172574D01*
X136457Y172686D01*
X136479Y172797D01*
X136504Y172907D01*
X136534Y173017D01*
X136567Y173125D01*
X136604Y173232D01*
X136644Y173338D01*
X136689Y173442D01*
X136737Y173545D01*
X136788Y173646D01*
X136843Y173745D01*
X136901Y173842D01*
X136963Y173937D01*
X137028Y174030D01*
X137096Y174120D01*
X137167Y174208D01*
X137242Y174294D01*
X137319Y174377D01*
X137399Y174457D01*
X137482Y174534D01*
X137568Y174609D01*
X137656Y174680D01*
X137746Y174748D01*
X137839Y174813D01*
X137934Y174875D01*
X138031Y174933D01*
X138130Y174988D01*
X138231Y175039D01*
X138334Y175087D01*
X138438Y175132D01*
X138544Y175172D01*
X138651Y175209D01*
X138759Y175242D01*
X138869Y175272D01*
X138979Y175297D01*
X139090Y175319D01*
X139202Y175336D01*
X139315Y175350D01*
X139428Y175360D01*
X139541Y175366D01*
X139654Y175368D01*
X139767Y175366D01*
X139880Y175360D01*
X139993Y175350D01*
X140106Y175336D01*
X140218Y175319D01*
X140329Y175297D01*
X140439Y175272D01*
X140549Y175242D01*
X140657Y175209D01*
X140764Y175172D01*
X140870Y175132D01*
X140974Y175087D01*
X141077Y175039D01*
X141178Y174988D01*
X141277Y174933D01*
X141374Y174875D01*
X141469Y174813D01*
X141562Y174748D01*
X141652Y174680D01*
X141740Y174609D01*
X141826Y174534D01*
X141909Y174457D01*
X141989Y174377D01*
X142066Y174294D01*
X142141Y174208D01*
X142212Y174120D01*
X142280Y174030D01*
X142345Y173937D01*
X142407Y173842D01*
X142465Y173745D01*
X142520Y173646D01*
X142571Y173545D01*
X142619Y173442D01*
X142664Y173338D01*
X142704Y173232D01*
X142741Y173125D01*
X142774Y173017D01*
X142804Y172907D01*
X142829Y172797D01*
X142851Y172686D01*
X142868Y172574D01*
X142882Y172461D01*
X142892Y172348D01*
X142898Y172235D01*
X142900Y172122D01*
X142899Y172122D02*
X142899Y168876D01*
X142899Y172771D02*
X148092Y175367D01*
X139004Y180233D02*
X136408Y183478D01*
X148092Y183478D01*
X148092Y180233D02*
X148092Y186724D01*
D13*
X67300Y205750D02*
X67300Y226050D01*
X67300Y205750D02*
X110500Y205750D01*
X110500Y226050D01*
X67300Y226050D01*
X67300Y215900D02*
X61540Y215900D01*
X110500Y215900D02*
X116260Y215900D01*
D15*
X79976Y245608D02*
X79976Y257292D01*
X83222Y257292D01*
X83335Y257290D01*
X83448Y257284D01*
X83561Y257274D01*
X83674Y257260D01*
X83786Y257243D01*
X83897Y257221D01*
X84007Y257196D01*
X84117Y257166D01*
X84225Y257133D01*
X84332Y257096D01*
X84438Y257056D01*
X84542Y257011D01*
X84645Y256963D01*
X84746Y256912D01*
X84845Y256857D01*
X84942Y256799D01*
X85037Y256737D01*
X85130Y256672D01*
X85220Y256604D01*
X85308Y256533D01*
X85394Y256458D01*
X85477Y256381D01*
X85557Y256301D01*
X85634Y256218D01*
X85709Y256132D01*
X85780Y256044D01*
X85848Y255954D01*
X85913Y255861D01*
X85975Y255766D01*
X86033Y255669D01*
X86088Y255570D01*
X86139Y255469D01*
X86187Y255366D01*
X86232Y255262D01*
X86272Y255156D01*
X86309Y255049D01*
X86342Y254941D01*
X86372Y254831D01*
X86397Y254721D01*
X86419Y254610D01*
X86436Y254498D01*
X86450Y254385D01*
X86460Y254272D01*
X86466Y254159D01*
X86468Y254046D01*
X86466Y253933D01*
X86460Y253820D01*
X86450Y253707D01*
X86436Y253594D01*
X86419Y253482D01*
X86397Y253371D01*
X86372Y253261D01*
X86342Y253151D01*
X86309Y253043D01*
X86272Y252936D01*
X86232Y252830D01*
X86187Y252726D01*
X86139Y252623D01*
X86088Y252522D01*
X86033Y252423D01*
X85975Y252326D01*
X85913Y252231D01*
X85848Y252138D01*
X85780Y252048D01*
X85709Y251960D01*
X85634Y251874D01*
X85557Y251791D01*
X85477Y251711D01*
X85394Y251634D01*
X85308Y251559D01*
X85220Y251488D01*
X85130Y251420D01*
X85037Y251355D01*
X84942Y251293D01*
X84845Y251235D01*
X84746Y251180D01*
X84645Y251129D01*
X84542Y251081D01*
X84438Y251036D01*
X84332Y250996D01*
X84225Y250959D01*
X84117Y250926D01*
X84007Y250896D01*
X83897Y250871D01*
X83786Y250849D01*
X83674Y250832D01*
X83561Y250818D01*
X83448Y250808D01*
X83335Y250802D01*
X83222Y250800D01*
X83222Y250801D02*
X79976Y250801D01*
X83871Y250801D02*
X86467Y245608D01*
X97824Y254371D02*
X97822Y254478D01*
X97816Y254584D01*
X97806Y254690D01*
X97793Y254796D01*
X97775Y254902D01*
X97754Y255006D01*
X97729Y255110D01*
X97700Y255213D01*
X97668Y255314D01*
X97631Y255414D01*
X97591Y255513D01*
X97548Y255611D01*
X97501Y255707D01*
X97450Y255801D01*
X97396Y255893D01*
X97339Y255983D01*
X97279Y256071D01*
X97215Y256156D01*
X97148Y256239D01*
X97078Y256320D01*
X97006Y256398D01*
X96930Y256474D01*
X96852Y256546D01*
X96771Y256616D01*
X96688Y256683D01*
X96603Y256747D01*
X96515Y256807D01*
X96425Y256864D01*
X96333Y256918D01*
X96239Y256969D01*
X96143Y257016D01*
X96045Y257059D01*
X95946Y257099D01*
X95846Y257136D01*
X95745Y257168D01*
X95642Y257197D01*
X95538Y257222D01*
X95434Y257243D01*
X95328Y257261D01*
X95222Y257274D01*
X95116Y257284D01*
X95010Y257290D01*
X94903Y257292D01*
X94782Y257290D01*
X94661Y257284D01*
X94541Y257274D01*
X94420Y257261D01*
X94301Y257243D01*
X94181Y257222D01*
X94063Y257197D01*
X93946Y257168D01*
X93829Y257135D01*
X93714Y257099D01*
X93600Y257058D01*
X93487Y257015D01*
X93375Y256967D01*
X93266Y256916D01*
X93158Y256861D01*
X93051Y256803D01*
X92947Y256742D01*
X92845Y256677D01*
X92745Y256609D01*
X92647Y256538D01*
X92551Y256464D01*
X92458Y256387D01*
X92368Y256306D01*
X92280Y256223D01*
X92195Y256137D01*
X92112Y256048D01*
X92033Y255957D01*
X91956Y255863D01*
X91883Y255767D01*
X91813Y255669D01*
X91746Y255568D01*
X91682Y255465D01*
X91622Y255360D01*
X91565Y255253D01*
X91511Y255145D01*
X91461Y255035D01*
X91415Y254923D01*
X91372Y254810D01*
X91333Y254695D01*
X96850Y252099D02*
X96929Y252176D01*
X97005Y252257D01*
X97078Y252340D01*
X97148Y252425D01*
X97215Y252513D01*
X97279Y252603D01*
X97339Y252695D01*
X97396Y252790D01*
X97450Y252886D01*
X97501Y252984D01*
X97548Y253084D01*
X97592Y253186D01*
X97632Y253289D01*
X97668Y253393D01*
X97700Y253499D01*
X97729Y253605D01*
X97754Y253713D01*
X97776Y253821D01*
X97793Y253931D01*
X97807Y254040D01*
X97816Y254150D01*
X97822Y254261D01*
X97824Y254371D01*
X96850Y252099D02*
X91333Y245608D01*
X97824Y245608D01*
D13*
X190700Y266500D02*
X190700Y38300D01*
X190700Y266500D02*
X215700Y266500D01*
X215700Y38300D01*
X190700Y38300D01*
D16*
X202200Y33300D02*
X202202Y33363D01*
X202208Y33425D01*
X202218Y33487D01*
X202231Y33549D01*
X202249Y33609D01*
X202270Y33668D01*
X202295Y33726D01*
X202324Y33782D01*
X202356Y33836D01*
X202391Y33888D01*
X202429Y33937D01*
X202471Y33985D01*
X202515Y34029D01*
X202563Y34071D01*
X202612Y34109D01*
X202664Y34144D01*
X202718Y34176D01*
X202774Y34205D01*
X202832Y34230D01*
X202891Y34251D01*
X202951Y34269D01*
X203013Y34282D01*
X203075Y34292D01*
X203137Y34298D01*
X203200Y34300D01*
X203263Y34298D01*
X203325Y34292D01*
X203387Y34282D01*
X203449Y34269D01*
X203509Y34251D01*
X203568Y34230D01*
X203626Y34205D01*
X203682Y34176D01*
X203736Y34144D01*
X203788Y34109D01*
X203837Y34071D01*
X203885Y34029D01*
X203929Y33985D01*
X203971Y33937D01*
X204009Y33888D01*
X204044Y33836D01*
X204076Y33782D01*
X204105Y33726D01*
X204130Y33668D01*
X204151Y33609D01*
X204169Y33549D01*
X204182Y33487D01*
X204192Y33425D01*
X204198Y33363D01*
X204200Y33300D01*
X204198Y33237D01*
X204192Y33175D01*
X204182Y33113D01*
X204169Y33051D01*
X204151Y32991D01*
X204130Y32932D01*
X204105Y32874D01*
X204076Y32818D01*
X204044Y32764D01*
X204009Y32712D01*
X203971Y32663D01*
X203929Y32615D01*
X203885Y32571D01*
X203837Y32529D01*
X203788Y32491D01*
X203736Y32456D01*
X203682Y32424D01*
X203626Y32395D01*
X203568Y32370D01*
X203509Y32349D01*
X203449Y32331D01*
X203387Y32318D01*
X203325Y32308D01*
X203263Y32302D01*
X203200Y32300D01*
X203137Y32302D01*
X203075Y32308D01*
X203013Y32318D01*
X202951Y32331D01*
X202891Y32349D01*
X202832Y32370D01*
X202774Y32395D01*
X202718Y32424D01*
X202664Y32456D01*
X202612Y32491D01*
X202563Y32529D01*
X202515Y32571D01*
X202471Y32615D01*
X202429Y32663D01*
X202391Y32712D01*
X202356Y32764D01*
X202324Y32818D01*
X202295Y32874D01*
X202270Y32932D01*
X202249Y32991D01*
X202231Y33051D01*
X202218Y33113D01*
X202208Y33175D01*
X202202Y33237D01*
X202200Y33300D01*
D15*
X183608Y38585D02*
X171901Y38585D01*
X171901Y41837D01*
X171903Y41949D01*
X171909Y42061D01*
X171918Y42173D01*
X171932Y42285D01*
X171949Y42396D01*
X171971Y42506D01*
X171995Y42615D01*
X172024Y42724D01*
X172057Y42831D01*
X172093Y42938D01*
X172133Y43042D01*
X172176Y43146D01*
X172223Y43248D01*
X172273Y43348D01*
X172327Y43447D01*
X172385Y43543D01*
X172445Y43638D01*
X172509Y43730D01*
X172576Y43820D01*
X172646Y43908D01*
X172719Y43993D01*
X172795Y44076D01*
X172873Y44156D01*
X172955Y44234D01*
X173039Y44308D01*
X173125Y44380D01*
X173214Y44448D01*
X173306Y44513D01*
X173399Y44576D01*
X173495Y44634D01*
X173592Y44690D01*
X173692Y44742D01*
X173793Y44791D01*
X173896Y44836D01*
X174000Y44878D01*
X174105Y44916D01*
X174212Y44950D01*
X174320Y44981D01*
X174429Y45007D01*
X174539Y45031D01*
X174650Y45050D01*
X174761Y45065D01*
X174873Y45077D01*
X174985Y45085D01*
X175097Y45089D01*
X175209Y45089D01*
X175321Y45085D01*
X175433Y45077D01*
X175545Y45065D01*
X175656Y45050D01*
X175767Y45031D01*
X175877Y45007D01*
X175986Y44981D01*
X176094Y44950D01*
X176201Y44916D01*
X176306Y44878D01*
X176410Y44836D01*
X176513Y44791D01*
X176614Y44742D01*
X176714Y44690D01*
X176811Y44634D01*
X176907Y44576D01*
X177000Y44513D01*
X177092Y44448D01*
X177181Y44380D01*
X177267Y44308D01*
X177351Y44234D01*
X177433Y44156D01*
X177511Y44076D01*
X177587Y43993D01*
X177660Y43908D01*
X177730Y43820D01*
X177797Y43730D01*
X177861Y43638D01*
X177921Y43543D01*
X177979Y43447D01*
X178033Y43348D01*
X178083Y43248D01*
X178130Y43146D01*
X178173Y43042D01*
X178213Y42938D01*
X178249Y42831D01*
X178282Y42724D01*
X178311Y42615D01*
X178335Y42506D01*
X178357Y42396D01*
X178374Y42285D01*
X178388Y42173D01*
X178397Y42061D01*
X178403Y41949D01*
X178405Y41837D01*
X178405Y38585D01*
X178405Y42487D02*
X183608Y45089D01*
X183608Y50513D02*
X171901Y50513D01*
X171901Y53765D01*
X171903Y53877D01*
X171909Y53989D01*
X171918Y54101D01*
X171932Y54213D01*
X171949Y54324D01*
X171971Y54434D01*
X171995Y54543D01*
X172024Y54652D01*
X172057Y54759D01*
X172093Y54866D01*
X172133Y54970D01*
X172176Y55074D01*
X172223Y55176D01*
X172273Y55276D01*
X172327Y55375D01*
X172385Y55471D01*
X172445Y55566D01*
X172509Y55658D01*
X172576Y55748D01*
X172646Y55836D01*
X172719Y55921D01*
X172795Y56004D01*
X172873Y56084D01*
X172955Y56162D01*
X173039Y56236D01*
X173125Y56308D01*
X173214Y56376D01*
X173306Y56441D01*
X173399Y56504D01*
X173495Y56562D01*
X173592Y56618D01*
X173692Y56670D01*
X173793Y56719D01*
X173896Y56764D01*
X174000Y56806D01*
X174105Y56844D01*
X174212Y56878D01*
X174320Y56909D01*
X174429Y56935D01*
X174539Y56959D01*
X174650Y56978D01*
X174761Y56993D01*
X174873Y57005D01*
X174985Y57013D01*
X175097Y57017D01*
X175209Y57017D01*
X175321Y57013D01*
X175433Y57005D01*
X175545Y56993D01*
X175656Y56978D01*
X175767Y56959D01*
X175877Y56935D01*
X175986Y56909D01*
X176094Y56878D01*
X176201Y56844D01*
X176306Y56806D01*
X176410Y56764D01*
X176513Y56719D01*
X176614Y56670D01*
X176714Y56618D01*
X176811Y56562D01*
X176907Y56504D01*
X177000Y56441D01*
X177092Y56376D01*
X177181Y56308D01*
X177267Y56236D01*
X177351Y56162D01*
X177433Y56084D01*
X177511Y56004D01*
X177587Y55921D01*
X177660Y55836D01*
X177730Y55748D01*
X177797Y55658D01*
X177861Y55566D01*
X177921Y55471D01*
X177979Y55375D01*
X178033Y55276D01*
X178083Y55176D01*
X178130Y55074D01*
X178173Y54970D01*
X178213Y54866D01*
X178249Y54759D01*
X178282Y54652D01*
X178311Y54543D01*
X178335Y54434D01*
X178357Y54324D01*
X178374Y54213D01*
X178388Y54101D01*
X178397Y53989D01*
X178403Y53877D01*
X178405Y53765D01*
X178405Y50513D01*
X174502Y61413D02*
X171901Y64665D01*
X183608Y64665D01*
X183608Y67916D02*
X183608Y61413D01*
D14*
X152400Y105410D02*
X152400Y199390D01*
X50800Y199390D02*
X50800Y105410D01*
X82550Y105410D01*
X120650Y105410D01*
X152400Y105410D01*
X152400Y199390D02*
X50800Y199390D01*
X82550Y170180D02*
X120650Y170180D01*
X82550Y170180D02*
X82550Y185420D01*
X120650Y185420D01*
X120650Y170180D01*
X120650Y144780D02*
X82550Y144780D01*
X82550Y160020D01*
X120650Y160020D01*
X120650Y144780D01*
X120650Y119380D02*
X82550Y119380D01*
X82550Y134620D01*
X120650Y134620D01*
X120650Y119380D01*
X82550Y111760D02*
X82550Y105410D01*
X82550Y111760D02*
X120650Y111760D01*
X120650Y105410D01*
D17*
X111125Y127000D03*
X111125Y152400D03*
X111125Y177800D03*
D13*
X43815Y112395D02*
X43915Y112393D01*
X44014Y112387D01*
X44114Y112377D01*
X44212Y112364D01*
X44311Y112346D01*
X44408Y112325D01*
X44504Y112300D01*
X44600Y112271D01*
X44694Y112238D01*
X44787Y112202D01*
X44878Y112162D01*
X44968Y112118D01*
X45056Y112071D01*
X45142Y112021D01*
X45226Y111967D01*
X45308Y111910D01*
X45387Y111850D01*
X45465Y111786D01*
X45539Y111720D01*
X45611Y111651D01*
X45680Y111579D01*
X45746Y111505D01*
X45810Y111427D01*
X45870Y111348D01*
X45927Y111266D01*
X45981Y111182D01*
X46031Y111096D01*
X46078Y111008D01*
X46122Y110918D01*
X46162Y110827D01*
X46198Y110734D01*
X46231Y110640D01*
X46260Y110544D01*
X46285Y110448D01*
X46306Y110351D01*
X46324Y110252D01*
X46337Y110154D01*
X46347Y110054D01*
X46353Y109955D01*
X46355Y109855D01*
X46353Y109714D01*
X46348Y109573D01*
X46338Y109432D01*
X46325Y109291D01*
X46309Y109151D01*
X46288Y109011D01*
X46264Y108872D01*
X46236Y108733D01*
X46205Y108596D01*
X46170Y108459D01*
X46132Y108323D01*
X46090Y108188D01*
X46044Y108055D01*
X45995Y107922D01*
X45942Y107791D01*
X45886Y107662D01*
X45827Y107533D01*
X45764Y107407D01*
X45698Y107282D01*
X45629Y107159D01*
X45556Y107038D01*
X45480Y106919D01*
X45401Y106801D01*
X45320Y106686D01*
X45235Y106574D01*
X45147Y106463D01*
X45056Y106355D01*
X44963Y106249D01*
X44866Y106146D01*
X44767Y106045D01*
X37465Y106363D02*
X37365Y106365D01*
X37266Y106371D01*
X37166Y106381D01*
X37068Y106394D01*
X36969Y106412D01*
X36872Y106433D01*
X36776Y106458D01*
X36680Y106487D01*
X36586Y106520D01*
X36493Y106556D01*
X36402Y106596D01*
X36312Y106640D01*
X36224Y106687D01*
X36138Y106737D01*
X36054Y106791D01*
X35972Y106848D01*
X35893Y106908D01*
X35815Y106972D01*
X35741Y107038D01*
X35669Y107107D01*
X35600Y107179D01*
X35534Y107253D01*
X35470Y107331D01*
X35410Y107410D01*
X35353Y107492D01*
X35299Y107576D01*
X35249Y107662D01*
X35202Y107750D01*
X35158Y107840D01*
X35118Y107931D01*
X35082Y108024D01*
X35049Y108118D01*
X35020Y108214D01*
X34995Y108310D01*
X34974Y108407D01*
X34956Y108506D01*
X34943Y108604D01*
X34933Y108704D01*
X34927Y108803D01*
X34925Y108903D01*
X34927Y109036D01*
X34932Y109169D01*
X34942Y109302D01*
X34955Y109435D01*
X34972Y109567D01*
X34992Y109699D01*
X35016Y109830D01*
X35044Y109960D01*
X35075Y110090D01*
X35110Y110218D01*
X35149Y110346D01*
X35191Y110472D01*
X35237Y110597D01*
X35286Y110721D01*
X35338Y110844D01*
X35394Y110965D01*
X35454Y111084D01*
X35516Y111202D01*
X35582Y111317D01*
X35651Y111431D01*
X35724Y111543D01*
X35799Y111653D01*
X35878Y111761D01*
X39688Y107632D02*
X39636Y107548D01*
X39581Y107465D01*
X39522Y107385D01*
X39461Y107307D01*
X39397Y107232D01*
X39329Y107159D01*
X39259Y107088D01*
X39187Y107021D01*
X39112Y106956D01*
X39034Y106894D01*
X38954Y106835D01*
X38872Y106779D01*
X38788Y106727D01*
X38702Y106678D01*
X38614Y106632D01*
X38524Y106589D01*
X38433Y106550D01*
X38340Y106515D01*
X38246Y106483D01*
X38151Y106455D01*
X38055Y106430D01*
X37958Y106410D01*
X37860Y106392D01*
X37762Y106379D01*
X37663Y106370D01*
X37564Y106364D01*
X37465Y106362D01*
X41592Y111125D02*
X41644Y111209D01*
X41699Y111292D01*
X41758Y111372D01*
X41819Y111450D01*
X41883Y111525D01*
X41951Y111598D01*
X42021Y111669D01*
X42093Y111736D01*
X42168Y111801D01*
X42246Y111863D01*
X42326Y111922D01*
X42408Y111978D01*
X42492Y112030D01*
X42578Y112079D01*
X42666Y112125D01*
X42756Y112168D01*
X42847Y112207D01*
X42940Y112242D01*
X43034Y112274D01*
X43129Y112302D01*
X43225Y112327D01*
X43322Y112347D01*
X43420Y112365D01*
X43518Y112378D01*
X43617Y112387D01*
X43716Y112393D01*
X43815Y112395D01*
X41593Y111125D02*
X39688Y107633D01*
X34925Y120587D02*
X34927Y120691D01*
X34933Y120796D01*
X34942Y120900D01*
X34955Y121003D01*
X34973Y121106D01*
X34993Y121208D01*
X35018Y121310D01*
X35046Y121410D01*
X35078Y121510D01*
X35114Y121608D01*
X35153Y121705D01*
X35195Y121800D01*
X35241Y121894D01*
X35291Y121986D01*
X35343Y122076D01*
X35399Y122164D01*
X35459Y122250D01*
X35521Y122334D01*
X35586Y122415D01*
X35654Y122494D01*
X35726Y122571D01*
X35799Y122644D01*
X35876Y122716D01*
X35955Y122784D01*
X36036Y122849D01*
X36120Y122911D01*
X36206Y122971D01*
X36294Y123027D01*
X36384Y123079D01*
X36476Y123129D01*
X36570Y123175D01*
X36665Y123217D01*
X36762Y123256D01*
X36860Y123292D01*
X36960Y123324D01*
X37060Y123352D01*
X37162Y123377D01*
X37264Y123397D01*
X37367Y123415D01*
X37470Y123428D01*
X37574Y123437D01*
X37679Y123443D01*
X37783Y123445D01*
X34925Y120587D02*
X34927Y120469D01*
X34933Y120350D01*
X34942Y120232D01*
X34955Y120115D01*
X34973Y119998D01*
X34993Y119881D01*
X35018Y119765D01*
X35046Y119650D01*
X35079Y119537D01*
X35114Y119424D01*
X35154Y119312D01*
X35196Y119202D01*
X35243Y119093D01*
X35293Y118985D01*
X35346Y118880D01*
X35403Y118776D01*
X35463Y118674D01*
X35526Y118574D01*
X35593Y118476D01*
X35662Y118380D01*
X35735Y118287D01*
X35811Y118196D01*
X35889Y118107D01*
X35971Y118021D01*
X36055Y117938D01*
X36141Y117857D01*
X36231Y117780D01*
X36322Y117705D01*
X36416Y117633D01*
X36513Y117564D01*
X36611Y117499D01*
X36712Y117436D01*
X36815Y117377D01*
X36919Y117321D01*
X37025Y117269D01*
X37133Y117220D01*
X37242Y117175D01*
X37353Y117133D01*
X37465Y117095D01*
X40005Y122492D02*
X39930Y122568D01*
X39851Y122643D01*
X39770Y122714D01*
X39686Y122783D01*
X39600Y122848D01*
X39512Y122910D01*
X39422Y122970D01*
X39330Y123026D01*
X39235Y123079D01*
X39139Y123128D01*
X39041Y123174D01*
X38942Y123217D01*
X38841Y123256D01*
X38739Y123291D01*
X38636Y123323D01*
X38532Y123351D01*
X38427Y123376D01*
X38320Y123397D01*
X38214Y123414D01*
X38107Y123427D01*
X37999Y123436D01*
X37891Y123442D01*
X37783Y123444D01*
X40005Y122492D02*
X46355Y117094D01*
X46355Y123444D01*
M02*
