M48
;GenerationSoftware,Autodesk,EAGLE,9.6.2*%
;CreationDate,2020-08-10T21:46:51Z*%
FMAT,2
ICI,OFF
METRIC,TZ,000.000
T4C0.660
T3C0.800
T2C0.813
T1C1.016
%
G90
M71
T1
X15240Y7620
X8890Y7620
X6350Y7620
X15240Y5080
X1270Y25400
X1270Y22860
X1270Y20320
X1270Y17780
X1270Y15240
X1270Y12700
X1270Y10160
X1270Y7620
X24130Y25400
X24130Y22860
X24130Y20320
X24130Y17780
X24130Y15240
X24130Y12700
X24130Y10160
X24130Y7620
X15240Y2540
T2
X15240Y24130
X10160Y26670
X15240Y26670
X10160Y24130
X13970Y12700
X13970Y15240
X13970Y17780
X6350Y17780
X6350Y12700
X6350Y15240
T3
X20320Y5080
X20320Y7620
X20320Y10160
X20320Y12700
X20320Y15240
X20320Y17780
X20320Y20320
X20320Y22860
X20320Y25400
T4
X16510Y14160
X16510Y21400
X5270Y21590
X12510Y21590
M30