G04 EAGLE Gerber RS-274X export*
G75*
%MOMM*%
%FSLAX34Y34*%
%LPD*%
%INSolder Mask top*%
%IPPOS*%
%AMOC8*
5,1,8,0,0,1.08239X$1,22.5*%
G01*
%ADD10C,0.000000*%
%ADD11C,2.082800*%
%ADD12C,1.727200*%
%ADD13C,1.463200*%
%ADD14R,1.511200X1.511200*%
%ADD15C,1.511200*%
%ADD16C,1.524000*%


D10*
X0Y0D02*
X0Y279400D01*
X254000Y279400D01*
X254000Y0D01*
X0Y0D01*
D11*
X101600Y266700D03*
X101600Y241300D03*
X152400Y266700D03*
X152400Y241300D03*
D12*
X20320Y254000D02*
X5080Y254000D01*
X5080Y228600D02*
X20320Y228600D01*
X20320Y203200D02*
X5080Y203200D01*
X5080Y177800D02*
X20320Y177800D01*
X20320Y152400D02*
X5080Y152400D01*
X5080Y127000D02*
X20320Y127000D01*
X20320Y101600D02*
X5080Y101600D01*
X5080Y76200D02*
X20320Y76200D01*
X233680Y254000D02*
X248920Y254000D01*
X248920Y228600D02*
X233680Y228600D01*
X233680Y203200D02*
X248920Y203200D01*
X248920Y177800D02*
X233680Y177800D01*
X233680Y152400D02*
X248920Y152400D01*
X248920Y127000D02*
X233680Y127000D01*
X233680Y101600D02*
X248920Y101600D01*
X248920Y76200D02*
X233680Y76200D01*
X160020Y25400D02*
X144780Y25400D01*
X144780Y50800D02*
X160020Y50800D01*
X160020Y76200D02*
X144780Y76200D01*
X63500Y68580D02*
X63500Y83820D01*
X88900Y83820D02*
X88900Y68580D01*
D13*
X165100Y141600D03*
X165100Y214000D03*
X52700Y215900D03*
X125100Y215900D03*
D14*
X203200Y50800D03*
D15*
X203200Y76200D03*
X203200Y101600D03*
X203200Y127000D03*
X203200Y152400D03*
X203200Y177800D03*
X203200Y203200D03*
X203200Y228600D03*
X203200Y254000D03*
D16*
X146304Y127000D02*
X133096Y127000D01*
X133096Y152400D02*
X146304Y152400D01*
X146304Y177800D02*
X133096Y177800D01*
X70104Y177800D02*
X56896Y177800D01*
X56896Y127000D02*
X70104Y127000D01*
X70104Y152400D02*
X56896Y152400D01*
M02*
