G04 EAGLE Gerber RS-274X export*
G75*
%MOMM*%
%FSLAX34Y34*%
%LPD*%
%INBottom layer*%
%IPPOS*%
%AMOC8*
5,1,8,0,0,1.08239X$1,22.5*%
G01*
%ADD10C,0.000000*%
%ADD11C,1.879600*%
%ADD12C,1.524000*%
%ADD13C,1.260000*%
%ADD14R,1.308000X1.308000*%
%ADD15C,1.308000*%
%ADD16C,1.320800*%
%ADD17C,0.812800*%
%ADD18C,0.508000*%
%ADD19C,0.304800*%


D10*
X0Y0D02*
X0Y279400D01*
X254000Y279400D01*
X254000Y0D01*
X0Y0D01*
D11*
X101600Y266700D03*
X101600Y241300D03*
X152400Y266700D03*
X152400Y241300D03*
D12*
X20320Y254000D02*
X5080Y254000D01*
X5080Y228600D02*
X20320Y228600D01*
X20320Y203200D02*
X5080Y203200D01*
X5080Y177800D02*
X20320Y177800D01*
X20320Y152400D02*
X5080Y152400D01*
X5080Y127000D02*
X20320Y127000D01*
X20320Y101600D02*
X5080Y101600D01*
X5080Y76200D02*
X20320Y76200D01*
X233680Y254000D02*
X248920Y254000D01*
X248920Y228600D02*
X233680Y228600D01*
X233680Y203200D02*
X248920Y203200D01*
X248920Y177800D02*
X233680Y177800D01*
X233680Y152400D02*
X248920Y152400D01*
X248920Y127000D02*
X233680Y127000D01*
X233680Y101600D02*
X248920Y101600D01*
X248920Y76200D02*
X233680Y76200D01*
X160020Y25400D02*
X144780Y25400D01*
X144780Y50800D02*
X160020Y50800D01*
X160020Y76200D02*
X144780Y76200D01*
X63500Y68580D02*
X63500Y83820D01*
X88900Y83820D02*
X88900Y68580D01*
D13*
X165100Y141600D03*
X165100Y214000D03*
X52700Y215900D03*
X125100Y215900D03*
D14*
X203200Y50800D03*
D15*
X203200Y76200D03*
X203200Y101600D03*
X203200Y127000D03*
X203200Y152400D03*
X203200Y177800D03*
X203200Y203200D03*
X203200Y228600D03*
X203200Y254000D03*
D16*
X146304Y127000D02*
X133096Y127000D01*
X133096Y152400D02*
X146304Y152400D01*
X146304Y177800D02*
X133096Y177800D01*
X70104Y177800D02*
X56896Y177800D01*
X56896Y127000D02*
X70104Y127000D01*
X70104Y152400D02*
X56896Y152400D01*
D17*
X88011Y128016D02*
X88011Y76581D01*
X88011Y128016D02*
X64008Y152019D01*
X88011Y76581D02*
X88900Y76200D01*
X64008Y152019D02*
X63500Y152400D01*
X165100Y141600D02*
X188600Y141600D01*
X188685Y141598D01*
X188770Y141592D01*
X188855Y141583D01*
X188939Y141569D01*
X189023Y141552D01*
X189105Y141532D01*
X189187Y141507D01*
X189268Y141479D01*
X189347Y141447D01*
X189424Y141412D01*
X189500Y141373D01*
X189575Y141331D01*
X189647Y141286D01*
X189717Y141237D01*
X189785Y141185D01*
X189850Y141131D01*
X189913Y141073D01*
X189973Y141013D01*
X190031Y140950D01*
X190085Y140885D01*
X190137Y140817D01*
X190186Y140747D01*
X190231Y140675D01*
X190273Y140600D01*
X190312Y140524D01*
X190347Y140447D01*
X190379Y140368D01*
X190407Y140287D01*
X190432Y140205D01*
X190452Y140123D01*
X190469Y140039D01*
X190483Y139955D01*
X190492Y139870D01*
X190498Y139785D01*
X190500Y139700D01*
X215900Y139700D01*
X215900Y114300D01*
X215904Y113993D01*
X215915Y113686D01*
X215933Y113380D01*
X215959Y113074D01*
X215993Y112769D01*
X216033Y112465D01*
X216081Y112162D01*
X216137Y111860D01*
X216199Y111560D01*
X216269Y111261D01*
X216346Y110964D01*
X216430Y110668D01*
X216522Y110375D01*
X216620Y110085D01*
X216725Y109797D01*
X216838Y109511D01*
X216957Y109228D01*
X217083Y108948D01*
X217215Y108671D01*
X217355Y108398D01*
X217501Y108128D01*
X217653Y107862D01*
X217812Y107599D01*
X217977Y107340D01*
X218148Y107086D01*
X218325Y106835D01*
X218509Y106589D01*
X218698Y106347D01*
X218893Y106111D01*
X219094Y105878D01*
X219300Y105651D01*
X219512Y105429D01*
X219729Y105212D01*
X219951Y105000D01*
X220178Y104794D01*
X220411Y104593D01*
X220647Y104398D01*
X220889Y104209D01*
X221135Y104025D01*
X221386Y103848D01*
X221640Y103677D01*
X221899Y103512D01*
X222162Y103353D01*
X222428Y103201D01*
X222698Y103055D01*
X222971Y102915D01*
X223248Y102783D01*
X223528Y102657D01*
X223811Y102538D01*
X224097Y102425D01*
X224385Y102320D01*
X224675Y102222D01*
X224968Y102130D01*
X225264Y102046D01*
X225561Y101969D01*
X225860Y101899D01*
X226160Y101837D01*
X226462Y101781D01*
X226765Y101733D01*
X227069Y101693D01*
X227374Y101659D01*
X227680Y101633D01*
X227986Y101615D01*
X228293Y101604D01*
X228600Y101600D01*
X52700Y215900D02*
X52615Y215902D01*
X52530Y215908D01*
X52445Y215917D01*
X52361Y215931D01*
X52277Y215948D01*
X52195Y215968D01*
X52113Y215993D01*
X52032Y216021D01*
X51953Y216053D01*
X51876Y216088D01*
X51800Y216127D01*
X51725Y216169D01*
X51653Y216214D01*
X51583Y216263D01*
X51515Y216315D01*
X51450Y216369D01*
X51387Y216427D01*
X51327Y216487D01*
X51269Y216550D01*
X51215Y216615D01*
X51163Y216683D01*
X51114Y216753D01*
X51069Y216825D01*
X51027Y216900D01*
X50988Y216976D01*
X50953Y217053D01*
X50921Y217132D01*
X50893Y217213D01*
X50868Y217295D01*
X50848Y217377D01*
X50831Y217461D01*
X50817Y217545D01*
X50808Y217630D01*
X50802Y217715D01*
X50800Y217800D01*
X50800Y228600D02*
X38100Y228600D01*
X50800Y217800D02*
X50802Y217715D01*
X50808Y217630D01*
X50817Y217545D01*
X50831Y217461D01*
X50848Y217377D01*
X50868Y217295D01*
X50893Y217213D01*
X50921Y217132D01*
X50953Y217053D01*
X50988Y216976D01*
X51027Y216900D01*
X51069Y216825D01*
X51114Y216753D01*
X51163Y216683D01*
X51215Y216615D01*
X51269Y216550D01*
X51327Y216487D01*
X51387Y216427D01*
X51450Y216369D01*
X51515Y216315D01*
X51583Y216263D01*
X51653Y216214D01*
X51725Y216169D01*
X51800Y216127D01*
X51876Y216088D01*
X51953Y216053D01*
X52032Y216021D01*
X52113Y215993D01*
X52195Y215968D01*
X52277Y215948D01*
X52361Y215931D01*
X52445Y215917D01*
X52530Y215908D01*
X52615Y215902D01*
X52700Y215900D01*
X50800Y217800D02*
X50800Y228600D01*
X215900Y152400D02*
X215900Y139700D01*
X215900Y152400D02*
X215896Y152707D01*
X215885Y153014D01*
X215867Y153320D01*
X215841Y153626D01*
X215807Y153931D01*
X215767Y154235D01*
X215719Y154538D01*
X215663Y154840D01*
X215601Y155140D01*
X215531Y155439D01*
X215454Y155736D01*
X215370Y156032D01*
X215278Y156325D01*
X215180Y156615D01*
X215075Y156903D01*
X214962Y157189D01*
X214843Y157472D01*
X214717Y157752D01*
X214585Y158029D01*
X214445Y158302D01*
X214299Y158572D01*
X214147Y158838D01*
X213988Y159101D01*
X213823Y159360D01*
X213652Y159614D01*
X213475Y159865D01*
X213291Y160111D01*
X213102Y160353D01*
X212907Y160589D01*
X212706Y160822D01*
X212500Y161049D01*
X212288Y161271D01*
X212071Y161488D01*
X211849Y161700D01*
X211622Y161906D01*
X211389Y162107D01*
X211153Y162302D01*
X210911Y162491D01*
X210665Y162675D01*
X210414Y162852D01*
X210160Y163023D01*
X209901Y163188D01*
X209638Y163347D01*
X209372Y163499D01*
X209102Y163645D01*
X208829Y163785D01*
X208552Y163917D01*
X208272Y164043D01*
X207989Y164162D01*
X207703Y164275D01*
X207415Y164380D01*
X207125Y164478D01*
X206832Y164570D01*
X206536Y164654D01*
X206239Y164731D01*
X205940Y164801D01*
X205640Y164863D01*
X205338Y164919D01*
X205035Y164967D01*
X204731Y165007D01*
X204426Y165041D01*
X204120Y165067D01*
X203814Y165085D01*
X203507Y165096D01*
X203200Y165100D01*
X114300Y165100D01*
X113993Y165104D01*
X113686Y165115D01*
X113380Y165133D01*
X113074Y165159D01*
X112769Y165193D01*
X112465Y165233D01*
X112162Y165281D01*
X111860Y165337D01*
X111560Y165399D01*
X111261Y165469D01*
X110964Y165546D01*
X110668Y165630D01*
X110375Y165722D01*
X110085Y165820D01*
X109797Y165925D01*
X109511Y166038D01*
X109228Y166157D01*
X108948Y166283D01*
X108671Y166415D01*
X108398Y166555D01*
X108128Y166701D01*
X107862Y166853D01*
X107599Y167012D01*
X107340Y167177D01*
X107086Y167348D01*
X106835Y167525D01*
X106589Y167709D01*
X106347Y167898D01*
X106111Y168093D01*
X105878Y168294D01*
X105651Y168500D01*
X105429Y168712D01*
X105212Y168929D01*
X105000Y169151D01*
X104794Y169378D01*
X104593Y169611D01*
X104398Y169847D01*
X104209Y170089D01*
X104025Y170335D01*
X103848Y170586D01*
X103677Y170840D01*
X103512Y171099D01*
X103353Y171362D01*
X103201Y171628D01*
X103055Y171898D01*
X102915Y172171D01*
X102783Y172448D01*
X102657Y172728D01*
X102538Y173011D01*
X102425Y173297D01*
X102320Y173585D01*
X102222Y173875D01*
X102130Y174168D01*
X102046Y174464D01*
X101969Y174761D01*
X101899Y175060D01*
X101837Y175360D01*
X101781Y175662D01*
X101733Y175965D01*
X101693Y176269D01*
X101659Y176574D01*
X101633Y176880D01*
X101615Y177186D01*
X101604Y177493D01*
X101600Y177800D01*
X101600Y203200D01*
X101593Y203814D01*
X101570Y204427D01*
X101533Y205040D01*
X101481Y205651D01*
X101415Y206262D01*
X101333Y206870D01*
X101237Y207476D01*
X101127Y208080D01*
X101002Y208681D01*
X100862Y209279D01*
X100708Y209873D01*
X100539Y210463D01*
X100357Y211049D01*
X100160Y211630D01*
X99949Y212207D01*
X99725Y212778D01*
X99487Y213344D01*
X99235Y213904D01*
X98969Y214457D01*
X98691Y215004D01*
X98399Y215544D01*
X98094Y216077D01*
X97776Y216602D01*
X97446Y217120D01*
X97104Y217629D01*
X96749Y218130D01*
X96382Y218622D01*
X96004Y219105D01*
X95614Y219579D01*
X95212Y220043D01*
X94800Y220498D01*
X94376Y220942D01*
X93942Y221376D01*
X93498Y221800D01*
X93043Y222212D01*
X92579Y222614D01*
X92105Y223004D01*
X91622Y223382D01*
X91130Y223749D01*
X90629Y224104D01*
X90120Y224446D01*
X89602Y224776D01*
X89077Y225094D01*
X88544Y225399D01*
X88004Y225691D01*
X87457Y225969D01*
X86904Y226235D01*
X86344Y226487D01*
X85778Y226725D01*
X85207Y226949D01*
X84630Y227160D01*
X84049Y227357D01*
X83463Y227539D01*
X82873Y227708D01*
X82279Y227862D01*
X81681Y228002D01*
X81080Y228127D01*
X80476Y228237D01*
X79870Y228333D01*
X79262Y228415D01*
X78651Y228481D01*
X78040Y228533D01*
X77427Y228570D01*
X76814Y228593D01*
X76200Y228600D01*
X50800Y228600D01*
X228600Y101600D02*
X241300Y101600D01*
X228600Y101600D02*
X228293Y101604D01*
X227986Y101615D01*
X227680Y101633D01*
X227374Y101659D01*
X227069Y101693D01*
X226765Y101733D01*
X226462Y101781D01*
X226160Y101837D01*
X225860Y101899D01*
X225561Y101969D01*
X225264Y102046D01*
X224968Y102130D01*
X224675Y102222D01*
X224385Y102320D01*
X224097Y102425D01*
X223811Y102538D01*
X223528Y102657D01*
X223248Y102783D01*
X222971Y102915D01*
X222698Y103055D01*
X222428Y103201D01*
X222162Y103353D01*
X221899Y103512D01*
X221640Y103677D01*
X221386Y103848D01*
X221135Y104025D01*
X220889Y104209D01*
X220647Y104398D01*
X220411Y104593D01*
X220178Y104794D01*
X219951Y105000D01*
X219729Y105212D01*
X219512Y105429D01*
X219300Y105651D01*
X219094Y105878D01*
X218893Y106111D01*
X218698Y106347D01*
X218509Y106589D01*
X218325Y106835D01*
X218148Y107086D01*
X217977Y107340D01*
X217812Y107599D01*
X217653Y107862D01*
X217501Y108128D01*
X217355Y108398D01*
X217215Y108671D01*
X217083Y108948D01*
X216957Y109228D01*
X216838Y109511D01*
X216725Y109797D01*
X216620Y110085D01*
X216522Y110375D01*
X216430Y110668D01*
X216346Y110964D01*
X216269Y111261D01*
X216199Y111560D01*
X216137Y111860D01*
X216081Y112162D01*
X216033Y112465D01*
X215993Y112769D01*
X215959Y113074D01*
X215933Y113380D01*
X215915Y113686D01*
X215904Y113993D01*
X215900Y114300D01*
X215900Y101600D02*
X228600Y101600D01*
X215900Y101600D02*
X215900Y63500D01*
X177800Y63500D01*
X165100Y76200D01*
X152400Y76200D01*
X151786Y76193D01*
X151173Y76170D01*
X150560Y76133D01*
X149949Y76081D01*
X149338Y76015D01*
X148730Y75933D01*
X148124Y75837D01*
X147520Y75727D01*
X146919Y75602D01*
X146321Y75462D01*
X145727Y75308D01*
X145137Y75139D01*
X144551Y74957D01*
X143970Y74760D01*
X143393Y74549D01*
X142822Y74325D01*
X142256Y74087D01*
X141696Y73835D01*
X141143Y73569D01*
X140596Y73291D01*
X140056Y72999D01*
X139523Y72694D01*
X138998Y72376D01*
X138480Y72046D01*
X137971Y71704D01*
X137470Y71349D01*
X136978Y70982D01*
X136495Y70604D01*
X136021Y70214D01*
X135557Y69812D01*
X135102Y69400D01*
X134658Y68976D01*
X134224Y68542D01*
X133800Y68098D01*
X133388Y67643D01*
X132986Y67179D01*
X132596Y66705D01*
X132218Y66222D01*
X131851Y65730D01*
X131496Y65229D01*
X131154Y64720D01*
X130824Y64202D01*
X130506Y63677D01*
X130201Y63144D01*
X129909Y62604D01*
X129631Y62057D01*
X129365Y61504D01*
X129113Y60944D01*
X128875Y60378D01*
X128651Y59807D01*
X128440Y59230D01*
X128243Y58649D01*
X128061Y58063D01*
X127892Y57473D01*
X127738Y56879D01*
X127598Y56281D01*
X127473Y55680D01*
X127363Y55076D01*
X127267Y54470D01*
X127185Y53862D01*
X127119Y53251D01*
X127067Y52640D01*
X127030Y52027D01*
X127007Y51414D01*
X127000Y50800D01*
D18*
X127000Y12700D01*
X165100Y12700D01*
X177800Y12700D01*
X177800Y25400D01*
D17*
X203200Y25400D01*
X203507Y25404D01*
X203814Y25415D01*
X204120Y25433D01*
X204426Y25459D01*
X204731Y25493D01*
X205035Y25533D01*
X205338Y25581D01*
X205640Y25637D01*
X205940Y25699D01*
X206239Y25769D01*
X206536Y25846D01*
X206832Y25930D01*
X207125Y26022D01*
X207415Y26120D01*
X207703Y26225D01*
X207989Y26338D01*
X208272Y26457D01*
X208552Y26583D01*
X208829Y26715D01*
X209102Y26855D01*
X209372Y27001D01*
X209638Y27153D01*
X209901Y27312D01*
X210160Y27477D01*
X210414Y27648D01*
X210665Y27825D01*
X210911Y28009D01*
X211153Y28198D01*
X211389Y28393D01*
X211622Y28594D01*
X211849Y28800D01*
X212071Y29012D01*
X212288Y29229D01*
X212500Y29451D01*
X212706Y29678D01*
X212907Y29911D01*
X213102Y30147D01*
X213291Y30389D01*
X213475Y30635D01*
X213652Y30886D01*
X213823Y31140D01*
X213988Y31399D01*
X214147Y31662D01*
X214299Y31928D01*
X214445Y32198D01*
X214585Y32471D01*
X214717Y32748D01*
X214843Y33028D01*
X214962Y33311D01*
X215075Y33597D01*
X215180Y33885D01*
X215278Y34175D01*
X215370Y34468D01*
X215454Y34764D01*
X215531Y35061D01*
X215601Y35360D01*
X215663Y35660D01*
X215719Y35962D01*
X215767Y36265D01*
X215807Y36569D01*
X215841Y36874D01*
X215867Y37180D01*
X215885Y37486D01*
X215896Y37793D01*
X215900Y38100D01*
X203200Y50800D02*
X228600Y50800D01*
X228907Y50804D01*
X229214Y50815D01*
X229520Y50833D01*
X229826Y50859D01*
X230131Y50893D01*
X230435Y50933D01*
X230738Y50981D01*
X231040Y51037D01*
X231340Y51099D01*
X231639Y51169D01*
X231936Y51246D01*
X232232Y51330D01*
X232525Y51422D01*
X232815Y51520D01*
X233103Y51625D01*
X233389Y51738D01*
X233672Y51857D01*
X233952Y51983D01*
X234229Y52115D01*
X234502Y52255D01*
X234772Y52401D01*
X235038Y52553D01*
X235301Y52712D01*
X235560Y52877D01*
X235814Y53048D01*
X236065Y53225D01*
X236311Y53409D01*
X236553Y53598D01*
X236789Y53793D01*
X237022Y53994D01*
X237249Y54200D01*
X237471Y54412D01*
X237688Y54629D01*
X237900Y54851D01*
X238106Y55078D01*
X238307Y55311D01*
X238502Y55547D01*
X238691Y55789D01*
X238875Y56035D01*
X239052Y56286D01*
X239223Y56540D01*
X239388Y56799D01*
X239547Y57062D01*
X239699Y57328D01*
X239845Y57598D01*
X239985Y57871D01*
X240117Y58148D01*
X240243Y58428D01*
X240362Y58711D01*
X240475Y58997D01*
X240580Y59285D01*
X240678Y59575D01*
X240770Y59868D01*
X240854Y60164D01*
X240931Y60461D01*
X241001Y60760D01*
X241063Y61060D01*
X241119Y61362D01*
X241167Y61665D01*
X241207Y61969D01*
X241241Y62274D01*
X241267Y62580D01*
X241285Y62886D01*
X241296Y63193D01*
X241300Y63500D01*
X241300Y76200D01*
D19*
X241173Y153162D02*
X213741Y180594D01*
X213741Y206883D01*
X202311Y218313D01*
X198882Y218313D01*
X153162Y264033D01*
X153162Y266319D01*
X241173Y153162D02*
X241300Y152400D01*
X153162Y266319D02*
X152400Y266700D01*
X63500Y177800D02*
X63807Y177796D01*
X64114Y177785D01*
X64420Y177767D01*
X64726Y177741D01*
X65031Y177707D01*
X65335Y177667D01*
X65638Y177619D01*
X65940Y177563D01*
X66240Y177501D01*
X66539Y177431D01*
X66836Y177354D01*
X67132Y177270D01*
X67425Y177178D01*
X67715Y177080D01*
X68003Y176975D01*
X68289Y176862D01*
X68572Y176743D01*
X68852Y176617D01*
X69129Y176485D01*
X69402Y176345D01*
X69672Y176199D01*
X69938Y176047D01*
X70201Y175888D01*
X70460Y175723D01*
X70714Y175552D01*
X70965Y175375D01*
X71211Y175191D01*
X71453Y175002D01*
X71689Y174807D01*
X71922Y174606D01*
X72149Y174400D01*
X72371Y174188D01*
X72588Y173971D01*
X72800Y173749D01*
X73006Y173522D01*
X73207Y173289D01*
X73402Y173053D01*
X73591Y172811D01*
X73775Y172565D01*
X73952Y172314D01*
X74123Y172060D01*
X74288Y171801D01*
X74447Y171538D01*
X74599Y171272D01*
X74745Y171002D01*
X74885Y170729D01*
X75017Y170452D01*
X75143Y170172D01*
X75262Y169889D01*
X75375Y169603D01*
X75480Y169315D01*
X75578Y169025D01*
X75670Y168732D01*
X75754Y168436D01*
X75831Y168139D01*
X75901Y167840D01*
X75963Y167540D01*
X76019Y167238D01*
X76067Y166935D01*
X76107Y166631D01*
X76141Y166326D01*
X76167Y166020D01*
X76185Y165714D01*
X76196Y165407D01*
X76200Y165100D01*
X114300Y127000D02*
X114300Y114300D01*
X165100Y114300D01*
X203200Y76200D01*
X114300Y127000D02*
X76200Y165100D01*
X13716Y200025D02*
X13716Y202311D01*
X13716Y200025D02*
X46863Y166878D01*
X46863Y92583D01*
X62865Y76581D01*
X13716Y202311D02*
X12700Y203200D01*
X62865Y76581D02*
X63500Y76200D01*
M02*
