G04 EAGLE Gerber RS-274X export*
G75*
%MOMM*%
%FSLAX34Y34*%
%LPD*%
%INSilk bottom*%
%IPPOS*%
%AMOC8*
5,1,8,0,0,1.08239X$1,22.5*%
G01*
%ADD10C,0.000000*%
%ADD11C,0.025400*%
%ADD12C,0.254000*%


D10*
X0Y0D02*
X0Y279400D01*
X254000Y279400D01*
X254000Y0D01*
X0Y0D01*
D11*
X115438Y237594D02*
X113974Y239350D01*
X113975Y239350D02*
X114322Y239651D01*
X114662Y239960D01*
X114995Y240277D01*
X115320Y240602D01*
X115637Y240934D01*
X115946Y241274D01*
X116247Y241622D01*
X116540Y241976D01*
X116823Y242338D01*
X117098Y242706D01*
X117365Y243081D01*
X117622Y243462D01*
X117870Y243849D01*
X118108Y244241D01*
X118337Y244640D01*
X118557Y245044D01*
X118767Y245452D01*
X118967Y245866D01*
X119157Y246285D01*
X119336Y246708D01*
X119506Y247135D01*
X119665Y247566D01*
X119814Y248001D01*
X119953Y248439D01*
X120081Y248880D01*
X120198Y249325D01*
X120305Y249772D01*
X120401Y250221D01*
X120486Y250673D01*
X120560Y251126D01*
X120624Y251582D01*
X120676Y252038D01*
X120718Y252496D01*
X120748Y252954D01*
X120768Y253414D01*
X120777Y253873D01*
X123062Y253874D01*
X123063Y253873D01*
X123053Y253358D01*
X123032Y252843D01*
X122998Y252329D01*
X122952Y251816D01*
X122893Y251304D01*
X122822Y250794D01*
X122739Y250285D01*
X122644Y249779D01*
X122536Y249275D01*
X122417Y248774D01*
X122286Y248276D01*
X122142Y247781D01*
X121987Y247290D01*
X121820Y246802D01*
X121641Y246319D01*
X121451Y245840D01*
X121250Y245366D01*
X121037Y244897D01*
X120813Y244433D01*
X120578Y243974D01*
X120331Y243522D01*
X120075Y243075D01*
X119807Y242635D01*
X119529Y242201D01*
X119241Y241774D01*
X118942Y241354D01*
X118633Y240942D01*
X118315Y240536D01*
X117987Y240139D01*
X117650Y239750D01*
X117303Y239369D01*
X116947Y238996D01*
X116583Y238632D01*
X116210Y238277D01*
X115828Y237931D01*
X115438Y237594D01*
X115284Y237778D01*
X115670Y238111D01*
X116047Y238453D01*
X116416Y238805D01*
X116776Y239165D01*
X117128Y239533D01*
X117471Y239910D01*
X117804Y240295D01*
X118129Y240688D01*
X118443Y241088D01*
X118748Y241496D01*
X119044Y241911D01*
X119329Y242333D01*
X119604Y242762D01*
X119868Y243198D01*
X120122Y243639D01*
X120365Y244087D01*
X120598Y244540D01*
X120819Y244998D01*
X121030Y245462D01*
X121229Y245931D01*
X121417Y246405D01*
X121594Y246882D01*
X121759Y247364D01*
X121912Y247850D01*
X122054Y248339D01*
X122184Y248832D01*
X122302Y249327D01*
X122408Y249825D01*
X122503Y250326D01*
X122585Y250829D01*
X122655Y251333D01*
X122713Y251839D01*
X122758Y252347D01*
X122792Y252855D01*
X122813Y253364D01*
X122823Y253873D01*
X122583Y253873D01*
X122574Y253370D01*
X122552Y252867D01*
X122519Y252364D01*
X122474Y251863D01*
X122417Y251362D01*
X122347Y250864D01*
X122266Y250367D01*
X122173Y249872D01*
X122068Y249379D01*
X121951Y248890D01*
X121823Y248403D01*
X121683Y247919D01*
X121531Y247439D01*
X121368Y246963D01*
X121193Y246490D01*
X121007Y246022D01*
X120810Y245559D01*
X120602Y245100D01*
X120383Y244647D01*
X120153Y244199D01*
X119913Y243756D01*
X119662Y243320D01*
X119400Y242890D01*
X119128Y242466D01*
X118847Y242048D01*
X118555Y241638D01*
X118253Y241235D01*
X117942Y240839D01*
X117622Y240450D01*
X117292Y240070D01*
X116953Y239697D01*
X116606Y239333D01*
X116249Y238977D01*
X115885Y238630D01*
X115512Y238292D01*
X115131Y237962D01*
X114977Y238147D01*
X115354Y238472D01*
X115722Y238807D01*
X116083Y239150D01*
X116435Y239502D01*
X116778Y239862D01*
X117113Y240230D01*
X117439Y240606D01*
X117756Y240990D01*
X118063Y241381D01*
X118361Y241780D01*
X118650Y242186D01*
X118928Y242598D01*
X119197Y243017D01*
X119455Y243442D01*
X119703Y243874D01*
X119941Y244311D01*
X120168Y244754D01*
X120385Y245202D01*
X120590Y245655D01*
X120785Y246113D01*
X120969Y246576D01*
X121141Y247043D01*
X121303Y247514D01*
X121453Y247988D01*
X121591Y248466D01*
X121718Y248947D01*
X121834Y249431D01*
X121937Y249918D01*
X122030Y250407D01*
X122110Y250899D01*
X122178Y251391D01*
X122235Y251886D01*
X122280Y252382D01*
X122313Y252878D01*
X122334Y253376D01*
X122343Y253873D01*
X122103Y253873D01*
X122094Y253381D01*
X122073Y252890D01*
X122040Y252399D01*
X121996Y251909D01*
X121940Y251421D01*
X121872Y250933D01*
X121793Y250448D01*
X121702Y249965D01*
X121599Y249484D01*
X121485Y249005D01*
X121360Y248530D01*
X121223Y248057D01*
X121075Y247588D01*
X120915Y247123D01*
X120745Y246662D01*
X120563Y246204D01*
X120371Y245752D01*
X120167Y245304D01*
X119954Y244861D01*
X119729Y244423D01*
X119494Y243991D01*
X119249Y243565D01*
X118993Y243145D01*
X118728Y242730D01*
X118453Y242323D01*
X118168Y241922D01*
X117873Y241528D01*
X117569Y241141D01*
X117256Y240762D01*
X116934Y240390D01*
X116603Y240026D01*
X116264Y239670D01*
X115916Y239323D01*
X115560Y238983D01*
X115196Y238653D01*
X114823Y238331D01*
X114670Y238516D01*
X115037Y238833D01*
X115397Y239160D01*
X115749Y239495D01*
X116093Y239839D01*
X116429Y240190D01*
X116755Y240550D01*
X117074Y240917D01*
X117383Y241292D01*
X117683Y241675D01*
X117974Y242064D01*
X118256Y242460D01*
X118528Y242863D01*
X118790Y243272D01*
X119042Y243687D01*
X119285Y244109D01*
X119517Y244536D01*
X119739Y244968D01*
X119950Y245406D01*
X120151Y245848D01*
X120341Y246296D01*
X120521Y246747D01*
X120689Y247203D01*
X120847Y247663D01*
X120993Y248126D01*
X121128Y248593D01*
X121252Y249063D01*
X121365Y249536D01*
X121467Y250011D01*
X121556Y250489D01*
X121635Y250968D01*
X121702Y251450D01*
X121757Y251933D01*
X121801Y252417D01*
X121833Y252902D01*
X121854Y253387D01*
X121863Y253873D01*
X121623Y253873D01*
X121614Y253393D01*
X121593Y252913D01*
X121562Y252434D01*
X121518Y251956D01*
X121464Y251479D01*
X121397Y251003D01*
X121320Y250529D01*
X121231Y250058D01*
X121131Y249588D01*
X121019Y249121D01*
X120897Y248657D01*
X120763Y248195D01*
X120618Y247738D01*
X120463Y247283D01*
X120296Y246833D01*
X120119Y246387D01*
X119931Y245945D01*
X119733Y245507D01*
X119524Y245075D01*
X119305Y244648D01*
X119075Y244226D01*
X118836Y243810D01*
X118587Y243399D01*
X118328Y242995D01*
X118059Y242597D01*
X117781Y242206D01*
X117493Y241821D01*
X117197Y241443D01*
X116891Y241073D01*
X116577Y240710D01*
X116254Y240355D01*
X115922Y240007D01*
X115583Y239668D01*
X115235Y239337D01*
X114879Y239014D01*
X114516Y238700D01*
X114363Y238884D01*
X114721Y239195D01*
X115072Y239513D01*
X115416Y239841D01*
X115751Y240176D01*
X116079Y240519D01*
X116398Y240870D01*
X116708Y241229D01*
X117010Y241595D01*
X117303Y241968D01*
X117587Y242348D01*
X117862Y242734D01*
X118127Y243127D01*
X118383Y243527D01*
X118630Y243932D01*
X118866Y244343D01*
X119093Y244760D01*
X119309Y245182D01*
X119515Y245609D01*
X119711Y246041D01*
X119897Y246478D01*
X120072Y246919D01*
X120237Y247363D01*
X120390Y247812D01*
X120533Y248264D01*
X120665Y248720D01*
X120787Y249179D01*
X120897Y249640D01*
X120996Y250104D01*
X121083Y250570D01*
X121160Y251038D01*
X121225Y251508D01*
X121280Y251979D01*
X121322Y252452D01*
X121354Y252925D01*
X121374Y253399D01*
X121383Y253873D01*
X121143Y253873D01*
X121134Y253405D01*
X121114Y252937D01*
X121083Y252469D01*
X121041Y252003D01*
X120987Y251537D01*
X120923Y251073D01*
X120847Y250611D01*
X120760Y250150D01*
X120662Y249692D01*
X120554Y249236D01*
X120434Y248784D01*
X120303Y248334D01*
X120162Y247887D01*
X120010Y247444D01*
X119848Y247004D01*
X119675Y246569D01*
X119492Y246138D01*
X119298Y245711D01*
X119094Y245289D01*
X118880Y244872D01*
X118657Y244461D01*
X118423Y244055D01*
X118180Y243654D01*
X117927Y243260D01*
X117665Y242871D01*
X117394Y242490D01*
X117113Y242114D01*
X116824Y241746D01*
X116526Y241384D01*
X116219Y241030D01*
X115904Y240684D01*
X115581Y240344D01*
X115249Y240013D01*
X114910Y239690D01*
X114563Y239375D01*
X114209Y239069D01*
X114055Y239253D01*
X114405Y239556D01*
X114748Y239867D01*
X115083Y240186D01*
X115410Y240513D01*
X115729Y240848D01*
X116040Y241190D01*
X116343Y241540D01*
X116637Y241897D01*
X116923Y242261D01*
X117200Y242631D01*
X117468Y243009D01*
X117727Y243392D01*
X117977Y243782D01*
X118217Y244177D01*
X118447Y244578D01*
X118668Y244985D01*
X118879Y245396D01*
X119081Y245813D01*
X119272Y246234D01*
X119453Y246660D01*
X119624Y247090D01*
X119784Y247524D01*
X119934Y247962D01*
X120074Y248403D01*
X120202Y248847D01*
X120321Y249294D01*
X120428Y249744D01*
X120525Y250197D01*
X120610Y250651D01*
X120685Y251108D01*
X120749Y251566D01*
X120802Y252026D01*
X120844Y252487D01*
X120874Y252948D01*
X120894Y253411D01*
X120903Y253873D01*
X123062Y254126D02*
X120776Y254126D01*
X120777Y254127D02*
X120768Y254592D01*
X120748Y255057D01*
X120717Y255521D01*
X120674Y255984D01*
X120620Y256446D01*
X120555Y256907D01*
X120479Y257366D01*
X120392Y257823D01*
X120294Y258278D01*
X120184Y258730D01*
X120064Y259180D01*
X119933Y259626D01*
X119791Y260069D01*
X119638Y260509D01*
X119475Y260944D01*
X119301Y261376D01*
X119117Y261803D01*
X118923Y262226D01*
X118718Y262644D01*
X118503Y263057D01*
X118278Y263464D01*
X118044Y263866D01*
X117800Y264262D01*
X117546Y264652D01*
X117283Y265036D01*
X117010Y265413D01*
X116729Y265783D01*
X116439Y266147D01*
X116140Y266503D01*
X115832Y266852D01*
X115516Y267194D01*
X115192Y267528D01*
X114859Y267853D01*
X114519Y268171D01*
X114172Y268480D01*
X113817Y268781D01*
X113455Y269073D01*
X113085Y269356D01*
X112709Y269630D01*
X112327Y269895D01*
X111938Y270151D01*
X111543Y270397D01*
X111142Y270633D01*
X110736Y270860D01*
X111811Y272877D01*
X111812Y272877D01*
X112267Y272623D01*
X112717Y272359D01*
X113159Y272083D01*
X113595Y271797D01*
X114024Y271500D01*
X114446Y271194D01*
X114860Y270876D01*
X115266Y270549D01*
X115664Y270212D01*
X116053Y269866D01*
X116435Y269510D01*
X116807Y269145D01*
X117170Y268771D01*
X117525Y268389D01*
X117870Y267998D01*
X118205Y267598D01*
X118530Y267191D01*
X118846Y266776D01*
X119151Y266353D01*
X119446Y265923D01*
X119730Y265486D01*
X120004Y265042D01*
X120267Y264592D01*
X120519Y264135D01*
X120759Y263673D01*
X120989Y263204D01*
X121207Y262731D01*
X121413Y262252D01*
X121608Y261768D01*
X121790Y261280D01*
X121961Y260787D01*
X122120Y260290D01*
X122267Y259790D01*
X122402Y259286D01*
X122524Y258779D01*
X122634Y258270D01*
X122731Y257757D01*
X122816Y257243D01*
X122889Y256726D01*
X122949Y256209D01*
X122996Y255689D01*
X123031Y255169D01*
X123053Y254648D01*
X123063Y254127D01*
X122823Y254127D01*
X122813Y254642D01*
X122791Y255157D01*
X122757Y255672D01*
X122710Y256185D01*
X122651Y256697D01*
X122579Y257208D01*
X122495Y257716D01*
X122398Y258223D01*
X122290Y258727D01*
X122169Y259228D01*
X122036Y259726D01*
X121891Y260221D01*
X121733Y260712D01*
X121564Y261199D01*
X121384Y261681D01*
X121191Y262160D01*
X120987Y262633D01*
X120772Y263102D01*
X120545Y263565D01*
X120307Y264022D01*
X120058Y264473D01*
X119798Y264919D01*
X119528Y265357D01*
X119247Y265790D01*
X118955Y266215D01*
X118653Y266633D01*
X118341Y267043D01*
X118019Y267446D01*
X117688Y267841D01*
X117347Y268227D01*
X116997Y268606D01*
X116637Y268975D01*
X116269Y269336D01*
X115892Y269688D01*
X115507Y270031D01*
X115113Y270364D01*
X114712Y270687D01*
X114303Y271001D01*
X113886Y271304D01*
X113462Y271597D01*
X113031Y271880D01*
X112593Y272153D01*
X112149Y272414D01*
X111699Y272665D01*
X111586Y272454D01*
X112031Y272206D01*
X112470Y271947D01*
X112903Y271678D01*
X113329Y271398D01*
X113748Y271108D01*
X114160Y270808D01*
X114564Y270498D01*
X114961Y270178D01*
X115350Y269849D01*
X115731Y269510D01*
X116104Y269162D01*
X116468Y268806D01*
X116823Y268440D01*
X117169Y268066D01*
X117506Y267684D01*
X117834Y267294D01*
X118152Y266895D01*
X118460Y266490D01*
X118759Y266076D01*
X119047Y265656D01*
X119325Y265229D01*
X119593Y264795D01*
X119849Y264355D01*
X120096Y263909D01*
X120331Y263457D01*
X120555Y262999D01*
X120768Y262536D01*
X120970Y262068D01*
X121160Y261595D01*
X121339Y261118D01*
X121506Y260636D01*
X121661Y260151D01*
X121804Y259662D01*
X121936Y259169D01*
X122056Y258674D01*
X122163Y258176D01*
X122258Y257675D01*
X122342Y257172D01*
X122413Y256668D01*
X122471Y256161D01*
X122518Y255654D01*
X122552Y255145D01*
X122573Y254636D01*
X122583Y254127D01*
X122343Y254127D01*
X122333Y254630D01*
X122312Y255134D01*
X122278Y255636D01*
X122232Y256138D01*
X122174Y256638D01*
X122104Y257137D01*
X122022Y257634D01*
X121928Y258129D01*
X121821Y258621D01*
X121703Y259111D01*
X121573Y259598D01*
X121431Y260081D01*
X121278Y260561D01*
X121113Y261037D01*
X120936Y261509D01*
X120748Y261976D01*
X120549Y262438D01*
X120338Y262896D01*
X120116Y263349D01*
X119884Y263795D01*
X119641Y264237D01*
X119387Y264672D01*
X119122Y265100D01*
X118848Y265523D01*
X118563Y265938D01*
X118268Y266346D01*
X117963Y266748D01*
X117649Y267141D01*
X117325Y267527D01*
X116992Y267905D01*
X116649Y268275D01*
X116298Y268636D01*
X115938Y268988D01*
X115570Y269332D01*
X115194Y269667D01*
X114809Y269992D01*
X114417Y270308D01*
X114017Y270615D01*
X113610Y270911D01*
X113196Y271198D01*
X112775Y271475D01*
X112347Y271741D01*
X111913Y271997D01*
X111473Y272242D01*
X111360Y272030D01*
X111795Y271788D01*
X112224Y271535D01*
X112646Y271272D01*
X113063Y270998D01*
X113472Y270715D01*
X113874Y270422D01*
X114269Y270119D01*
X114657Y269807D01*
X115037Y269485D01*
X115409Y269154D01*
X115773Y268814D01*
X116129Y268466D01*
X116476Y268109D01*
X116814Y267744D01*
X117143Y267370D01*
X117463Y266989D01*
X117774Y266600D01*
X118075Y266203D01*
X118366Y265800D01*
X118648Y265389D01*
X118920Y264972D01*
X119181Y264548D01*
X119432Y264118D01*
X119672Y263682D01*
X119902Y263241D01*
X120121Y262793D01*
X120329Y262341D01*
X120526Y261884D01*
X120712Y261422D01*
X120887Y260956D01*
X121050Y260486D01*
X121202Y260011D01*
X121342Y259534D01*
X121470Y259053D01*
X121587Y258569D01*
X121692Y258082D01*
X121786Y257593D01*
X121867Y257102D01*
X121936Y256609D01*
X121994Y256114D01*
X122039Y255619D01*
X122072Y255122D01*
X122093Y254624D01*
X122103Y254127D01*
X121863Y254127D01*
X121854Y254618D01*
X121833Y255110D01*
X121800Y255601D01*
X121755Y256091D01*
X121698Y256579D01*
X121629Y257067D01*
X121549Y257552D01*
X121457Y258035D01*
X121353Y258516D01*
X121238Y258994D01*
X121111Y259470D01*
X120972Y259942D01*
X120822Y260410D01*
X120661Y260875D01*
X120488Y261336D01*
X120304Y261792D01*
X120110Y262244D01*
X119904Y262691D01*
X119688Y263133D01*
X119461Y263569D01*
X119223Y264000D01*
X118975Y264425D01*
X118717Y264843D01*
X118449Y265256D01*
X118170Y265661D01*
X117882Y266060D01*
X117585Y266452D01*
X117278Y266836D01*
X116961Y267213D01*
X116636Y267582D01*
X116302Y267943D01*
X115959Y268296D01*
X115608Y268641D01*
X115248Y268976D01*
X114880Y269303D01*
X114505Y269621D01*
X114122Y269930D01*
X113732Y270229D01*
X113334Y270519D01*
X112929Y270799D01*
X112518Y271069D01*
X112101Y271329D01*
X111677Y271579D01*
X111247Y271818D01*
X111134Y271606D01*
X111559Y271370D01*
X111977Y271123D01*
X112390Y270866D01*
X112796Y270599D01*
X113196Y270322D01*
X113589Y270036D01*
X113974Y269740D01*
X114353Y269435D01*
X114724Y269121D01*
X115087Y268798D01*
X115442Y268467D01*
X115789Y268126D01*
X116128Y267778D01*
X116458Y267421D01*
X116780Y267056D01*
X117092Y266684D01*
X117396Y266304D01*
X117690Y265917D01*
X117974Y265523D01*
X118249Y265122D01*
X118514Y264715D01*
X118769Y264301D01*
X119014Y263881D01*
X119249Y263456D01*
X119473Y263025D01*
X119687Y262588D01*
X119890Y262146D01*
X120083Y261700D01*
X120264Y261249D01*
X120435Y260794D01*
X120594Y260335D01*
X120742Y259872D01*
X120879Y259406D01*
X121005Y258936D01*
X121119Y258463D01*
X121222Y257988D01*
X121313Y257511D01*
X121392Y257031D01*
X121460Y256550D01*
X121516Y256067D01*
X121560Y255583D01*
X121593Y255098D01*
X121614Y254613D01*
X121623Y254127D01*
X121383Y254127D01*
X121374Y254607D01*
X121353Y255086D01*
X121321Y255565D01*
X121277Y256044D01*
X121222Y256521D01*
X121155Y256996D01*
X121076Y257470D01*
X120986Y257941D01*
X120885Y258411D01*
X120772Y258878D01*
X120648Y259341D01*
X120513Y259802D01*
X120366Y260259D01*
X120209Y260713D01*
X120040Y261163D01*
X119861Y261608D01*
X119671Y262049D01*
X119470Y262485D01*
X119259Y262917D01*
X119037Y263343D01*
X118806Y263763D01*
X118564Y264178D01*
X118311Y264586D01*
X118050Y264989D01*
X117778Y265385D01*
X117497Y265774D01*
X117206Y266157D01*
X116907Y266532D01*
X116598Y266900D01*
X116281Y267260D01*
X115954Y267612D01*
X115620Y267956D01*
X115277Y268293D01*
X114926Y268620D01*
X114567Y268939D01*
X114201Y269250D01*
X113827Y269551D01*
X113446Y269843D01*
X113058Y270126D01*
X112663Y270399D01*
X112262Y270663D01*
X111854Y270917D01*
X111441Y271161D01*
X111021Y271395D01*
X110908Y271183D01*
X111322Y270952D01*
X111731Y270711D01*
X112134Y270460D01*
X112530Y270200D01*
X112920Y269930D01*
X113303Y269650D01*
X113679Y269362D01*
X114049Y269064D01*
X114411Y268758D01*
X114765Y268442D01*
X115112Y268119D01*
X115450Y267787D01*
X115781Y267446D01*
X116103Y267098D01*
X116417Y266743D01*
X116721Y266379D01*
X117017Y266009D01*
X117304Y265631D01*
X117582Y265247D01*
X117850Y264855D01*
X118109Y264458D01*
X118358Y264054D01*
X118597Y263645D01*
X118826Y263229D01*
X119045Y262809D01*
X119253Y262383D01*
X119452Y261952D01*
X119639Y261516D01*
X119817Y261076D01*
X119983Y260632D01*
X120138Y260184D01*
X120283Y259732D01*
X120417Y259277D01*
X120539Y258819D01*
X120651Y258358D01*
X120751Y257895D01*
X120840Y257429D01*
X120917Y256961D01*
X120983Y256491D01*
X121038Y256020D01*
X121082Y255548D01*
X121113Y255075D01*
X121134Y254601D01*
X121143Y254127D01*
X120903Y254127D01*
X120894Y254595D01*
X120874Y255063D01*
X120842Y255530D01*
X120799Y255997D01*
X120745Y256462D01*
X120680Y256926D01*
X120603Y257388D01*
X120515Y257848D01*
X120416Y258306D01*
X120306Y258761D01*
X120185Y259213D01*
X120053Y259663D01*
X119911Y260109D01*
X119757Y260551D01*
X119593Y260990D01*
X119418Y261424D01*
X119232Y261854D01*
X119037Y262280D01*
X118830Y262701D01*
X118614Y263116D01*
X118388Y263526D01*
X118152Y263931D01*
X117906Y264329D01*
X117651Y264722D01*
X117386Y265108D01*
X117112Y265488D01*
X116828Y265861D01*
X116536Y266227D01*
X116235Y266586D01*
X115925Y266937D01*
X115607Y267281D01*
X115281Y267617D01*
X114946Y267945D01*
X114604Y268264D01*
X114254Y268576D01*
X113897Y268879D01*
X113532Y269172D01*
X113160Y269458D01*
X112782Y269733D01*
X112397Y270000D01*
X112005Y270257D01*
X111608Y270505D01*
X111204Y270743D01*
X110795Y270971D01*
X80138Y253874D02*
X82424Y253874D01*
X82423Y253873D02*
X82432Y253405D01*
X82453Y252937D01*
X82484Y252469D01*
X82527Y252002D01*
X82582Y251537D01*
X82648Y251073D01*
X82725Y250611D01*
X82813Y250151D01*
X82913Y249693D01*
X83024Y249237D01*
X83146Y248785D01*
X83279Y248336D01*
X83423Y247890D01*
X83577Y247447D01*
X83743Y247009D01*
X83919Y246575D01*
X84106Y246145D01*
X84303Y245720D01*
X84510Y245300D01*
X84728Y244885D01*
X84956Y244475D01*
X85193Y244071D01*
X85441Y243673D01*
X85698Y243282D01*
X85965Y242896D01*
X86241Y242517D01*
X86526Y242146D01*
X86820Y241781D01*
X87123Y241423D01*
X87435Y241073D01*
X87755Y240731D01*
X88083Y240397D01*
X88419Y240071D01*
X88764Y239753D01*
X89116Y239443D01*
X87639Y237699D01*
X87639Y237698D01*
X87244Y238045D01*
X86858Y238401D01*
X86481Y238766D01*
X86112Y239141D01*
X85753Y239524D01*
X85404Y239917D01*
X85064Y240317D01*
X84734Y240726D01*
X84414Y241143D01*
X84105Y241567D01*
X83806Y241999D01*
X83517Y242438D01*
X83240Y242884D01*
X82973Y243337D01*
X82718Y243796D01*
X82474Y244261D01*
X82241Y244732D01*
X82020Y245209D01*
X81811Y245691D01*
X81613Y246178D01*
X81428Y246669D01*
X81254Y247165D01*
X81093Y247665D01*
X80944Y248169D01*
X80808Y248676D01*
X80684Y249187D01*
X80572Y249700D01*
X80473Y250216D01*
X80387Y250734D01*
X80313Y251254D01*
X80253Y251776D01*
X80205Y252299D01*
X80169Y252823D01*
X80147Y253348D01*
X80137Y253873D01*
X80377Y253873D01*
X80387Y253354D01*
X80409Y252835D01*
X80444Y252317D01*
X80491Y251800D01*
X80552Y251284D01*
X80624Y250770D01*
X80710Y250257D01*
X80807Y249747D01*
X80918Y249240D01*
X81040Y248735D01*
X81175Y248233D01*
X81323Y247735D01*
X81482Y247241D01*
X81653Y246751D01*
X81837Y246265D01*
X82032Y245784D01*
X82239Y245307D01*
X82457Y244836D01*
X82687Y244370D01*
X82929Y243910D01*
X83181Y243457D01*
X83445Y243009D01*
X83719Y242568D01*
X84004Y242134D01*
X84300Y241707D01*
X84606Y241287D01*
X84922Y240875D01*
X85248Y240471D01*
X85584Y240075D01*
X85930Y239687D01*
X86285Y239308D01*
X86649Y238938D01*
X87022Y238576D01*
X87404Y238224D01*
X87794Y237881D01*
X87949Y238065D01*
X87563Y238403D01*
X87186Y238751D01*
X86817Y239109D01*
X86457Y239475D01*
X86106Y239850D01*
X85765Y240233D01*
X85433Y240625D01*
X85110Y241024D01*
X84798Y241431D01*
X84495Y241846D01*
X84203Y242268D01*
X83921Y242698D01*
X83650Y243134D01*
X83389Y243576D01*
X83140Y244025D01*
X82901Y244479D01*
X82674Y244940D01*
X82458Y245405D01*
X82253Y245876D01*
X82060Y246352D01*
X81879Y246833D01*
X81710Y247317D01*
X81552Y247806D01*
X81407Y248298D01*
X81273Y248794D01*
X81152Y249293D01*
X81043Y249795D01*
X80946Y250299D01*
X80862Y250805D01*
X80790Y251314D01*
X80730Y251824D01*
X80683Y252335D01*
X80649Y252847D01*
X80627Y253360D01*
X80617Y253873D01*
X80857Y253873D01*
X80867Y253366D01*
X80888Y252859D01*
X80923Y252353D01*
X80969Y251847D01*
X81028Y251343D01*
X81099Y250841D01*
X81182Y250340D01*
X81278Y249842D01*
X81386Y249346D01*
X81506Y248853D01*
X81638Y248363D01*
X81782Y247876D01*
X81937Y247393D01*
X82105Y246914D01*
X82284Y246439D01*
X82475Y245969D01*
X82677Y245504D01*
X82890Y245043D01*
X83115Y244588D01*
X83351Y244139D01*
X83598Y243695D01*
X83855Y243258D01*
X84123Y242827D01*
X84402Y242403D01*
X84690Y241986D01*
X84989Y241576D01*
X85298Y241173D01*
X85617Y240778D01*
X85945Y240391D01*
X86283Y240012D01*
X86630Y239642D01*
X86985Y239280D01*
X87350Y238927D01*
X87723Y238583D01*
X88104Y238248D01*
X88259Y238431D01*
X87882Y238762D01*
X87514Y239102D01*
X87154Y239451D01*
X86802Y239809D01*
X86459Y240175D01*
X86126Y240549D01*
X85801Y240932D01*
X85486Y241322D01*
X85181Y241720D01*
X84886Y242125D01*
X84600Y242538D01*
X84325Y242957D01*
X84060Y243383D01*
X83806Y243815D01*
X83562Y244253D01*
X83329Y244697D01*
X83107Y245147D01*
X82896Y245602D01*
X82696Y246062D01*
X82508Y246527D01*
X82330Y246996D01*
X82165Y247469D01*
X82011Y247947D01*
X81869Y248428D01*
X81738Y248912D01*
X81620Y249399D01*
X81513Y249889D01*
X81419Y250382D01*
X81336Y250876D01*
X81266Y251373D01*
X81208Y251871D01*
X81162Y252371D01*
X81128Y252871D01*
X81107Y253372D01*
X81097Y253873D01*
X81337Y253873D01*
X81347Y253378D01*
X81368Y252883D01*
X81401Y252388D01*
X81447Y251895D01*
X81504Y251403D01*
X81574Y250912D01*
X81655Y250423D01*
X81749Y249937D01*
X81854Y249452D01*
X81971Y248971D01*
X82100Y248492D01*
X82240Y248017D01*
X82393Y247545D01*
X82556Y247078D01*
X82731Y246614D01*
X82917Y246155D01*
X83115Y245700D01*
X83323Y245251D01*
X83543Y244806D01*
X83773Y244368D01*
X84014Y243934D01*
X84265Y243507D01*
X84527Y243087D01*
X84799Y242672D01*
X85081Y242265D01*
X85373Y241864D01*
X85675Y241471D01*
X85986Y241086D01*
X86306Y240708D01*
X86636Y240338D01*
X86974Y239976D01*
X87322Y239622D01*
X87678Y239277D01*
X88042Y238941D01*
X88414Y238614D01*
X88569Y238797D01*
X88201Y239121D01*
X87842Y239453D01*
X87490Y239793D01*
X87147Y240143D01*
X86812Y240500D01*
X86487Y240866D01*
X86170Y241239D01*
X85863Y241620D01*
X85565Y242009D01*
X85276Y242404D01*
X84998Y242807D01*
X84729Y243216D01*
X84470Y243632D01*
X84222Y244054D01*
X83984Y244482D01*
X83757Y244915D01*
X83540Y245354D01*
X83334Y245799D01*
X83139Y246248D01*
X82955Y246701D01*
X82782Y247159D01*
X82620Y247621D01*
X82470Y248087D01*
X82331Y248557D01*
X82204Y249030D01*
X82088Y249505D01*
X81984Y249984D01*
X81892Y250465D01*
X81811Y250948D01*
X81742Y251432D01*
X81685Y251919D01*
X81641Y252406D01*
X81608Y252895D01*
X81586Y253384D01*
X81577Y253873D01*
X81817Y253873D01*
X81826Y253390D01*
X81847Y252907D01*
X81880Y252424D01*
X81924Y251942D01*
X81980Y251462D01*
X82048Y250983D01*
X82128Y250506D01*
X82219Y250031D01*
X82322Y249559D01*
X82436Y249089D01*
X82562Y248622D01*
X82699Y248158D01*
X82848Y247698D01*
X83007Y247241D01*
X83178Y246789D01*
X83360Y246340D01*
X83553Y245897D01*
X83756Y245458D01*
X83970Y245024D01*
X84195Y244596D01*
X84430Y244173D01*
X84675Y243757D01*
X84931Y243346D01*
X85196Y242942D01*
X85472Y242544D01*
X85756Y242153D01*
X86051Y241769D01*
X86354Y241393D01*
X86667Y241024D01*
X86989Y240663D01*
X87319Y240310D01*
X87658Y239965D01*
X88005Y239628D01*
X88361Y239300D01*
X88724Y238981D01*
X88879Y239164D01*
X88520Y239479D01*
X88169Y239803D01*
X87826Y240136D01*
X87492Y240477D01*
X87165Y240825D01*
X86848Y241182D01*
X86539Y241547D01*
X86239Y241918D01*
X85948Y242297D01*
X85667Y242683D01*
X85395Y243076D01*
X85133Y243476D01*
X84881Y243881D01*
X84638Y244293D01*
X84406Y244710D01*
X84184Y245133D01*
X83973Y245562D01*
X83772Y245995D01*
X83581Y246433D01*
X83402Y246876D01*
X83233Y247323D01*
X83075Y247774D01*
X82929Y248228D01*
X82793Y248686D01*
X82669Y249148D01*
X82556Y249612D01*
X82454Y250079D01*
X82364Y250548D01*
X82286Y251019D01*
X82219Y251492D01*
X82163Y251966D01*
X82119Y252442D01*
X82087Y252919D01*
X82066Y253396D01*
X82057Y253873D01*
X82297Y253873D01*
X82306Y253402D01*
X82327Y252930D01*
X82359Y252460D01*
X82402Y251990D01*
X82457Y251521D01*
X82523Y251054D01*
X82601Y250589D01*
X82690Y250126D01*
X82790Y249665D01*
X82902Y249207D01*
X83024Y248751D01*
X83158Y248299D01*
X83303Y247850D01*
X83459Y247404D01*
X83625Y246963D01*
X83803Y246526D01*
X83991Y246093D01*
X84189Y245665D01*
X84398Y245242D01*
X84617Y244825D01*
X84846Y244412D01*
X85086Y244006D01*
X85335Y243605D01*
X85594Y243211D01*
X85862Y242823D01*
X86140Y242442D01*
X86427Y242067D01*
X86723Y241700D01*
X87028Y241340D01*
X87342Y240988D01*
X87664Y240643D01*
X87995Y240307D01*
X88333Y239979D01*
X88680Y239659D01*
X89034Y239347D01*
X90841Y272572D02*
X91976Y270587D01*
X91975Y270588D02*
X91577Y270350D01*
X91185Y270104D01*
X90800Y269847D01*
X90420Y269582D01*
X90047Y269308D01*
X89681Y269024D01*
X89322Y268732D01*
X88970Y268431D01*
X88625Y268122D01*
X88288Y267805D01*
X87958Y267479D01*
X87637Y267146D01*
X87323Y266805D01*
X87018Y266456D01*
X86722Y266101D01*
X86434Y265738D01*
X86155Y265368D01*
X85885Y264992D01*
X85624Y264609D01*
X85373Y264220D01*
X85131Y263826D01*
X84898Y263425D01*
X84676Y263019D01*
X84463Y262608D01*
X84260Y262191D01*
X84067Y261770D01*
X83885Y261345D01*
X83713Y260915D01*
X83551Y260481D01*
X83400Y260043D01*
X83259Y259602D01*
X83129Y259157D01*
X83010Y258710D01*
X82902Y258260D01*
X82804Y257807D01*
X82718Y257352D01*
X82643Y256895D01*
X82578Y256436D01*
X82525Y255976D01*
X82483Y255515D01*
X82452Y255053D01*
X82432Y254590D01*
X82423Y254127D01*
X80138Y254127D01*
X80137Y254127D01*
X80147Y254646D01*
X80169Y255165D01*
X80203Y255683D01*
X80250Y256200D01*
X80309Y256715D01*
X80381Y257229D01*
X80465Y257741D01*
X80562Y258251D01*
X80671Y258759D01*
X80792Y259263D01*
X80925Y259765D01*
X81071Y260263D01*
X81228Y260758D01*
X81398Y261248D01*
X81579Y261735D01*
X81772Y262217D01*
X81976Y262694D01*
X82192Y263165D01*
X82419Y263632D01*
X82658Y264093D01*
X82907Y264548D01*
X83168Y264997D01*
X83439Y265439D01*
X83721Y265875D01*
X84013Y266304D01*
X84316Y266726D01*
X84629Y267140D01*
X84951Y267546D01*
X85284Y267945D01*
X85626Y268336D01*
X85977Y268718D01*
X86337Y269091D01*
X86707Y269456D01*
X87085Y269811D01*
X87471Y270158D01*
X87866Y270495D01*
X88269Y270822D01*
X88679Y271139D01*
X89098Y271447D01*
X89523Y271744D01*
X89956Y272031D01*
X90395Y272307D01*
X90841Y272572D01*
X90960Y272364D01*
X90519Y272102D01*
X90085Y271828D01*
X89657Y271545D01*
X89236Y271251D01*
X88823Y270947D01*
X88417Y270633D01*
X88019Y270309D01*
X87628Y269976D01*
X87246Y269634D01*
X86873Y269282D01*
X86507Y268922D01*
X86151Y268553D01*
X85804Y268175D01*
X85466Y267789D01*
X85137Y267395D01*
X84818Y266993D01*
X84509Y266583D01*
X84210Y266166D01*
X83921Y265742D01*
X83642Y265311D01*
X83374Y264874D01*
X83116Y264430D01*
X82870Y263980D01*
X82634Y263525D01*
X82409Y263063D01*
X82196Y262597D01*
X81993Y262125D01*
X81803Y261649D01*
X81624Y261168D01*
X81456Y260683D01*
X81301Y260194D01*
X81157Y259701D01*
X81025Y259205D01*
X80905Y258706D01*
X80797Y258205D01*
X80702Y257700D01*
X80619Y257194D01*
X80548Y256686D01*
X80489Y256176D01*
X80442Y255665D01*
X80408Y255153D01*
X80387Y254640D01*
X80377Y254127D01*
X80617Y254127D01*
X80627Y254635D01*
X80648Y255141D01*
X80682Y255648D01*
X80728Y256153D01*
X80786Y256657D01*
X80856Y257159D01*
X80938Y257660D01*
X81033Y258158D01*
X81139Y258654D01*
X81258Y259147D01*
X81388Y259637D01*
X81530Y260124D01*
X81684Y260608D01*
X81850Y261087D01*
X82027Y261563D01*
X82215Y262033D01*
X82415Y262500D01*
X82626Y262961D01*
X82848Y263417D01*
X83081Y263868D01*
X83325Y264312D01*
X83580Y264751D01*
X83845Y265184D01*
X84121Y265609D01*
X84406Y266029D01*
X84702Y266441D01*
X85008Y266846D01*
X85323Y267243D01*
X85648Y267632D01*
X85982Y268014D01*
X86325Y268388D01*
X86678Y268753D01*
X87039Y269109D01*
X87408Y269457D01*
X87786Y269795D01*
X88172Y270124D01*
X88565Y270444D01*
X88967Y270755D01*
X89375Y271055D01*
X89791Y271346D01*
X90214Y271626D01*
X90643Y271896D01*
X91079Y272156D01*
X91198Y271947D01*
X90767Y271691D01*
X90343Y271424D01*
X89925Y271147D01*
X89514Y270859D01*
X89110Y270562D01*
X88714Y270256D01*
X88324Y269939D01*
X87943Y269614D01*
X87570Y269279D01*
X87205Y268936D01*
X86848Y268583D01*
X86500Y268223D01*
X86160Y267853D01*
X85830Y267476D01*
X85509Y267091D01*
X85197Y266698D01*
X84895Y266298D01*
X84603Y265891D01*
X84320Y265477D01*
X84048Y265056D01*
X83786Y264628D01*
X83534Y264194D01*
X83293Y263755D01*
X83063Y263309D01*
X82843Y262859D01*
X82635Y262403D01*
X82437Y261942D01*
X82251Y261476D01*
X82076Y261007D01*
X81912Y260533D01*
X81760Y260055D01*
X81620Y259574D01*
X81491Y259089D01*
X81374Y258601D01*
X81268Y258111D01*
X81175Y257619D01*
X81093Y257124D01*
X81024Y256627D01*
X80966Y256129D01*
X80921Y255630D01*
X80888Y255130D01*
X80867Y254629D01*
X80857Y254127D01*
X81097Y254127D01*
X81106Y254623D01*
X81127Y255118D01*
X81160Y255612D01*
X81205Y256106D01*
X81262Y256598D01*
X81331Y257089D01*
X81411Y257578D01*
X81504Y258065D01*
X81608Y258549D01*
X81724Y259031D01*
X81851Y259510D01*
X81990Y259985D01*
X82140Y260458D01*
X82302Y260926D01*
X82475Y261390D01*
X82659Y261850D01*
X82854Y262306D01*
X83060Y262756D01*
X83277Y263202D01*
X83505Y263642D01*
X83743Y264076D01*
X83992Y264505D01*
X84251Y264928D01*
X84520Y265344D01*
X84799Y265753D01*
X85088Y266156D01*
X85387Y266551D01*
X85695Y266939D01*
X86012Y267320D01*
X86339Y267693D01*
X86674Y268057D01*
X87018Y268414D01*
X87371Y268762D01*
X87731Y269102D01*
X88100Y269433D01*
X88477Y269754D01*
X88862Y270067D01*
X89254Y270370D01*
X89653Y270664D01*
X90059Y270947D01*
X90472Y271221D01*
X90891Y271485D01*
X91317Y271739D01*
X91436Y271531D01*
X91016Y271280D01*
X90601Y271019D01*
X90193Y270748D01*
X89792Y270468D01*
X89397Y270178D01*
X89010Y269878D01*
X88630Y269569D01*
X88258Y269251D01*
X87893Y268925D01*
X87537Y268589D01*
X87188Y268245D01*
X86848Y267892D01*
X86517Y267532D01*
X86194Y267164D01*
X85881Y266787D01*
X85576Y266404D01*
X85281Y266013D01*
X84996Y265615D01*
X84720Y265211D01*
X84454Y264800D01*
X84198Y264382D01*
X83952Y263959D01*
X83717Y263529D01*
X83492Y263094D01*
X83278Y262654D01*
X83074Y262209D01*
X82881Y261759D01*
X82699Y261304D01*
X82528Y260845D01*
X82368Y260383D01*
X82220Y259916D01*
X82082Y259446D01*
X81956Y258973D01*
X81842Y258497D01*
X81739Y258018D01*
X81648Y257537D01*
X81568Y257054D01*
X81500Y256569D01*
X81444Y256082D01*
X81400Y255595D01*
X81367Y255106D01*
X81346Y254617D01*
X81337Y254127D01*
X81577Y254127D01*
X81586Y254611D01*
X81607Y255094D01*
X81639Y255577D01*
X81683Y256059D01*
X81739Y256540D01*
X81806Y257019D01*
X81884Y257496D01*
X81975Y257971D01*
X82076Y258444D01*
X82189Y258915D01*
X82314Y259382D01*
X82449Y259847D01*
X82596Y260308D01*
X82754Y260765D01*
X82923Y261218D01*
X83103Y261667D01*
X83293Y262112D01*
X83495Y262552D01*
X83707Y262987D01*
X83929Y263416D01*
X84161Y263841D01*
X84404Y264259D01*
X84657Y264672D01*
X84920Y265078D01*
X85192Y265478D01*
X85474Y265871D01*
X85766Y266257D01*
X86067Y266636D01*
X86376Y267007D01*
X86695Y267371D01*
X87022Y267727D01*
X87358Y268076D01*
X87703Y268416D01*
X88055Y268747D01*
X88415Y269070D01*
X88783Y269384D01*
X89158Y269689D01*
X89541Y269985D01*
X89931Y270272D01*
X90327Y270549D01*
X90730Y270817D01*
X91140Y271074D01*
X91555Y271322D01*
X91674Y271114D01*
X91264Y270869D01*
X90859Y270614D01*
X90461Y270350D01*
X90070Y270076D01*
X89685Y269793D01*
X89307Y269501D01*
X88936Y269199D01*
X88572Y268889D01*
X88217Y268570D01*
X87869Y268242D01*
X87529Y267906D01*
X87197Y267562D01*
X86873Y267211D01*
X86559Y266851D01*
X86253Y266484D01*
X85955Y266109D01*
X85668Y265728D01*
X85389Y265340D01*
X85120Y264945D01*
X84860Y264544D01*
X84610Y264136D01*
X84371Y263723D01*
X84141Y263304D01*
X83921Y262879D01*
X83712Y262450D01*
X83513Y262015D01*
X83325Y261576D01*
X83147Y261132D01*
X82980Y260684D01*
X82824Y260233D01*
X82679Y259777D01*
X82545Y259318D01*
X82422Y258857D01*
X82310Y258392D01*
X82210Y257925D01*
X82121Y257455D01*
X82043Y256984D01*
X81977Y256510D01*
X81922Y256036D01*
X81878Y255560D01*
X81847Y255083D01*
X81826Y254605D01*
X81817Y254127D01*
X82057Y254127D01*
X82066Y254599D01*
X82086Y255071D01*
X82118Y255542D01*
X82161Y256012D01*
X82215Y256481D01*
X82281Y256949D01*
X82357Y257414D01*
X82445Y257878D01*
X82545Y258340D01*
X82655Y258798D01*
X82776Y259255D01*
X82909Y259708D01*
X83052Y260158D01*
X83206Y260604D01*
X83371Y261046D01*
X83546Y261484D01*
X83732Y261918D01*
X83929Y262347D01*
X84136Y262772D01*
X84353Y263191D01*
X84580Y263605D01*
X84816Y264013D01*
X85063Y264416D01*
X85320Y264812D01*
X85585Y265202D01*
X85861Y265586D01*
X86145Y265962D01*
X86438Y266332D01*
X86741Y266695D01*
X87052Y267050D01*
X87371Y267397D01*
X87699Y267737D01*
X88035Y268069D01*
X88378Y268392D01*
X88730Y268708D01*
X89089Y269014D01*
X89455Y269312D01*
X89828Y269601D01*
X90208Y269881D01*
X90595Y270151D01*
X90989Y270412D01*
X91388Y270664D01*
X91793Y270905D01*
X91913Y270697D01*
X91512Y270458D01*
X91118Y270210D01*
X90729Y269952D01*
X90347Y269685D01*
X89972Y269409D01*
X89603Y269123D01*
X89241Y268829D01*
X88887Y268526D01*
X88540Y268215D01*
X88201Y267896D01*
X87869Y267568D01*
X87545Y267232D01*
X87230Y266889D01*
X86923Y266538D01*
X86624Y266180D01*
X86335Y265815D01*
X86054Y265443D01*
X85782Y265064D01*
X85519Y264679D01*
X85266Y264288D01*
X85023Y263890D01*
X84789Y263487D01*
X84564Y263078D01*
X84350Y262664D01*
X84146Y262245D01*
X83952Y261821D01*
X83768Y261393D01*
X83595Y260960D01*
X83432Y260523D01*
X83280Y260083D01*
X83139Y259638D01*
X83008Y259191D01*
X82888Y258740D01*
X82779Y258287D01*
X82681Y257831D01*
X82594Y257373D01*
X82518Y256913D01*
X82453Y256452D01*
X82400Y255989D01*
X82357Y255524D01*
X82326Y255059D01*
X82306Y254594D01*
X82297Y254127D01*
D12*
X109474Y238252D02*
X114554Y238252D01*
X93218Y238252D02*
X88646Y238252D01*
D11*
X166238Y237594D02*
X164774Y239350D01*
X164775Y239350D02*
X165122Y239651D01*
X165462Y239960D01*
X165795Y240277D01*
X166120Y240602D01*
X166437Y240934D01*
X166746Y241274D01*
X167047Y241622D01*
X167340Y241976D01*
X167623Y242338D01*
X167898Y242706D01*
X168165Y243081D01*
X168422Y243462D01*
X168670Y243849D01*
X168908Y244241D01*
X169137Y244640D01*
X169357Y245044D01*
X169567Y245452D01*
X169767Y245866D01*
X169957Y246285D01*
X170136Y246708D01*
X170306Y247135D01*
X170465Y247566D01*
X170614Y248001D01*
X170753Y248439D01*
X170881Y248880D01*
X170998Y249325D01*
X171105Y249772D01*
X171201Y250221D01*
X171286Y250673D01*
X171360Y251126D01*
X171424Y251582D01*
X171476Y252038D01*
X171518Y252496D01*
X171548Y252954D01*
X171568Y253414D01*
X171577Y253873D01*
X173862Y253874D01*
X173863Y253873D01*
X173853Y253358D01*
X173832Y252843D01*
X173798Y252329D01*
X173752Y251816D01*
X173693Y251304D01*
X173622Y250794D01*
X173539Y250285D01*
X173444Y249779D01*
X173336Y249275D01*
X173217Y248774D01*
X173086Y248276D01*
X172942Y247781D01*
X172787Y247290D01*
X172620Y246802D01*
X172441Y246319D01*
X172251Y245840D01*
X172050Y245366D01*
X171837Y244897D01*
X171613Y244433D01*
X171378Y243974D01*
X171131Y243522D01*
X170875Y243075D01*
X170607Y242635D01*
X170329Y242201D01*
X170041Y241774D01*
X169742Y241354D01*
X169433Y240942D01*
X169115Y240536D01*
X168787Y240139D01*
X168450Y239750D01*
X168103Y239369D01*
X167747Y238996D01*
X167383Y238632D01*
X167010Y238277D01*
X166628Y237931D01*
X166238Y237594D01*
X166084Y237778D01*
X166470Y238111D01*
X166847Y238453D01*
X167216Y238805D01*
X167576Y239165D01*
X167928Y239533D01*
X168271Y239910D01*
X168604Y240295D01*
X168929Y240688D01*
X169243Y241088D01*
X169548Y241496D01*
X169844Y241911D01*
X170129Y242333D01*
X170404Y242762D01*
X170668Y243198D01*
X170922Y243639D01*
X171165Y244087D01*
X171398Y244540D01*
X171619Y244998D01*
X171830Y245462D01*
X172029Y245931D01*
X172217Y246405D01*
X172394Y246882D01*
X172559Y247364D01*
X172712Y247850D01*
X172854Y248339D01*
X172984Y248832D01*
X173102Y249327D01*
X173208Y249825D01*
X173303Y250326D01*
X173385Y250829D01*
X173455Y251333D01*
X173513Y251839D01*
X173558Y252347D01*
X173592Y252855D01*
X173613Y253364D01*
X173623Y253873D01*
X173383Y253873D01*
X173374Y253370D01*
X173352Y252867D01*
X173319Y252364D01*
X173274Y251863D01*
X173217Y251362D01*
X173147Y250864D01*
X173066Y250367D01*
X172973Y249872D01*
X172868Y249379D01*
X172751Y248890D01*
X172623Y248403D01*
X172483Y247919D01*
X172331Y247439D01*
X172168Y246963D01*
X171993Y246490D01*
X171807Y246022D01*
X171610Y245559D01*
X171402Y245100D01*
X171183Y244647D01*
X170953Y244199D01*
X170713Y243756D01*
X170462Y243320D01*
X170200Y242890D01*
X169928Y242466D01*
X169647Y242048D01*
X169355Y241638D01*
X169053Y241235D01*
X168742Y240839D01*
X168422Y240450D01*
X168092Y240070D01*
X167753Y239697D01*
X167406Y239333D01*
X167049Y238977D01*
X166685Y238630D01*
X166312Y238292D01*
X165931Y237962D01*
X165777Y238147D01*
X166154Y238472D01*
X166522Y238807D01*
X166883Y239150D01*
X167235Y239502D01*
X167578Y239862D01*
X167913Y240230D01*
X168239Y240606D01*
X168556Y240990D01*
X168863Y241381D01*
X169161Y241780D01*
X169450Y242186D01*
X169728Y242598D01*
X169997Y243017D01*
X170255Y243442D01*
X170503Y243874D01*
X170741Y244311D01*
X170968Y244754D01*
X171185Y245202D01*
X171390Y245655D01*
X171585Y246113D01*
X171769Y246576D01*
X171941Y247043D01*
X172103Y247514D01*
X172253Y247988D01*
X172391Y248466D01*
X172518Y248947D01*
X172634Y249431D01*
X172737Y249918D01*
X172830Y250407D01*
X172910Y250899D01*
X172978Y251391D01*
X173035Y251886D01*
X173080Y252382D01*
X173113Y252878D01*
X173134Y253376D01*
X173143Y253873D01*
X172903Y253873D01*
X172894Y253381D01*
X172873Y252890D01*
X172840Y252399D01*
X172796Y251909D01*
X172740Y251421D01*
X172672Y250933D01*
X172593Y250448D01*
X172502Y249965D01*
X172399Y249484D01*
X172285Y249005D01*
X172160Y248530D01*
X172023Y248057D01*
X171875Y247588D01*
X171715Y247123D01*
X171545Y246662D01*
X171363Y246204D01*
X171171Y245752D01*
X170967Y245304D01*
X170754Y244861D01*
X170529Y244423D01*
X170294Y243991D01*
X170049Y243565D01*
X169793Y243145D01*
X169528Y242730D01*
X169253Y242323D01*
X168968Y241922D01*
X168673Y241528D01*
X168369Y241141D01*
X168056Y240762D01*
X167734Y240390D01*
X167403Y240026D01*
X167064Y239670D01*
X166716Y239323D01*
X166360Y238983D01*
X165996Y238653D01*
X165623Y238331D01*
X165470Y238516D01*
X165837Y238833D01*
X166197Y239160D01*
X166549Y239495D01*
X166893Y239839D01*
X167229Y240190D01*
X167555Y240550D01*
X167874Y240917D01*
X168183Y241292D01*
X168483Y241675D01*
X168774Y242064D01*
X169056Y242460D01*
X169328Y242863D01*
X169590Y243272D01*
X169842Y243687D01*
X170085Y244109D01*
X170317Y244536D01*
X170539Y244968D01*
X170750Y245406D01*
X170951Y245848D01*
X171141Y246296D01*
X171321Y246747D01*
X171489Y247203D01*
X171647Y247663D01*
X171793Y248126D01*
X171928Y248593D01*
X172052Y249063D01*
X172165Y249536D01*
X172267Y250011D01*
X172356Y250489D01*
X172435Y250968D01*
X172502Y251450D01*
X172557Y251933D01*
X172601Y252417D01*
X172633Y252902D01*
X172654Y253387D01*
X172663Y253873D01*
X172423Y253873D01*
X172414Y253393D01*
X172393Y252913D01*
X172362Y252434D01*
X172318Y251956D01*
X172264Y251479D01*
X172197Y251003D01*
X172120Y250529D01*
X172031Y250058D01*
X171931Y249588D01*
X171819Y249121D01*
X171697Y248657D01*
X171563Y248195D01*
X171418Y247738D01*
X171263Y247283D01*
X171096Y246833D01*
X170919Y246387D01*
X170731Y245945D01*
X170533Y245507D01*
X170324Y245075D01*
X170105Y244648D01*
X169875Y244226D01*
X169636Y243810D01*
X169387Y243399D01*
X169128Y242995D01*
X168859Y242597D01*
X168581Y242206D01*
X168293Y241821D01*
X167997Y241443D01*
X167691Y241073D01*
X167377Y240710D01*
X167054Y240355D01*
X166722Y240007D01*
X166383Y239668D01*
X166035Y239337D01*
X165679Y239014D01*
X165316Y238700D01*
X165163Y238884D01*
X165521Y239195D01*
X165872Y239513D01*
X166216Y239841D01*
X166551Y240176D01*
X166879Y240519D01*
X167198Y240870D01*
X167508Y241229D01*
X167810Y241595D01*
X168103Y241968D01*
X168387Y242348D01*
X168662Y242734D01*
X168927Y243127D01*
X169183Y243527D01*
X169430Y243932D01*
X169666Y244343D01*
X169893Y244760D01*
X170109Y245182D01*
X170315Y245609D01*
X170511Y246041D01*
X170697Y246478D01*
X170872Y246919D01*
X171037Y247363D01*
X171190Y247812D01*
X171333Y248264D01*
X171465Y248720D01*
X171587Y249179D01*
X171697Y249640D01*
X171796Y250104D01*
X171883Y250570D01*
X171960Y251038D01*
X172025Y251508D01*
X172080Y251979D01*
X172122Y252452D01*
X172154Y252925D01*
X172174Y253399D01*
X172183Y253873D01*
X171943Y253873D01*
X171934Y253405D01*
X171914Y252937D01*
X171883Y252469D01*
X171841Y252003D01*
X171787Y251537D01*
X171723Y251073D01*
X171647Y250611D01*
X171560Y250150D01*
X171462Y249692D01*
X171354Y249236D01*
X171234Y248784D01*
X171103Y248334D01*
X170962Y247887D01*
X170810Y247444D01*
X170648Y247004D01*
X170475Y246569D01*
X170292Y246138D01*
X170098Y245711D01*
X169894Y245289D01*
X169680Y244872D01*
X169457Y244461D01*
X169223Y244055D01*
X168980Y243654D01*
X168727Y243260D01*
X168465Y242871D01*
X168194Y242490D01*
X167913Y242114D01*
X167624Y241746D01*
X167326Y241384D01*
X167019Y241030D01*
X166704Y240684D01*
X166381Y240344D01*
X166049Y240013D01*
X165710Y239690D01*
X165363Y239375D01*
X165009Y239069D01*
X164855Y239253D01*
X165205Y239556D01*
X165548Y239867D01*
X165883Y240186D01*
X166210Y240513D01*
X166529Y240848D01*
X166840Y241190D01*
X167143Y241540D01*
X167437Y241897D01*
X167723Y242261D01*
X168000Y242631D01*
X168268Y243009D01*
X168527Y243392D01*
X168777Y243782D01*
X169017Y244177D01*
X169247Y244578D01*
X169468Y244985D01*
X169679Y245396D01*
X169881Y245813D01*
X170072Y246234D01*
X170253Y246660D01*
X170424Y247090D01*
X170584Y247524D01*
X170734Y247962D01*
X170874Y248403D01*
X171002Y248847D01*
X171121Y249294D01*
X171228Y249744D01*
X171325Y250197D01*
X171410Y250651D01*
X171485Y251108D01*
X171549Y251566D01*
X171602Y252026D01*
X171644Y252487D01*
X171674Y252948D01*
X171694Y253411D01*
X171703Y253873D01*
X173862Y254126D02*
X171576Y254126D01*
X171577Y254127D02*
X171568Y254592D01*
X171548Y255057D01*
X171517Y255521D01*
X171474Y255984D01*
X171420Y256446D01*
X171355Y256907D01*
X171279Y257366D01*
X171192Y257823D01*
X171094Y258278D01*
X170984Y258730D01*
X170864Y259180D01*
X170733Y259626D01*
X170591Y260069D01*
X170438Y260509D01*
X170275Y260944D01*
X170101Y261376D01*
X169917Y261803D01*
X169723Y262226D01*
X169518Y262644D01*
X169303Y263057D01*
X169078Y263464D01*
X168844Y263866D01*
X168600Y264262D01*
X168346Y264652D01*
X168083Y265036D01*
X167810Y265413D01*
X167529Y265783D01*
X167239Y266147D01*
X166940Y266503D01*
X166632Y266852D01*
X166316Y267194D01*
X165992Y267528D01*
X165659Y267853D01*
X165319Y268171D01*
X164972Y268480D01*
X164617Y268781D01*
X164255Y269073D01*
X163885Y269356D01*
X163509Y269630D01*
X163127Y269895D01*
X162738Y270151D01*
X162343Y270397D01*
X161942Y270633D01*
X161536Y270860D01*
X162611Y272877D01*
X162612Y272877D01*
X163067Y272623D01*
X163517Y272359D01*
X163959Y272083D01*
X164395Y271797D01*
X164824Y271500D01*
X165246Y271194D01*
X165660Y270876D01*
X166066Y270549D01*
X166464Y270212D01*
X166853Y269866D01*
X167235Y269510D01*
X167607Y269145D01*
X167970Y268771D01*
X168325Y268389D01*
X168670Y267998D01*
X169005Y267598D01*
X169330Y267191D01*
X169646Y266776D01*
X169951Y266353D01*
X170246Y265923D01*
X170530Y265486D01*
X170804Y265042D01*
X171067Y264592D01*
X171319Y264135D01*
X171559Y263673D01*
X171789Y263204D01*
X172007Y262731D01*
X172213Y262252D01*
X172408Y261768D01*
X172590Y261280D01*
X172761Y260787D01*
X172920Y260290D01*
X173067Y259790D01*
X173202Y259286D01*
X173324Y258779D01*
X173434Y258270D01*
X173531Y257757D01*
X173616Y257243D01*
X173689Y256726D01*
X173749Y256209D01*
X173796Y255689D01*
X173831Y255169D01*
X173853Y254648D01*
X173863Y254127D01*
X173623Y254127D01*
X173613Y254642D01*
X173591Y255157D01*
X173557Y255672D01*
X173510Y256185D01*
X173451Y256697D01*
X173379Y257208D01*
X173295Y257716D01*
X173198Y258223D01*
X173090Y258727D01*
X172969Y259228D01*
X172836Y259726D01*
X172691Y260221D01*
X172533Y260712D01*
X172364Y261199D01*
X172184Y261681D01*
X171991Y262160D01*
X171787Y262633D01*
X171572Y263102D01*
X171345Y263565D01*
X171107Y264022D01*
X170858Y264473D01*
X170598Y264919D01*
X170328Y265357D01*
X170047Y265790D01*
X169755Y266215D01*
X169453Y266633D01*
X169141Y267043D01*
X168819Y267446D01*
X168488Y267841D01*
X168147Y268227D01*
X167797Y268606D01*
X167437Y268975D01*
X167069Y269336D01*
X166692Y269688D01*
X166307Y270031D01*
X165913Y270364D01*
X165512Y270687D01*
X165103Y271001D01*
X164686Y271304D01*
X164262Y271597D01*
X163831Y271880D01*
X163393Y272153D01*
X162949Y272414D01*
X162499Y272665D01*
X162386Y272454D01*
X162831Y272206D01*
X163270Y271947D01*
X163703Y271678D01*
X164129Y271398D01*
X164548Y271108D01*
X164960Y270808D01*
X165364Y270498D01*
X165761Y270178D01*
X166150Y269849D01*
X166531Y269510D01*
X166904Y269162D01*
X167268Y268806D01*
X167623Y268440D01*
X167969Y268066D01*
X168306Y267684D01*
X168634Y267294D01*
X168952Y266895D01*
X169260Y266490D01*
X169559Y266076D01*
X169847Y265656D01*
X170125Y265229D01*
X170393Y264795D01*
X170649Y264355D01*
X170896Y263909D01*
X171131Y263457D01*
X171355Y262999D01*
X171568Y262536D01*
X171770Y262068D01*
X171960Y261595D01*
X172139Y261118D01*
X172306Y260636D01*
X172461Y260151D01*
X172604Y259662D01*
X172736Y259169D01*
X172856Y258674D01*
X172963Y258176D01*
X173058Y257675D01*
X173142Y257172D01*
X173213Y256668D01*
X173271Y256161D01*
X173318Y255654D01*
X173352Y255145D01*
X173373Y254636D01*
X173383Y254127D01*
X173143Y254127D01*
X173133Y254630D01*
X173112Y255134D01*
X173078Y255636D01*
X173032Y256138D01*
X172974Y256638D01*
X172904Y257137D01*
X172822Y257634D01*
X172728Y258129D01*
X172621Y258621D01*
X172503Y259111D01*
X172373Y259598D01*
X172231Y260081D01*
X172078Y260561D01*
X171913Y261037D01*
X171736Y261509D01*
X171548Y261976D01*
X171349Y262438D01*
X171138Y262896D01*
X170916Y263349D01*
X170684Y263795D01*
X170441Y264237D01*
X170187Y264672D01*
X169922Y265100D01*
X169648Y265523D01*
X169363Y265938D01*
X169068Y266346D01*
X168763Y266748D01*
X168449Y267141D01*
X168125Y267527D01*
X167792Y267905D01*
X167449Y268275D01*
X167098Y268636D01*
X166738Y268988D01*
X166370Y269332D01*
X165994Y269667D01*
X165609Y269992D01*
X165217Y270308D01*
X164817Y270615D01*
X164410Y270911D01*
X163996Y271198D01*
X163575Y271475D01*
X163147Y271741D01*
X162713Y271997D01*
X162273Y272242D01*
X162160Y272030D01*
X162595Y271788D01*
X163024Y271535D01*
X163446Y271272D01*
X163863Y270998D01*
X164272Y270715D01*
X164674Y270422D01*
X165069Y270119D01*
X165457Y269807D01*
X165837Y269485D01*
X166209Y269154D01*
X166573Y268814D01*
X166929Y268466D01*
X167276Y268109D01*
X167614Y267744D01*
X167943Y267370D01*
X168263Y266989D01*
X168574Y266600D01*
X168875Y266203D01*
X169166Y265800D01*
X169448Y265389D01*
X169720Y264972D01*
X169981Y264548D01*
X170232Y264118D01*
X170472Y263682D01*
X170702Y263241D01*
X170921Y262793D01*
X171129Y262341D01*
X171326Y261884D01*
X171512Y261422D01*
X171687Y260956D01*
X171850Y260486D01*
X172002Y260011D01*
X172142Y259534D01*
X172270Y259053D01*
X172387Y258569D01*
X172492Y258082D01*
X172586Y257593D01*
X172667Y257102D01*
X172736Y256609D01*
X172794Y256114D01*
X172839Y255619D01*
X172872Y255122D01*
X172893Y254624D01*
X172903Y254127D01*
X172663Y254127D01*
X172654Y254618D01*
X172633Y255110D01*
X172600Y255601D01*
X172555Y256091D01*
X172498Y256579D01*
X172429Y257067D01*
X172349Y257552D01*
X172257Y258035D01*
X172153Y258516D01*
X172038Y258994D01*
X171911Y259470D01*
X171772Y259942D01*
X171622Y260410D01*
X171461Y260875D01*
X171288Y261336D01*
X171104Y261792D01*
X170910Y262244D01*
X170704Y262691D01*
X170488Y263133D01*
X170261Y263569D01*
X170023Y264000D01*
X169775Y264425D01*
X169517Y264843D01*
X169249Y265256D01*
X168970Y265661D01*
X168682Y266060D01*
X168385Y266452D01*
X168078Y266836D01*
X167761Y267213D01*
X167436Y267582D01*
X167102Y267943D01*
X166759Y268296D01*
X166408Y268641D01*
X166048Y268976D01*
X165680Y269303D01*
X165305Y269621D01*
X164922Y269930D01*
X164532Y270229D01*
X164134Y270519D01*
X163729Y270799D01*
X163318Y271069D01*
X162901Y271329D01*
X162477Y271579D01*
X162047Y271818D01*
X161934Y271606D01*
X162359Y271370D01*
X162777Y271123D01*
X163190Y270866D01*
X163596Y270599D01*
X163996Y270322D01*
X164389Y270036D01*
X164774Y269740D01*
X165153Y269435D01*
X165524Y269121D01*
X165887Y268798D01*
X166242Y268467D01*
X166589Y268126D01*
X166928Y267778D01*
X167258Y267421D01*
X167580Y267056D01*
X167892Y266684D01*
X168196Y266304D01*
X168490Y265917D01*
X168774Y265523D01*
X169049Y265122D01*
X169314Y264715D01*
X169569Y264301D01*
X169814Y263881D01*
X170049Y263456D01*
X170273Y263025D01*
X170487Y262588D01*
X170690Y262146D01*
X170883Y261700D01*
X171064Y261249D01*
X171235Y260794D01*
X171394Y260335D01*
X171542Y259872D01*
X171679Y259406D01*
X171805Y258936D01*
X171919Y258463D01*
X172022Y257988D01*
X172113Y257511D01*
X172192Y257031D01*
X172260Y256550D01*
X172316Y256067D01*
X172360Y255583D01*
X172393Y255098D01*
X172414Y254613D01*
X172423Y254127D01*
X172183Y254127D01*
X172174Y254607D01*
X172153Y255086D01*
X172121Y255565D01*
X172077Y256044D01*
X172022Y256521D01*
X171955Y256996D01*
X171876Y257470D01*
X171786Y257941D01*
X171685Y258411D01*
X171572Y258878D01*
X171448Y259341D01*
X171313Y259802D01*
X171166Y260259D01*
X171009Y260713D01*
X170840Y261163D01*
X170661Y261608D01*
X170471Y262049D01*
X170270Y262485D01*
X170059Y262917D01*
X169837Y263343D01*
X169606Y263763D01*
X169364Y264178D01*
X169111Y264586D01*
X168850Y264989D01*
X168578Y265385D01*
X168297Y265774D01*
X168006Y266157D01*
X167707Y266532D01*
X167398Y266900D01*
X167081Y267260D01*
X166754Y267612D01*
X166420Y267956D01*
X166077Y268293D01*
X165726Y268620D01*
X165367Y268939D01*
X165001Y269250D01*
X164627Y269551D01*
X164246Y269843D01*
X163858Y270126D01*
X163463Y270399D01*
X163062Y270663D01*
X162654Y270917D01*
X162241Y271161D01*
X161821Y271395D01*
X161708Y271183D01*
X162122Y270952D01*
X162531Y270711D01*
X162934Y270460D01*
X163330Y270200D01*
X163720Y269930D01*
X164103Y269650D01*
X164479Y269362D01*
X164849Y269064D01*
X165211Y268758D01*
X165565Y268442D01*
X165912Y268119D01*
X166250Y267787D01*
X166581Y267446D01*
X166903Y267098D01*
X167217Y266743D01*
X167521Y266379D01*
X167817Y266009D01*
X168104Y265631D01*
X168382Y265247D01*
X168650Y264855D01*
X168909Y264458D01*
X169158Y264054D01*
X169397Y263645D01*
X169626Y263229D01*
X169845Y262809D01*
X170053Y262383D01*
X170252Y261952D01*
X170439Y261516D01*
X170617Y261076D01*
X170783Y260632D01*
X170938Y260184D01*
X171083Y259732D01*
X171217Y259277D01*
X171339Y258819D01*
X171451Y258358D01*
X171551Y257895D01*
X171640Y257429D01*
X171717Y256961D01*
X171783Y256491D01*
X171838Y256020D01*
X171882Y255548D01*
X171913Y255075D01*
X171934Y254601D01*
X171943Y254127D01*
X171703Y254127D01*
X171694Y254595D01*
X171674Y255063D01*
X171642Y255530D01*
X171599Y255997D01*
X171545Y256462D01*
X171480Y256926D01*
X171403Y257388D01*
X171315Y257848D01*
X171216Y258306D01*
X171106Y258761D01*
X170985Y259213D01*
X170853Y259663D01*
X170711Y260109D01*
X170557Y260551D01*
X170393Y260990D01*
X170218Y261424D01*
X170032Y261854D01*
X169837Y262280D01*
X169630Y262701D01*
X169414Y263116D01*
X169188Y263526D01*
X168952Y263931D01*
X168706Y264329D01*
X168451Y264722D01*
X168186Y265108D01*
X167912Y265488D01*
X167628Y265861D01*
X167336Y266227D01*
X167035Y266586D01*
X166725Y266937D01*
X166407Y267281D01*
X166081Y267617D01*
X165746Y267945D01*
X165404Y268264D01*
X165054Y268576D01*
X164697Y268879D01*
X164332Y269172D01*
X163960Y269458D01*
X163582Y269733D01*
X163197Y270000D01*
X162805Y270257D01*
X162408Y270505D01*
X162004Y270743D01*
X161595Y270971D01*
X130938Y253874D02*
X133224Y253874D01*
X133223Y253873D02*
X133232Y253405D01*
X133253Y252937D01*
X133284Y252469D01*
X133327Y252002D01*
X133382Y251537D01*
X133448Y251073D01*
X133525Y250611D01*
X133613Y250151D01*
X133713Y249693D01*
X133824Y249237D01*
X133946Y248785D01*
X134079Y248336D01*
X134223Y247890D01*
X134377Y247447D01*
X134543Y247009D01*
X134719Y246575D01*
X134906Y246145D01*
X135103Y245720D01*
X135310Y245300D01*
X135528Y244885D01*
X135756Y244475D01*
X135993Y244071D01*
X136241Y243673D01*
X136498Y243282D01*
X136765Y242896D01*
X137041Y242517D01*
X137326Y242146D01*
X137620Y241781D01*
X137923Y241423D01*
X138235Y241073D01*
X138555Y240731D01*
X138883Y240397D01*
X139219Y240071D01*
X139564Y239753D01*
X139916Y239443D01*
X138439Y237699D01*
X138439Y237698D01*
X138044Y238045D01*
X137658Y238401D01*
X137281Y238766D01*
X136912Y239141D01*
X136553Y239524D01*
X136204Y239917D01*
X135864Y240317D01*
X135534Y240726D01*
X135214Y241143D01*
X134905Y241567D01*
X134606Y241999D01*
X134317Y242438D01*
X134040Y242884D01*
X133773Y243337D01*
X133518Y243796D01*
X133274Y244261D01*
X133041Y244732D01*
X132820Y245209D01*
X132611Y245691D01*
X132413Y246178D01*
X132228Y246669D01*
X132054Y247165D01*
X131893Y247665D01*
X131744Y248169D01*
X131608Y248676D01*
X131484Y249187D01*
X131372Y249700D01*
X131273Y250216D01*
X131187Y250734D01*
X131113Y251254D01*
X131053Y251776D01*
X131005Y252299D01*
X130969Y252823D01*
X130947Y253348D01*
X130937Y253873D01*
X131177Y253873D01*
X131187Y253354D01*
X131209Y252835D01*
X131244Y252317D01*
X131291Y251800D01*
X131352Y251284D01*
X131424Y250770D01*
X131510Y250257D01*
X131607Y249747D01*
X131718Y249240D01*
X131840Y248735D01*
X131975Y248233D01*
X132123Y247735D01*
X132282Y247241D01*
X132453Y246751D01*
X132637Y246265D01*
X132832Y245784D01*
X133039Y245307D01*
X133257Y244836D01*
X133487Y244370D01*
X133729Y243910D01*
X133981Y243457D01*
X134245Y243009D01*
X134519Y242568D01*
X134804Y242134D01*
X135100Y241707D01*
X135406Y241287D01*
X135722Y240875D01*
X136048Y240471D01*
X136384Y240075D01*
X136730Y239687D01*
X137085Y239308D01*
X137449Y238938D01*
X137822Y238576D01*
X138204Y238224D01*
X138594Y237881D01*
X138749Y238065D01*
X138363Y238403D01*
X137986Y238751D01*
X137617Y239109D01*
X137257Y239475D01*
X136906Y239850D01*
X136565Y240233D01*
X136233Y240625D01*
X135910Y241024D01*
X135598Y241431D01*
X135295Y241846D01*
X135003Y242268D01*
X134721Y242698D01*
X134450Y243134D01*
X134189Y243576D01*
X133940Y244025D01*
X133701Y244479D01*
X133474Y244940D01*
X133258Y245405D01*
X133053Y245876D01*
X132860Y246352D01*
X132679Y246833D01*
X132510Y247317D01*
X132352Y247806D01*
X132207Y248298D01*
X132073Y248794D01*
X131952Y249293D01*
X131843Y249795D01*
X131746Y250299D01*
X131662Y250805D01*
X131590Y251314D01*
X131530Y251824D01*
X131483Y252335D01*
X131449Y252847D01*
X131427Y253360D01*
X131417Y253873D01*
X131657Y253873D01*
X131667Y253366D01*
X131688Y252859D01*
X131723Y252353D01*
X131769Y251847D01*
X131828Y251343D01*
X131899Y250841D01*
X131982Y250340D01*
X132078Y249842D01*
X132186Y249346D01*
X132306Y248853D01*
X132438Y248363D01*
X132582Y247876D01*
X132737Y247393D01*
X132905Y246914D01*
X133084Y246439D01*
X133275Y245969D01*
X133477Y245504D01*
X133690Y245043D01*
X133915Y244588D01*
X134151Y244139D01*
X134398Y243695D01*
X134655Y243258D01*
X134923Y242827D01*
X135202Y242403D01*
X135490Y241986D01*
X135789Y241576D01*
X136098Y241173D01*
X136417Y240778D01*
X136745Y240391D01*
X137083Y240012D01*
X137430Y239642D01*
X137785Y239280D01*
X138150Y238927D01*
X138523Y238583D01*
X138904Y238248D01*
X139059Y238431D01*
X138682Y238762D01*
X138314Y239102D01*
X137954Y239451D01*
X137602Y239809D01*
X137259Y240175D01*
X136926Y240549D01*
X136601Y240932D01*
X136286Y241322D01*
X135981Y241720D01*
X135686Y242125D01*
X135400Y242538D01*
X135125Y242957D01*
X134860Y243383D01*
X134606Y243815D01*
X134362Y244253D01*
X134129Y244697D01*
X133907Y245147D01*
X133696Y245602D01*
X133496Y246062D01*
X133308Y246527D01*
X133130Y246996D01*
X132965Y247469D01*
X132811Y247947D01*
X132669Y248428D01*
X132538Y248912D01*
X132420Y249399D01*
X132313Y249889D01*
X132219Y250382D01*
X132136Y250876D01*
X132066Y251373D01*
X132008Y251871D01*
X131962Y252371D01*
X131928Y252871D01*
X131907Y253372D01*
X131897Y253873D01*
X132137Y253873D01*
X132147Y253378D01*
X132168Y252883D01*
X132201Y252388D01*
X132247Y251895D01*
X132304Y251403D01*
X132374Y250912D01*
X132455Y250423D01*
X132549Y249937D01*
X132654Y249452D01*
X132771Y248971D01*
X132900Y248492D01*
X133040Y248017D01*
X133193Y247545D01*
X133356Y247078D01*
X133531Y246614D01*
X133717Y246155D01*
X133915Y245700D01*
X134123Y245251D01*
X134343Y244806D01*
X134573Y244368D01*
X134814Y243934D01*
X135065Y243507D01*
X135327Y243087D01*
X135599Y242672D01*
X135881Y242265D01*
X136173Y241864D01*
X136475Y241471D01*
X136786Y241086D01*
X137106Y240708D01*
X137436Y240338D01*
X137774Y239976D01*
X138122Y239622D01*
X138478Y239277D01*
X138842Y238941D01*
X139214Y238614D01*
X139369Y238797D01*
X139001Y239121D01*
X138642Y239453D01*
X138290Y239793D01*
X137947Y240143D01*
X137612Y240500D01*
X137287Y240866D01*
X136970Y241239D01*
X136663Y241620D01*
X136365Y242009D01*
X136076Y242404D01*
X135798Y242807D01*
X135529Y243216D01*
X135270Y243632D01*
X135022Y244054D01*
X134784Y244482D01*
X134557Y244915D01*
X134340Y245354D01*
X134134Y245799D01*
X133939Y246248D01*
X133755Y246701D01*
X133582Y247159D01*
X133420Y247621D01*
X133270Y248087D01*
X133131Y248557D01*
X133004Y249030D01*
X132888Y249505D01*
X132784Y249984D01*
X132692Y250465D01*
X132611Y250948D01*
X132542Y251432D01*
X132485Y251919D01*
X132441Y252406D01*
X132408Y252895D01*
X132386Y253384D01*
X132377Y253873D01*
X132617Y253873D01*
X132626Y253390D01*
X132647Y252907D01*
X132680Y252424D01*
X132724Y251942D01*
X132780Y251462D01*
X132848Y250983D01*
X132928Y250506D01*
X133019Y250031D01*
X133122Y249559D01*
X133236Y249089D01*
X133362Y248622D01*
X133499Y248158D01*
X133648Y247698D01*
X133807Y247241D01*
X133978Y246789D01*
X134160Y246340D01*
X134353Y245897D01*
X134556Y245458D01*
X134770Y245024D01*
X134995Y244596D01*
X135230Y244173D01*
X135475Y243757D01*
X135731Y243346D01*
X135996Y242942D01*
X136272Y242544D01*
X136556Y242153D01*
X136851Y241769D01*
X137154Y241393D01*
X137467Y241024D01*
X137789Y240663D01*
X138119Y240310D01*
X138458Y239965D01*
X138805Y239628D01*
X139161Y239300D01*
X139524Y238981D01*
X139679Y239164D01*
X139320Y239479D01*
X138969Y239803D01*
X138626Y240136D01*
X138292Y240477D01*
X137965Y240825D01*
X137648Y241182D01*
X137339Y241547D01*
X137039Y241918D01*
X136748Y242297D01*
X136467Y242683D01*
X136195Y243076D01*
X135933Y243476D01*
X135681Y243881D01*
X135438Y244293D01*
X135206Y244710D01*
X134984Y245133D01*
X134773Y245562D01*
X134572Y245995D01*
X134381Y246433D01*
X134202Y246876D01*
X134033Y247323D01*
X133875Y247774D01*
X133729Y248228D01*
X133593Y248686D01*
X133469Y249148D01*
X133356Y249612D01*
X133254Y250079D01*
X133164Y250548D01*
X133086Y251019D01*
X133019Y251492D01*
X132963Y251966D01*
X132919Y252442D01*
X132887Y252919D01*
X132866Y253396D01*
X132857Y253873D01*
X133097Y253873D01*
X133106Y253402D01*
X133127Y252930D01*
X133159Y252460D01*
X133202Y251990D01*
X133257Y251521D01*
X133323Y251054D01*
X133401Y250589D01*
X133490Y250126D01*
X133590Y249665D01*
X133702Y249207D01*
X133824Y248751D01*
X133958Y248299D01*
X134103Y247850D01*
X134259Y247404D01*
X134425Y246963D01*
X134603Y246526D01*
X134791Y246093D01*
X134989Y245665D01*
X135198Y245242D01*
X135417Y244825D01*
X135646Y244412D01*
X135886Y244006D01*
X136135Y243605D01*
X136394Y243211D01*
X136662Y242823D01*
X136940Y242442D01*
X137227Y242067D01*
X137523Y241700D01*
X137828Y241340D01*
X138142Y240988D01*
X138464Y240643D01*
X138795Y240307D01*
X139133Y239979D01*
X139480Y239659D01*
X139834Y239347D01*
X141641Y272572D02*
X142776Y270587D01*
X142775Y270588D02*
X142377Y270350D01*
X141985Y270104D01*
X141600Y269847D01*
X141220Y269582D01*
X140847Y269308D01*
X140481Y269024D01*
X140122Y268732D01*
X139770Y268431D01*
X139425Y268122D01*
X139088Y267805D01*
X138758Y267479D01*
X138437Y267146D01*
X138123Y266805D01*
X137818Y266456D01*
X137522Y266101D01*
X137234Y265738D01*
X136955Y265368D01*
X136685Y264992D01*
X136424Y264609D01*
X136173Y264220D01*
X135931Y263826D01*
X135698Y263425D01*
X135476Y263019D01*
X135263Y262608D01*
X135060Y262191D01*
X134867Y261770D01*
X134685Y261345D01*
X134513Y260915D01*
X134351Y260481D01*
X134200Y260043D01*
X134059Y259602D01*
X133929Y259157D01*
X133810Y258710D01*
X133702Y258260D01*
X133604Y257807D01*
X133518Y257352D01*
X133443Y256895D01*
X133378Y256436D01*
X133325Y255976D01*
X133283Y255515D01*
X133252Y255053D01*
X133232Y254590D01*
X133223Y254127D01*
X130938Y254127D01*
X130937Y254127D01*
X130947Y254646D01*
X130969Y255165D01*
X131003Y255683D01*
X131050Y256200D01*
X131109Y256715D01*
X131181Y257229D01*
X131265Y257741D01*
X131362Y258251D01*
X131471Y258759D01*
X131592Y259263D01*
X131725Y259765D01*
X131871Y260263D01*
X132028Y260758D01*
X132198Y261248D01*
X132379Y261735D01*
X132572Y262217D01*
X132776Y262694D01*
X132992Y263165D01*
X133219Y263632D01*
X133458Y264093D01*
X133707Y264548D01*
X133968Y264997D01*
X134239Y265439D01*
X134521Y265875D01*
X134813Y266304D01*
X135116Y266726D01*
X135429Y267140D01*
X135751Y267546D01*
X136084Y267945D01*
X136426Y268336D01*
X136777Y268718D01*
X137137Y269091D01*
X137507Y269456D01*
X137885Y269811D01*
X138271Y270158D01*
X138666Y270495D01*
X139069Y270822D01*
X139479Y271139D01*
X139898Y271447D01*
X140323Y271744D01*
X140756Y272031D01*
X141195Y272307D01*
X141641Y272572D01*
X141760Y272364D01*
X141319Y272102D01*
X140885Y271828D01*
X140457Y271545D01*
X140036Y271251D01*
X139623Y270947D01*
X139217Y270633D01*
X138819Y270309D01*
X138428Y269976D01*
X138046Y269634D01*
X137673Y269282D01*
X137307Y268922D01*
X136951Y268553D01*
X136604Y268175D01*
X136266Y267789D01*
X135937Y267395D01*
X135618Y266993D01*
X135309Y266583D01*
X135010Y266166D01*
X134721Y265742D01*
X134442Y265311D01*
X134174Y264874D01*
X133916Y264430D01*
X133670Y263980D01*
X133434Y263525D01*
X133209Y263063D01*
X132996Y262597D01*
X132793Y262125D01*
X132603Y261649D01*
X132424Y261168D01*
X132256Y260683D01*
X132101Y260194D01*
X131957Y259701D01*
X131825Y259205D01*
X131705Y258706D01*
X131597Y258205D01*
X131502Y257700D01*
X131419Y257194D01*
X131348Y256686D01*
X131289Y256176D01*
X131242Y255665D01*
X131208Y255153D01*
X131187Y254640D01*
X131177Y254127D01*
X131417Y254127D01*
X131427Y254635D01*
X131448Y255141D01*
X131482Y255648D01*
X131528Y256153D01*
X131586Y256657D01*
X131656Y257159D01*
X131738Y257660D01*
X131833Y258158D01*
X131939Y258654D01*
X132058Y259147D01*
X132188Y259637D01*
X132330Y260124D01*
X132484Y260608D01*
X132650Y261087D01*
X132827Y261563D01*
X133015Y262033D01*
X133215Y262500D01*
X133426Y262961D01*
X133648Y263417D01*
X133881Y263868D01*
X134125Y264312D01*
X134380Y264751D01*
X134645Y265184D01*
X134921Y265609D01*
X135206Y266029D01*
X135502Y266441D01*
X135808Y266846D01*
X136123Y267243D01*
X136448Y267632D01*
X136782Y268014D01*
X137125Y268388D01*
X137478Y268753D01*
X137839Y269109D01*
X138208Y269457D01*
X138586Y269795D01*
X138972Y270124D01*
X139365Y270444D01*
X139767Y270755D01*
X140175Y271055D01*
X140591Y271346D01*
X141014Y271626D01*
X141443Y271896D01*
X141879Y272156D01*
X141998Y271947D01*
X141567Y271691D01*
X141143Y271424D01*
X140725Y271147D01*
X140314Y270859D01*
X139910Y270562D01*
X139514Y270256D01*
X139124Y269939D01*
X138743Y269614D01*
X138370Y269279D01*
X138005Y268936D01*
X137648Y268583D01*
X137300Y268223D01*
X136960Y267853D01*
X136630Y267476D01*
X136309Y267091D01*
X135997Y266698D01*
X135695Y266298D01*
X135403Y265891D01*
X135120Y265477D01*
X134848Y265056D01*
X134586Y264628D01*
X134334Y264194D01*
X134093Y263755D01*
X133863Y263309D01*
X133643Y262859D01*
X133435Y262403D01*
X133237Y261942D01*
X133051Y261476D01*
X132876Y261007D01*
X132712Y260533D01*
X132560Y260055D01*
X132420Y259574D01*
X132291Y259089D01*
X132174Y258601D01*
X132068Y258111D01*
X131975Y257619D01*
X131893Y257124D01*
X131824Y256627D01*
X131766Y256129D01*
X131721Y255630D01*
X131688Y255130D01*
X131667Y254629D01*
X131657Y254127D01*
X131897Y254127D01*
X131906Y254623D01*
X131927Y255118D01*
X131960Y255612D01*
X132005Y256106D01*
X132062Y256598D01*
X132131Y257089D01*
X132211Y257578D01*
X132304Y258065D01*
X132408Y258549D01*
X132524Y259031D01*
X132651Y259510D01*
X132790Y259985D01*
X132940Y260458D01*
X133102Y260926D01*
X133275Y261390D01*
X133459Y261850D01*
X133654Y262306D01*
X133860Y262756D01*
X134077Y263202D01*
X134305Y263642D01*
X134543Y264076D01*
X134792Y264505D01*
X135051Y264928D01*
X135320Y265344D01*
X135599Y265753D01*
X135888Y266156D01*
X136187Y266551D01*
X136495Y266939D01*
X136812Y267320D01*
X137139Y267693D01*
X137474Y268057D01*
X137818Y268414D01*
X138171Y268762D01*
X138531Y269102D01*
X138900Y269433D01*
X139277Y269754D01*
X139662Y270067D01*
X140054Y270370D01*
X140453Y270664D01*
X140859Y270947D01*
X141272Y271221D01*
X141691Y271485D01*
X142117Y271739D01*
X142236Y271531D01*
X141816Y271280D01*
X141401Y271019D01*
X140993Y270748D01*
X140592Y270468D01*
X140197Y270178D01*
X139810Y269878D01*
X139430Y269569D01*
X139058Y269251D01*
X138693Y268925D01*
X138337Y268589D01*
X137988Y268245D01*
X137648Y267892D01*
X137317Y267532D01*
X136994Y267164D01*
X136681Y266787D01*
X136376Y266404D01*
X136081Y266013D01*
X135796Y265615D01*
X135520Y265211D01*
X135254Y264800D01*
X134998Y264382D01*
X134752Y263959D01*
X134517Y263529D01*
X134292Y263094D01*
X134078Y262654D01*
X133874Y262209D01*
X133681Y261759D01*
X133499Y261304D01*
X133328Y260845D01*
X133168Y260383D01*
X133020Y259916D01*
X132882Y259446D01*
X132756Y258973D01*
X132642Y258497D01*
X132539Y258018D01*
X132448Y257537D01*
X132368Y257054D01*
X132300Y256569D01*
X132244Y256082D01*
X132200Y255595D01*
X132167Y255106D01*
X132146Y254617D01*
X132137Y254127D01*
X132377Y254127D01*
X132386Y254611D01*
X132407Y255094D01*
X132439Y255577D01*
X132483Y256059D01*
X132539Y256540D01*
X132606Y257019D01*
X132684Y257496D01*
X132775Y257971D01*
X132876Y258444D01*
X132989Y258915D01*
X133114Y259382D01*
X133249Y259847D01*
X133396Y260308D01*
X133554Y260765D01*
X133723Y261218D01*
X133903Y261667D01*
X134093Y262112D01*
X134295Y262552D01*
X134507Y262987D01*
X134729Y263416D01*
X134961Y263841D01*
X135204Y264259D01*
X135457Y264672D01*
X135720Y265078D01*
X135992Y265478D01*
X136274Y265871D01*
X136566Y266257D01*
X136867Y266636D01*
X137176Y267007D01*
X137495Y267371D01*
X137822Y267727D01*
X138158Y268076D01*
X138503Y268416D01*
X138855Y268747D01*
X139215Y269070D01*
X139583Y269384D01*
X139958Y269689D01*
X140341Y269985D01*
X140731Y270272D01*
X141127Y270549D01*
X141530Y270817D01*
X141940Y271074D01*
X142355Y271322D01*
X142474Y271114D01*
X142064Y270869D01*
X141659Y270614D01*
X141261Y270350D01*
X140870Y270076D01*
X140485Y269793D01*
X140107Y269501D01*
X139736Y269199D01*
X139372Y268889D01*
X139017Y268570D01*
X138669Y268242D01*
X138329Y267906D01*
X137997Y267562D01*
X137673Y267211D01*
X137359Y266851D01*
X137053Y266484D01*
X136755Y266109D01*
X136468Y265728D01*
X136189Y265340D01*
X135920Y264945D01*
X135660Y264544D01*
X135410Y264136D01*
X135171Y263723D01*
X134941Y263304D01*
X134721Y262879D01*
X134512Y262450D01*
X134313Y262015D01*
X134125Y261576D01*
X133947Y261132D01*
X133780Y260684D01*
X133624Y260233D01*
X133479Y259777D01*
X133345Y259318D01*
X133222Y258857D01*
X133110Y258392D01*
X133010Y257925D01*
X132921Y257455D01*
X132843Y256984D01*
X132777Y256510D01*
X132722Y256036D01*
X132678Y255560D01*
X132647Y255083D01*
X132626Y254605D01*
X132617Y254127D01*
X132857Y254127D01*
X132866Y254599D01*
X132886Y255071D01*
X132918Y255542D01*
X132961Y256012D01*
X133015Y256481D01*
X133081Y256949D01*
X133157Y257414D01*
X133245Y257878D01*
X133345Y258340D01*
X133455Y258798D01*
X133576Y259255D01*
X133709Y259708D01*
X133852Y260158D01*
X134006Y260604D01*
X134171Y261046D01*
X134346Y261484D01*
X134532Y261918D01*
X134729Y262347D01*
X134936Y262772D01*
X135153Y263191D01*
X135380Y263605D01*
X135616Y264013D01*
X135863Y264416D01*
X136120Y264812D01*
X136385Y265202D01*
X136661Y265586D01*
X136945Y265962D01*
X137238Y266332D01*
X137541Y266695D01*
X137852Y267050D01*
X138171Y267397D01*
X138499Y267737D01*
X138835Y268069D01*
X139178Y268392D01*
X139530Y268708D01*
X139889Y269014D01*
X140255Y269312D01*
X140628Y269601D01*
X141008Y269881D01*
X141395Y270151D01*
X141789Y270412D01*
X142188Y270664D01*
X142593Y270905D01*
X142713Y270697D01*
X142312Y270458D01*
X141918Y270210D01*
X141529Y269952D01*
X141147Y269685D01*
X140772Y269409D01*
X140403Y269123D01*
X140041Y268829D01*
X139687Y268526D01*
X139340Y268215D01*
X139001Y267896D01*
X138669Y267568D01*
X138345Y267232D01*
X138030Y266889D01*
X137723Y266538D01*
X137424Y266180D01*
X137135Y265815D01*
X136854Y265443D01*
X136582Y265064D01*
X136319Y264679D01*
X136066Y264288D01*
X135823Y263890D01*
X135589Y263487D01*
X135364Y263078D01*
X135150Y262664D01*
X134946Y262245D01*
X134752Y261821D01*
X134568Y261393D01*
X134395Y260960D01*
X134232Y260523D01*
X134080Y260083D01*
X133939Y259638D01*
X133808Y259191D01*
X133688Y258740D01*
X133579Y258287D01*
X133481Y257831D01*
X133394Y257373D01*
X133318Y256913D01*
X133253Y256452D01*
X133200Y255989D01*
X133157Y255524D01*
X133126Y255059D01*
X133106Y254594D01*
X133097Y254127D01*
D12*
X160274Y238252D02*
X165354Y238252D01*
X144018Y238252D02*
X139446Y238252D01*
M02*
